{"glyphs":{"0":{"ha":956,"x_min":56,"x_max":900,"o":"m 478 956 q 781 814 663 956 q 900 467 900 672 q 781 119 900 261 q 478 -22 663 -22 q 173 119 290 -22 q 56 467 56 260 q 174 814 56 672 q 478 956 292 956 m 368 294 q 391 258 368 294 q 478 222 414 222 q 588 294 542 222 q 633 467 633 365 q 588 640 633 568 q 478 711 542 711 q 368 640 414 711 q 322 467 322 568 q 368 294 322 365 z "},"1":{"ha":644,"x_min":78,"x_max":544,"o":"m 78 844 l 544 956 l 544 0 l 278 0 l 278 657 l 78 618 l 78 844 z "},"2":{"ha":911,"x_min":56,"x_max":856,"o":"m 56 600 q 157 847 56 739 q 435 956 258 956 q 724 860 615 956 q 833 613 833 765 q 765 422 833 519 q 569 244 697 325 l 856 244 l 856 0 l 56 0 l 456 422 q 564 600 564 538 q 531 681 564 651 q 444 711 497 711 q 353 675 390 711 q 315 578 315 639 l 56 600 z "},"3":{"ha":911,"x_min":56,"x_max":856,"o":"m 722 493 q 819 410 782 464 q 856 289 856 356 q 753 74 856 169 q 456 -22 650 -22 q 168 62 281 -22 q 56 311 56 146 l 322 333 q 465 206 322 206 q 547 231 515 206 q 579 293 579 256 q 529 367 579 344 q 381 389 479 389 l 381 567 q 401 567 388 567 q 446 571 414 567 q 502 583 478 575 q 547 609 526 590 q 567 654 567 628 q 535 708 567 685 q 456 731 503 731 q 363 701 400 731 q 322 611 325 671 l 78 633 q 196 872 94 789 q 456 956 297 956 q 732 871 631 956 q 833 667 833 786 q 722 493 833 551 z "},"4":{"ha":956,"x_min":56,"x_max":900,"o":"m 789 378 l 900 378 l 900 156 l 789 156 l 789 0 l 522 0 l 522 156 l 56 156 l 56 356 l 456 933 l 789 933 l 789 378 m 522 378 l 522 667 l 344 378 l 522 378 z "},"5":{"ha":911,"x_min":56,"x_max":856,"o":"m 500 622 q 763 550 669 622 q 856 333 856 478 q 743 73 856 168 q 444 -22 631 -22 q 165 60 274 -22 q 56 289 56 143 l 332 306 q 374 230 339 260 q 456 200 408 200 q 545 235 508 200 q 582 322 582 271 q 547 397 582 371 q 456 422 511 422 q 344 378 382 422 l 76 378 l 147 933 l 767 933 l 767 689 l 367 689 l 358 600 q 415 615 379 610 q 475 622 450 621 l 500 622 z "},"6":{"ha":911,"x_min":56,"x_max":856,"o":"m 528 667 q 769 573 683 667 q 856 356 856 479 q 745 81 856 185 q 456 -22 635 -22 q 162 78 268 -22 q 56 364 56 179 q 59 426 56 394 q 82 522 63 458 q 135 647 101 586 q 235 785 168 707 q 393 933 301 864 l 789 933 q 765 922 781 929 q 703 888 749 914 q 617 831 658 861 q 526 752 576 800 q 438 653 475 704 q 528 667 467 667 m 361 255 q 381 239 361 255 q 456 222 400 222 q 550 255 511 222 q 589 333 589 288 q 550 412 589 379 q 456 444 511 444 q 361 412 400 444 q 322 333 322 379 q 361 255 322 288 z "},"7":{"ha":867,"x_min":56,"x_max":878,"o":"m 56 933 l 878 933 l 456 0 l 144 0 l 478 689 l 56 689 l 56 933 z "},"8":{"ha":911,"x_min":56,"x_max":856,"o":"m 736 493 q 823 412 790 467 q 856 289 856 357 q 749 67 856 156 q 456 -22 643 -22 q 162 67 268 -22 q 56 289 56 156 q 88 412 56 357 q 175 493 121 467 q 75 667 75 553 q 183 873 75 790 q 456 956 290 956 q 729 872 622 956 q 836 667 836 789 q 736 493 836 553 m 542 708 q 524 720 542 708 q 456 733 506 733 q 369 708 406 733 q 333 644 333 682 q 369 581 333 607 q 456 556 406 556 q 542 581 506 556 q 578 644 578 607 q 542 708 578 682 m 361 229 q 381 215 361 229 q 456 200 400 200 q 550 229 511 200 q 589 300 589 258 q 550 371 589 342 q 456 400 511 400 q 361 371 400 400 q 322 300 322 342 q 361 229 322 258 z "},"9":{"ha":911,"x_min":56,"x_max":856,"o":"m 383 267 q 142 360 228 267 q 56 578 56 454 q 166 852 56 749 q 456 956 276 956 q 749 855 643 956 q 856 569 856 754 q 852 507 856 539 q 829 411 849 475 q 776 287 810 347 q 676 148 743 226 q 518 0 610 69 l 122 0 q 147 12 131 4 q 208 46 163 19 q 294 103 253 72 q 385 181 335 133 q 474 281 436 229 q 383 267 444 267 m 550 678 q 531 695 550 678 q 456 711 511 711 q 361 678 400 711 q 322 600 322 646 q 361 522 322 554 q 456 489 400 489 q 550 522 511 489 q 589 600 589 554 q 550 678 589 646 z "}," ":{"ha":400,"x_min":0,"x_max":0,"o":""},"!":{"ha":422,"x_min":78,"x_max":344,"o":"m 122 311 l 78 933 l 344 933 l 300 311 l 122 311 m 306 17 q 286 -3 306 17 q 211 -22 267 -22 q 117 17 156 -22 q 78 111 78 56 q 117 206 78 167 q 211 244 156 244 q 306 206 267 244 q 344 111 344 167 q 306 17 344 56 z "},"\"":{"ha":622,"x_min":56,"x_max":567,"o":"m 256 578 l 78 578 l 56 933 l 278 933 l 256 578 m 544 578 l 367 578 l 344 933 l 567 933 l 544 578 z "},"#":{"ha":1000,"x_min":56,"x_max":944,"o":"m 944 544 l 768 544 l 743 389 l 878 389 l 878 233 l 717 233 l 678 0 l 500 0 l 539 233 l 383 233 l 344 0 l 167 0 l 206 233 l 56 233 l 56 389 l 232 389 l 257 544 l 122 544 l 122 700 l 283 700 l 322 933 l 500 933 l 461 700 l 617 700 l 656 933 l 833 933 l 794 700 l 944 700 l 944 544 m 410 389 l 565 389 l 590 544 l 435 544 l 410 389 z "},"$":{"ha":889,"x_min":33,"x_max":856,"o":"m 856 304 q 767 83 856 171 q 500 -19 679 -6 l 500 -111 l 411 -111 l 411 -22 q 213 17 307 -18 q 75 83 118 51 l 33 117 l 132 329 q 269 255 193 282 q 389 225 344 228 l 433 222 q 589 279 589 217 q 555 319 589 307 q 418 347 521 331 q 56 653 56 404 q 147 859 56 775 q 411 954 238 943 l 411 1044 l 500 1044 l 500 954 q 811 844 710 933 l 706 644 q 676 663 696 651 q 587 692 657 674 q 433 711 517 711 q 322 667 322 711 q 347 631 322 643 q 444 610 372 619 q 559 592 511 601 q 667 560 607 582 q 765 507 728 538 q 829 424 803 476 q 856 304 856 372 z "},"%":{"ha":1178,"x_min":56,"x_max":1122,"o":"m 290 489 q 124 557 193 489 q 56 722 56 625 q 124 887 56 818 q 290 956 193 956 q 454 887 386 956 q 522 722 522 818 q 454 557 522 625 q 290 489 386 489 m 342 0 l 186 0 l 836 933 l 992 933 l 342 0 m 235 668 q 247 656 235 668 q 289 644 258 644 q 343 668 319 644 q 367 722 367 692 q 343 776 367 753 q 289 800 319 800 q 235 776 258 800 q 211 722 211 753 q 235 668 211 692 m 890 -22 q 724 46 793 -22 q 656 211 656 114 q 724 376 656 307 q 890 444 793 444 q 1054 376 986 444 q 1122 211 1122 307 q 1054 46 1122 114 q 890 -22 986 -22 m 835 157 q 847 145 835 157 q 889 133 858 133 q 943 157 919 133 q 967 211 967 181 q 943 265 967 242 q 889 289 919 289 q 835 265 858 289 q 811 211 811 242 q 835 157 811 181 z "},"&":{"ha":1156,"x_min":56,"x_max":1100,"o":"m 1100 444 l 864 214 l 1099 0 l 767 0 l 699 64 q 422 -22 564 -22 q 162 60 268 -22 q 56 289 56 143 q 104 431 56 372 q 218 514 153 490 q 122 710 118 599 q 227 881 125 807 q 478 956 329 956 q 733 883 633 956 q 833 697 833 811 q 817 606 833 646 q 766 540 800 567 q 700 495 732 513 q 621 457 668 478 q 604 450 610 453 l 713 351 l 811 444 l 1100 444 m 460 581 q 547 631 522 606 q 567 693 572 656 q 538 738 563 721 q 474 756 513 756 q 409 737 432 756 q 386 689 386 718 q 460 581 386 646 m 442 178 q 544 208 500 178 l 367 375 q 322 283 322 349 q 356 210 322 242 q 442 178 390 178 z "},"'":{"ha":333,"x_min":56,"x_max":278,"o":"m 256 578 l 78 578 l 56 933 l 278 933 l 256 578 z "},"(":{"ha":511,"x_min":56,"x_max":478,"o":"m 478 1000 q 300 422 300 731 q 478 -156 300 114 l 233 -222 q 56 422 56 100 q 233 1067 56 744 l 478 1000 z "},")":{"ha":511,"x_min":33,"x_max":456,"o":"m 33 1000 l 278 1067 q 456 422 456 744 q 278 -222 456 100 l 33 -156 q 211 422 211 114 q 33 1000 211 731 z "},"*":{"ha":578,"x_min":56,"x_max":522,"o":"m 351 840 l 475 894 l 522 760 l 392 724 l 475 621 l 365 539 l 289 647 l 214 539 l 104 621 l 188 724 l 56 760 l 103 894 l 228 840 l 222 978 l 358 978 l 351 840 z "},"+":{"ha":711,"x_min":56,"x_max":656,"o":"m 656 500 l 656 344 l 433 344 l 433 122 l 278 122 l 278 344 l 56 344 l 56 500 l 278 500 l 278 722 l 433 722 l 433 500 l 656 500 z "},",":{"ha":444,"x_min":33,"x_max":389,"o":"m 33 -178 l 122 222 l 389 222 l 211 -178 l 33 -178 z "},"-":{"ha":556,"x_min":56,"x_max":500,"o":"m 500 278 l 56 278 l 56 456 l 500 456 l 500 278 z "},".":{"ha":378,"x_min":56,"x_max":322,"o":"m 283 17 q 264 -3 283 17 q 189 -22 244 -22 q 94 17 133 -22 q 56 111 56 56 q 94 206 56 167 q 189 244 133 244 q 283 206 244 244 q 322 111 322 167 q 283 17 322 56 z "},"/":{"ha":733,"x_min":56,"x_max":678,"o":"m 233 -111 l 56 -111 l 500 1044 l 678 1044 l 233 -111 z "},":":{"ha":378,"x_min":56,"x_max":322,"o":"m 283 506 q 264 486 283 506 q 189 467 244 467 q 94 506 133 467 q 56 600 56 544 q 94 694 56 656 q 189 733 133 733 q 283 694 244 733 q 322 600 322 656 q 283 506 322 544 m 283 17 q 264 -3 283 17 q 189 -22 244 -22 q 94 17 133 -22 q 56 111 56 56 q 94 206 56 167 q 189 244 133 244 q 283 206 244 244 q 322 111 322 167 q 283 17 322 56 z "},";":{"ha":444,"x_min":33,"x_max":389,"o":"m 350 506 q 331 486 350 506 q 256 467 311 467 q 161 506 200 467 q 122 600 122 544 q 161 694 122 656 q 256 733 200 733 q 350 694 311 733 q 389 600 389 656 q 350 506 389 544 m 33 -178 l 122 222 l 389 222 l 211 -178 l 33 -178 z "},"<":{"ha":756,"x_min":56,"x_max":700,"o":"m 700 44 l 56 356 l 56 489 l 700 800 l 700 622 l 256 422 l 700 222 l 700 44 z "},"=":{"ha":711,"x_min":56,"x_max":656,"o":"m 56 622 l 656 622 l 656 467 l 56 467 l 56 622 m 56 378 l 656 378 l 656 222 l 56 222 l 56 378 z "},">":{"ha":756,"x_min":56,"x_max":700,"o":"m 56 44 l 56 222 l 500 422 l 56 622 l 56 800 l 700 489 l 700 356 l 56 44 z "},"?":{"ha":789,"x_min":56,"x_max":733,"o":"m 389 956 q 652 880 571 956 q 733 689 733 804 q 704 578 733 621 q 600 467 675 535 q 555 423 572 442 q 519 367 538 404 q 500 289 500 329 l 278 289 q 350 500 278 425 q 392 540 365 515 q 428 576 418 565 q 447 602 438 586 q 456 633 456 618 q 332 718 456 718 q 151 650 218 718 l 56 844 q 389 956 185 956 m 294 206 q 314 225 294 206 q 389 244 333 244 q 483 206 444 244 q 522 111 522 167 q 483 17 522 56 q 389 -22 444 -22 q 294 17 333 -22 q 256 111 256 56 q 294 206 256 167 z "},"@":{"ha":1478,"x_min":56,"x_max":1422,"o":"m 1422 458 q 1330 196 1422 303 q 1107 89 1238 89 q 949 123 1013 89 q 861 213 885 157 q 777 140 829 168 q 663 111 725 111 q 462 203 533 111 q 400 414 390 296 q 492 627 411 543 q 699 711 572 711 q 800 685 754 711 q 867 625 846 658 l 872 689 l 1056 689 l 1024 361 q 1111 260 1014 261 q 1145 267 1126 260 q 1188 292 1164 274 q 1228 351 1213 310 q 1244 453 1244 393 q 1095 777 1244 643 q 744 911 946 911 q 383 761 533 911 q 233 400 233 611 q 383 39 233 189 q 744 -111 533 -111 q 944 -71 846 -111 l 996 -242 q 744 -289 875 -289 q 399 -197 557 -289 q 148 54 240 -104 q 56 400 56 213 q 148 746 56 588 q 399 997 240 904 q 744 1089 557 1089 q 1076 1004 919 1089 q 1327 773 1232 919 q 1422 458 1422 626 m 844 411 q 810 509 849 463 q 721 556 772 556 q 624 518 665 556 q 578 414 583 481 q 610 303 571 340 q 713 267 649 267 q 802 306 765 267 q 844 411 839 344 z "},"A":{"ha":1000,"x_min":-11,"x_max":1011,"o":"m 625 933 l 1011 0 l 740 0 l 681 156 l 319 156 l 260 0 l -11 0 l 375 933 l 625 933 m 397 356 l 603 356 l 500 622 l 397 356 z "},"B":{"ha":911,"x_min":78,"x_max":878,"o":"m 721 501 q 840 422 803 483 q 878 281 878 360 q 792 78 878 157 q 558 0 706 0 l 78 0 l 78 933 l 478 933 q 738 870 642 933 q 833 689 833 807 q 802 570 833 621 q 721 501 771 519 m 344 733 l 344 578 l 456 578 q 567 656 567 578 q 456 733 567 733 l 344 733 m 478 200 q 611 289 611 200 q 478 378 611 378 l 344 378 l 344 200 l 478 200 z "},"C":{"ha":911,"x_min":33,"x_max":878,"o":"m 565 222 q 776 317 693 222 l 878 90 q 730 8 817 38 q 558 -22 643 -22 q 188 122 342 -22 q 33 467 33 265 q 188 812 33 668 q 558 956 342 956 q 730 926 643 956 q 878 844 817 897 l 776 617 q 565 711 693 711 q 378 640 456 711 q 300 467 300 568 q 378 294 300 365 q 565 222 456 222 z "},"D":{"ha":978,"x_min":78,"x_max":944,"o":"m 454 933 q 815 801 686 933 q 944 467 944 669 q 813 133 944 265 q 454 0 682 0 l 78 0 l 78 933 l 454 933 m 478 244 q 614 311 550 244 q 678 467 678 378 q 614 622 678 556 q 478 689 550 689 l 344 689 l 344 244 l 478 244 z "},"E":{"ha":756,"x_min":78,"x_max":700,"o":"m 700 689 l 344 689 l 344 578 l 633 578 l 633 356 l 344 356 l 344 244 l 700 244 l 700 0 l 78 0 l 78 933 l 700 933 l 700 689 z "},"F":{"ha":733,"x_min":78,"x_max":700,"o":"m 344 0 l 78 0 l 78 933 l 700 933 l 700 689 l 344 689 l 344 578 l 633 578 l 633 356 l 344 356 l 344 0 z "},"G":{"ha":1044,"x_min":33,"x_max":1011,"o":"m 1003 556 q 1011 467 1011 510 q 875 120 1011 263 q 533 -22 739 -22 q 180 121 326 -22 q 33 467 33 264 q 180 813 33 669 q 533 956 326 956 q 789 884 678 956 q 965 689 900 813 l 714 621 q 533 711 644 711 q 368 640 436 711 q 300 467 300 568 q 368 294 300 365 q 533 222 436 222 q 655 258 601 222 q 736 356 708 294 l 478 356 l 478 556 l 1003 556 z "},"H":{"ha":1000,"x_min":78,"x_max":922,"o":"m 656 933 l 922 933 l 922 0 l 656 0 l 656 344 l 344 344 l 344 0 l 78 0 l 78 933 l 344 933 l 344 589 l 656 589 l 656 933 z "},"I":{"ha":422,"x_min":78,"x_max":344,"o":"m 344 0 l 78 0 l 78 933 l 344 933 l 344 0 z "},"J":{"ha":711,"x_min":33,"x_max":656,"o":"m 389 933 l 656 933 l 656 356 q 551 74 656 169 q 261 -22 446 -22 q 133 3 197 -22 q 33 67 68 28 l 149 276 q 256 222 188 222 q 351 256 314 222 q 389 356 389 290 l 389 933 z "},"K":{"ha":978,"x_min":78,"x_max":967,"o":"m 589 489 l 967 0 l 633 0 l 344 400 l 344 0 l 78 0 l 78 933 l 344 933 l 344 578 l 611 933 l 944 933 l 589 489 z "},"L":{"ha":733,"x_min":78,"x_max":700,"o":"m 344 244 l 700 244 l 700 0 l 78 0 l 78 933 l 344 933 l 344 244 z "},"M":{"ha":1222,"x_min":33,"x_max":1189,"o":"m 1100 933 l 1189 0 l 922 0 l 878 489 l 722 0 l 500 0 l 344 489 l 300 0 l 33 0 l 122 933 l 389 933 l 611 378 l 833 933 l 1100 933 z "},"N":{"ha":1044,"x_min":78,"x_max":967,"o":"m 700 933 l 967 933 l 967 0 l 700 0 l 344 511 l 344 0 l 78 0 l 78 933 l 344 933 l 700 422 l 700 933 z "},"O":{"ha":1089,"x_min":33,"x_max":1056,"o":"m 183 813 q 258 884 183 813 q 544 956 333 956 q 906 813 756 956 q 1056 467 1056 669 q 906 121 1056 264 q 544 -22 756 -22 q 183 121 333 -22 q 33 467 33 264 q 183 813 33 669 m 372 294 q 407 258 372 294 q 544 222 443 222 q 717 294 646 222 q 789 467 789 365 q 717 640 789 568 q 544 711 646 711 q 372 640 443 711 q 300 467 300 568 q 372 294 300 365 z "},"P":{"ha":889,"x_min":78,"x_max":856,"o":"m 500 933 q 766 849 676 933 q 856 622 856 764 q 772 385 856 481 q 544 289 688 289 l 344 289 l 344 0 l 78 0 l 78 933 l 500 933 m 475 511 q 557 536 525 511 q 589 611 589 561 q 557 685 589 660 q 475 711 525 711 l 344 711 l 344 511 l 475 511 z "},"Q":{"ha":1089,"x_min":33,"x_max":1078,"o":"m 935 151 l 1078 0 l 811 0 l 785 35 q 544 -22 671 -22 q 183 121 333 -22 q 33 467 33 264 q 183 813 33 669 q 544 956 333 956 q 906 813 756 956 q 1056 467 1056 669 q 935 151 1056 288 m 756 343 q 789 467 789 401 q 717 640 789 568 q 544 711 646 711 q 372 640 443 711 q 300 467 300 568 q 372 294 300 365 q 544 222 443 222 q 629 238 588 222 l 522 378 l 722 378 l 756 343 z "},"R":{"ha":933,"x_min":78,"x_max":900,"o":"m 671 314 l 900 0 l 589 0 l 396 289 l 344 289 l 344 0 l 78 0 l 78 933 l 500 933 q 766 849 676 933 q 856 622 856 764 q 807 434 856 517 q 671 314 758 351 m 475 511 q 557 536 525 511 q 589 611 589 561 q 557 685 589 660 q 475 711 525 711 l 344 711 l 344 511 l 475 511 z "},"S":{"ha":889,"x_min":33,"x_max":856,"o":"m 444 610 q 559 592 511 601 q 667 560 607 582 q 765 507 728 538 q 829 424 803 476 q 856 304 856 372 q 751 68 856 158 q 433 -22 647 -22 q 297 -8 364 -22 q 185 27 231 7 q 103 67 139 47 q 50 103 68 88 l 33 117 l 132 329 q 269 255 193 282 q 389 225 344 228 l 433 222 q 589 279 589 217 q 555 319 589 307 q 418 347 521 331 q 56 653 56 404 q 158 870 56 785 q 458 956 261 956 q 524 953 483 956 q 660 922 565 950 q 811 844 756 894 l 706 644 q 676 663 696 651 q 587 692 657 674 q 433 711 517 711 q 322 667 322 711 q 347 631 322 643 q 444 610 372 619 z "},"T":{"ha":822,"x_min":33,"x_max":789,"o":"m 33 933 l 789 933 l 789 689 l 544 689 l 544 0 l 278 0 l 278 689 l 33 689 l 33 933 z "},"U":{"ha":1000,"x_min":56,"x_max":944,"o":"m 656 933 l 944 933 l 944 400 q 825 95 944 213 q 500 -22 706 -22 q 175 95 294 -22 q 56 400 56 213 l 56 933 l 344 933 l 344 397 q 390 268 344 314 q 500 222 436 222 q 610 268 564 222 q 656 397 656 314 l 656 933 z "},"V":{"ha":1000,"x_min":-11,"x_max":1011,"o":"m 367 0 l -11 933 l 300 933 l 500 375 l 700 933 l 1011 933 l 633 0 l 367 0 z "},"W":{"ha":1422,"x_min":0,"x_max":1422,"o":"m 833 933 l 967 378 l 1122 933 l 1422 933 l 1111 0 l 833 0 l 711 444 l 589 0 l 311 0 l 0 933 l 300 933 l 456 378 l 589 933 l 833 933 z "},"X":{"ha":1022,"x_min":11,"x_max":1011,"o":"m 694 489 l 1011 0 l 697 0 l 511 294 l 325 0 l 11 0 l 328 489 l 35 933 l 349 933 l 511 672 l 674 933 l 988 933 l 694 489 z "},"Y":{"ha":956,"x_min":-11,"x_max":967,"o":"m 656 933 l 967 933 l 611 378 l 611 0 l 344 0 l 344 378 l -11 933 l 300 933 l 478 644 l 656 933 z "},"Z":{"ha":889,"x_min":33,"x_max":856,"o":"m 833 0 l 33 0 l 422 689 l 56 689 l 56 933 l 856 933 l 467 244 l 833 244 l 833 0 z "},"[":{"ha":511,"x_min":78,"x_max":433,"o":"m 322 933 l 322 -67 l 433 -67 l 433 -289 l 78 -289 l 78 1156 l 433 1156 l 433 933 l 322 933 z "},"\\":{"ha":733,"x_min":56,"x_max":678,"o":"m 500 -111 l 56 1044 l 233 1044 l 678 -111 l 500 -111 z "},"]":{"ha":511,"x_min":78,"x_max":433,"o":"m 189 933 l 78 933 l 78 1156 l 433 1156 l 433 -289 l 78 -289 l 78 -67 l 189 -67 l 189 933 z "},"^":{"ha":778,"x_min":56,"x_max":722,"o":"m 56 600 l 300 978 l 478 978 l 722 600 l 544 600 l 389 844 l 233 600 l 56 600 z "},"_":{"ha":800,"x_min":33,"x_max":767,"o":"m 767 -222 l 33 -222 l 33 -44 l 767 -44 l 767 -222 z "},"`":{"ha":1089,"x_min":300,"x_max":700,"o":"m 700 1022 l 522 1022 l 300 1244 l 567 1244 l 700 1022 z "},"a":{"ha":911,"x_min":33,"x_max":833,"o":"m 567 711 l 833 711 l 833 0 l 567 0 l 567 72 q 367 -22 488 -22 q 131 88 228 -22 q 33 356 33 199 q 131 623 33 513 q 367 733 228 733 q 567 639 488 733 l 567 711 m 339 246 q 358 223 339 246 q 433 200 378 200 q 528 246 489 200 q 567 356 567 292 q 528 465 567 419 q 433 511 489 511 q 339 465 378 511 q 300 356 300 419 q 339 246 300 292 z "},"b":{"ha":911,"x_min":78,"x_max":878,"o":"m 544 733 q 781 623 683 733 q 878 356 878 513 q 781 88 878 199 q 544 -22 683 -22 q 344 72 424 -22 l 344 0 l 78 0 l 78 978 l 344 978 l 344 639 q 544 733 424 733 m 383 246 q 403 223 383 246 q 478 200 422 200 q 572 246 533 200 q 611 356 611 292 q 572 465 611 419 q 478 511 533 511 q 383 465 422 511 q 344 356 344 419 q 383 246 344 292 z "},"c":{"ha":733,"x_min":33,"x_max":700,"o":"m 597 267 l 700 65 q 429 -22 613 -22 q 140 86 247 -22 q 33 356 33 194 q 141 625 33 517 q 429 733 249 733 q 700 646 608 733 l 597 444 q 456 511 543 511 q 346 465 392 511 q 300 356 300 419 q 346 246 300 292 q 456 200 392 200 q 597 267 544 200 z "},"d":{"ha":911,"x_min":33,"x_max":833,"o":"m 567 978 l 833 978 l 833 0 l 567 0 l 567 72 q 367 -22 488 -22 q 131 88 228 -22 q 33 356 33 199 q 131 623 33 513 q 367 733 228 733 q 567 639 488 733 l 567 978 m 339 246 q 358 223 339 246 q 433 200 378 200 q 528 246 489 200 q 567 356 567 292 q 528 465 567 419 q 433 511 489 511 q 339 465 378 511 q 300 356 300 419 q 339 246 300 292 z "},"e":{"ha":800,"x_min":33,"x_max":767,"o":"m 767 356 q 761 289 767 333 l 308 289 q 361 224 317 247 q 469 200 406 200 q 565 211 519 200 q 632 233 611 222 l 653 244 l 721 44 q 688 26 710 38 q 594 -3 667 15 q 444 -22 522 -22 q 137 84 240 -22 q 33 356 33 190 q 131 627 33 521 q 411 733 228 733 q 674 634 582 733 q 767 356 767 535 m 308 422 l 494 422 q 470 501 494 469 q 400 533 446 533 q 334 500 360 533 q 308 422 308 467 z "},"f":{"ha":600,"x_min":33,"x_max":544,"o":"m 33 711 l 122 711 q 178 922 124 844 q 367 1000 232 1000 q 544 978 474 1000 l 544 778 q 420 781 451 794 q 389 711 389 768 l 544 711 l 544 489 l 389 489 l 389 0 l 122 0 l 122 489 l 33 489 l 33 711 z "},"g":{"ha":911,"x_min":33,"x_max":833,"o":"m 567 711 l 833 711 l 833 67 q 724 -265 833 -151 q 411 -378 615 -378 q 239 -350 328 -378 q 103 -294 150 -322 l 56 -267 l 144 -67 q 176 -87 156 -75 q 261 -120 197 -100 q 390 -140 325 -140 q 567 44 567 -140 l 567 72 q 367 -22 488 -22 q 131 88 228 -22 q 33 356 33 199 q 131 623 33 513 q 367 733 228 733 q 567 639 488 733 l 567 711 m 339 246 q 358 223 339 246 q 433 200 378 200 q 528 246 489 200 q 567 356 567 292 q 528 465 567 419 q 433 511 489 511 q 339 465 378 511 q 300 356 300 419 q 339 246 300 292 z "},"h":{"ha":867,"x_min":78,"x_max":811,"o":"m 544 733 q 734 652 657 733 q 811 422 811 571 l 811 0 l 544 0 l 544 378 q 515 463 544 436 q 444 489 486 489 q 374 461 404 489 q 344 378 344 433 l 344 0 l 78 0 l 78 978 l 344 978 l 344 622 q 428 705 374 676 q 544 733 482 733 z "},"i":{"ha":422,"x_min":67,"x_max":356,"o":"m 313 820 q 292 799 313 820 q 211 778 271 778 q 109 820 151 778 q 67 922 67 863 q 109 1024 67 982 q 211 1067 151 1067 q 313 1024 271 1067 q 356 922 356 982 q 313 820 356 863 m 78 0 l 78 711 l 344 711 l 344 0 l 78 0 z "},"j":{"ha":422,"x_min":-56,"x_max":356,"o":"m 313 820 q 292 799 313 820 q 211 778 271 778 q 109 820 151 778 q 67 922 67 863 q 109 1024 67 982 q 211 1067 151 1067 q 313 1024 271 1067 q 356 922 356 982 q 313 820 356 863 m 78 0 l 78 711 l 344 711 l 344 22 q 256 -282 344 -186 q -11 -378 168 -378 l -56 -156 q 38 -117 -1 -156 q 78 0 78 -79 z "},"k":{"ha":844,"x_min":78,"x_max":856,"o":"m 567 372 l 856 0 l 544 0 l 344 289 l 344 0 l 78 0 l 78 978 l 344 978 l 344 444 l 522 711 l 833 711 l 567 372 z "},"l":{"ha":422,"x_min":78,"x_max":344,"o":"m 78 978 l 344 978 l 344 0 l 78 0 l 78 978 z "},"m":{"ha":1289,"x_min":78,"x_max":1233,"o":"m 989 733 q 1166 653 1099 733 q 1233 422 1233 574 l 1233 0 l 967 0 l 967 378 q 889 489 967 489 q 819 461 849 489 q 789 378 789 433 l 789 0 l 522 0 l 522 378 q 444 489 522 489 q 374 461 404 489 q 344 378 344 433 l 344 0 l 78 0 l 78 711 l 344 711 l 344 622 q 428 705 374 676 q 544 733 482 733 q 742 624 678 733 q 989 733 831 733 z "},"n":{"ha":867,"x_min":78,"x_max":811,"o":"m 544 733 q 734 652 657 733 q 811 422 811 571 l 811 0 l 544 0 l 544 378 q 515 463 544 436 q 444 489 486 489 q 374 461 404 489 q 344 378 344 433 l 344 0 l 78 0 l 78 711 l 344 711 l 344 622 q 428 705 374 676 q 544 733 482 733 z "},"o":{"ha":867,"x_min":33,"x_max":833,"o":"m 433 733 q 721 624 608 733 q 833 356 833 514 q 721 87 833 196 q 433 -22 608 -22 q 142 86 251 -22 q 33 356 33 194 q 142 625 33 517 q 433 733 250 733 m 339 246 q 358 223 339 246 q 433 200 378 200 q 528 246 489 200 q 567 356 567 292 q 528 465 567 419 q 433 511 489 511 q 339 465 378 511 q 300 356 300 419 q 339 246 300 292 z "},"p":{"ha":911,"x_min":78,"x_max":878,"o":"m 544 733 q 781 623 683 733 q 878 356 878 513 q 781 88 878 199 q 544 -22 683 -22 q 344 72 424 -22 l 344 -356 l 78 -356 l 78 711 l 344 711 l 344 639 q 544 733 424 733 m 383 246 q 403 223 383 246 q 478 200 422 200 q 572 246 533 200 q 611 356 611 292 q 572 465 611 419 q 478 511 533 511 q 383 465 422 511 q 344 356 344 419 q 383 246 344 292 z "},"q":{"ha":911,"x_min":33,"x_max":833,"o":"m 367 733 q 567 639 488 733 l 567 711 l 833 711 l 833 -356 l 567 -356 l 567 72 q 367 -22 488 -22 q 131 88 228 -22 q 33 356 33 199 q 131 623 33 513 q 367 733 228 733 m 339 246 q 358 223 339 246 q 433 200 378 200 q 528 246 489 200 q 567 356 567 292 q 528 465 567 419 q 433 511 489 511 q 339 465 378 511 q 300 356 300 419 q 339 246 300 292 z "},"r":{"ha":644,"x_min":78,"x_max":611,"o":"m 344 565 q 611 733 411 719 l 611 432 q 500 461 561 463 q 394 411 443 457 q 344 290 344 365 l 344 0 l 78 0 l 78 711 l 344 711 l 344 565 z "},"s":{"ha":778,"x_min":33,"x_max":744,"o":"m 415 472 q 551 450 499 463 q 651 412 603 438 q 722 342 700 386 q 744 231 744 297 q 656 46 744 114 q 379 -22 567 -22 q 194 3 281 -22 q 71 53 108 28 l 33 78 l 100 267 q 203 217 143 238 q 303 192 264 197 l 340 186 q 478 206 478 171 q 458 228 478 221 q 351 247 438 235 q 56 467 56 289 q 149 660 56 586 q 428 733 243 733 q 700 674 589 732 l 633 483 q 411 531 553 528 q 322 507 322 532 q 372 478 322 485 q 408 474 383 476 l 410 472 l 411 472 l 413 472 l 414 472 l 415 472 z "},"t":{"ha":578,"x_min":33,"x_max":522,"o":"m 522 489 l 389 489 l 389 311 q 413 208 389 232 q 522 200 438 185 l 522 0 q 344 -22 450 -22 q 174 37 224 -22 q 122 218 124 96 l 122 489 l 33 489 l 33 711 l 122 711 l 122 933 l 389 933 l 389 711 l 522 711 l 522 489 z "},"u":{"ha":867,"x_min":56,"x_max":789,"o":"m 322 -22 q 133 59 210 -22 q 56 289 56 140 l 56 711 l 322 711 l 322 333 q 351 249 322 275 q 422 222 381 222 q 492 250 463 222 q 522 333 522 278 l 522 711 l 789 711 l 789 0 l 522 0 l 522 89 q 439 6 493 35 q 322 -22 385 -22 z "},"v":{"ha":778,"x_min":-11,"x_max":789,"o":"m 278 0 l -11 711 l 256 711 l 389 333 l 515 711 l 789 711 l 500 0 l 278 0 z "},"w":{"ha":1156,"x_min":0,"x_max":1156,"o":"m 889 711 l 1156 711 l 911 0 l 689 0 l 578 344 l 467 0 l 244 0 l 0 711 l 267 711 l 361 344 l 472 711 l 683 711 l 794 344 l 889 711 z "},"x":{"ha":844,"x_min":11,"x_max":833,"o":"m 589 378 l 833 0 l 556 0 l 422 200 l 289 0 l 11 0 l 256 378 l 33 711 l 311 711 l 422 533 l 533 711 l 811 711 l 589 378 z "},"y":{"ha":778,"x_min":-11,"x_max":789,"o":"m 367 -356 l 100 -356 l 256 22 l -11 711 l 256 711 l 389 333 l 522 711 l 789 711 l 367 -356 z "},"z":{"ha":778,"x_min":33,"x_max":744,"o":"m 722 0 l 33 0 l 344 489 l 56 489 l 56 711 l 744 711 l 433 222 l 722 222 l 722 0 z "},"{":{"ha":600,"x_min":56,"x_max":544,"o":"m 433 -31 q 461 -125 433 -85 q 544 -178 489 -165 l 389 -311 q 189 -58 189 -237 l 189 267 q 145 366 189 322 q 56 422 101 410 q 145 478 101 435 q 189 578 189 522 l 189 903 q 389 1156 189 1082 l 544 1022 q 461 969 489 1010 q 433 875 433 929 l 433 625 q 329 422 433 467 q 433 219 433 378 l 433 -31 z "},"|":{"ha":311,"x_min":78,"x_max":233,"o":"m 233 -356 l 78 -356 l 78 1067 l 233 1067 l 233 -356 z "},"}":{"ha":600,"x_min":56,"x_max":544,"o":"m 167 -31 l 167 219 q 271 422 167 378 q 167 625 167 467 l 167 875 q 139 969 167 929 q 56 1022 111 1010 l 211 1156 q 411 903 411 1082 l 411 578 q 455 478 411 522 q 544 422 499 435 q 455 366 499 410 q 411 267 411 322 l 411 -58 q 211 -311 411 -237 l 56 -178 q 139 -125 111 -165 q 167 -31 167 -85 z "},"~":{"ha":800,"x_min":56,"x_max":744,"o":"m 621 511 l 744 464 q 535 308 669 308 q 386 349 489 308 q 260 386 288 388 q 179 311 210 386 l 56 353 q 265 508 131 508 q 414 467 308 508 q 474 444 456 450 q 520 433 493 438 q 561 435 547 428 q 592 461 575 443 q 621 511 608 479 z "},"¡":{"ha":422,"x_min":78,"x_max":344,"o":"m 117 694 q 136 714 117 694 q 211 733 156 733 q 306 694 267 733 q 344 600 344 656 q 306 506 344 544 q 211 467 267 467 q 117 506 156 467 q 78 600 78 544 q 117 694 78 656 m 122 400 l 300 400 l 344 -222 l 78 -222 l 122 400 z "},"¢":{"ha":733,"x_min":33,"x_max":700,"o":"m 597 267 l 700 65 q 478 -21 626 -8 l 478 -111 l 389 -111 l 389 -21 q 129 97 225 -8 q 33 356 33 203 q 129 613 33 507 q 389 732 225 718 l 389 822 l 478 822 l 478 731 q 700 646 622 721 l 597 444 q 456 511 543 511 q 346 465 392 511 q 300 356 300 419 q 346 246 300 292 q 456 200 392 200 q 597 267 544 200 z "},"£":{"ha":844,"x_min":33,"x_max":811,"o":"m 678 289 l 811 136 q 585 -22 729 -22 q 422 10 503 -22 q 186 0 243 82 l 33 156 q 101 233 50 197 q 161 389 164 278 l 33 389 l 33 544 l 124 544 q 100 689 100 615 q 199 879 100 803 q 456 956 299 956 q 767 844 638 956 l 671 644 q 588 713 640 692 q 497 733 536 733 q 364 635 364 733 q 388 544 364 611 l 544 544 l 544 389 l 406 389 q 396 307 407 349 q 367 246 385 265 q 492 202 431 213 q 605 213 553 192 q 678 289 657 233 z "},"¤":{"ha":708,"x_min":56,"x_max":653,"o":"m 586 444 q 553 324 586 382 l 653 225 l 576 146 l 475 244 q 354 211 419 211 q 231 244 285 211 l 132 146 l 56 224 l 153 324 q 119 444 119 378 q 153 565 119 514 l 56 667 l 135 743 l 235 639 q 354 678 303 678 q 475 639 411 678 l 574 743 l 653 667 l 553 565 q 586 444 586 511 m 299 390 q 310 378 299 390 q 353 367 322 367 q 407 390 383 367 q 431 444 431 414 q 407 499 431 475 q 353 522 383 522 q 299 499 322 522 q 275 444 275 475 q 299 390 275 414 z "},"¥":{"ha":1044,"x_min":33,"x_max":1011,"o":"m 1011 933 l 663 389 l 767 389 l 767 300 l 656 300 l 656 233 l 767 233 l 767 144 l 656 144 l 656 0 l 389 0 l 389 144 l 278 144 l 278 233 l 389 233 l 389 300 l 278 300 l 278 389 l 382 389 l 33 933 l 344 933 l 522 644 l 700 933 l 1011 933 z "},"¦":{"ha":311,"x_min":78,"x_max":233,"o":"m 233 578 l 78 578 l 78 1067 l 233 1067 l 233 578 m 233 -356 l 78 -356 l 78 133 l 233 133 l 233 -356 z "},"§":{"ha":933,"x_min":56,"x_max":878,"o":"m 878 438 q 818 254 878 324 q 878 82 878 188 q 774 -154 878 -64 q 456 -244 669 -244 q 319 -230 386 -244 q 207 -195 253 -215 q 126 -155 161 -175 q 72 -119 90 -135 l 56 -106 l 154 107 q 291 33 215 60 q 411 3 367 6 l 456 0 q 611 57 611 -6 q 577 97 611 85 q 440 125 543 108 q 78 431 78 182 q 142 610 78 536 q 78 786 78 679 q 181 1003 78 918 q 481 1089 283 1089 q 547 1086 506 1089 q 683 1056 588 1083 q 833 978 778 1028 l 728 778 q 699 796 718 785 q 609 826 679 807 q 456 844 539 844 q 344 800 344 844 q 369 765 344 776 q 467 743 394 753 q 581 725 533 735 q 690 693 629 715 q 788 640 750 671 q 851 558 825 610 q 878 438 878 506 m 467 388 q 578 369 529 381 q 611 413 611 385 q 607 430 611 422 q 592 444 603 438 q 572 454 582 450 q 541 463 561 458 q 506 469 521 467 q 465 477 492 472 q 419 486 438 482 q 364 481 383 493 q 344 444 344 469 q 369 409 344 421 q 467 388 394 397 z "},"¨":{"ha":1089,"x_min":278,"x_max":811,"o":"m 467 1055 q 451 1039 467 1055 q 389 1022 435 1022 q 310 1055 343 1022 q 278 1133 278 1088 q 310 1212 278 1179 q 389 1244 343 1244 q 467 1212 435 1244 q 500 1133 500 1179 q 467 1055 500 1088 m 778 1055 q 762 1039 778 1055 q 700 1022 746 1022 q 622 1055 654 1022 q 589 1133 589 1088 q 622 1212 589 1179 q 700 1244 654 1244 q 778 1212 746 1244 q 811 1133 811 1179 q 778 1055 811 1088 z "},"©":{"ha":1044,"x_min":56,"x_max":989,"o":"m 854 279 q 787 212 854 279 q 522 144 719 144 q 190 281 325 144 q 56 611 56 417 q 190 943 56 808 q 522 1078 325 1078 q 854 943 719 1078 q 989 611 989 808 q 854 279 989 414 m 278 367 q 328 317 278 367 q 522 267 378 267 q 767 367 667 267 q 867 611 867 467 q 767 856 867 756 q 522 956 667 956 q 278 856 378 956 q 178 611 178 756 q 278 367 178 467 m 549 503 q 642 544 604 503 l 688 444 q 546 394 629 394 q 381 458 450 394 q 313 611 313 522 q 381 764 313 700 q 546 828 450 828 q 688 779 631 828 l 642 678 q 549 719 604 719 q 465 688 500 719 q 431 611 431 656 q 465 535 431 567 q 549 503 500 503 z "},"ª":{"ha":511,"x_min":56,"x_max":456,"o":"m 322 933 l 456 933 l 456 578 l 322 578 l 322 614 q 222 567 283 567 q 104 622 153 567 q 56 756 56 678 q 104 889 56 833 q 222 944 153 944 q 322 897 283 944 l 322 933 m 208 701 q 218 689 208 701 q 256 678 228 678 q 303 701 283 678 q 322 756 322 724 q 303 810 322 788 q 256 833 283 833 q 208 810 228 833 q 189 756 189 788 q 208 701 189 724 z "},"«":{"ha":933,"x_min":56,"x_max":833,"o":"m 478 711 l 256 378 l 478 44 l 278 44 l 56 378 l 278 711 l 478 711 m 833 711 l 611 378 l 833 44 l 633 44 l 411 378 l 633 711 l 833 711 z "},"¬":{"ha":889,"x_min":56,"x_max":833,"o":"m 833 500 l 833 156 l 678 156 l 678 344 l 56 344 l 56 500 l 833 500 z "},"®":{"ha":1044,"x_min":56,"x_max":989,"o":"m 854 279 q 787 212 854 279 q 522 144 719 144 q 190 281 325 144 q 56 611 56 417 q 190 943 56 808 q 522 1078 325 1078 q 854 943 719 1078 q 989 611 989 808 q 854 279 989 414 m 278 367 q 328 317 278 367 q 522 267 378 267 q 767 367 667 267 q 867 611 867 467 q 767 856 867 756 q 522 956 667 956 q 278 856 378 956 q 178 611 178 756 q 278 367 178 467 m 619 543 l 722 403 l 583 403 l 497 532 l 475 532 l 475 403 l 356 403 l 356 819 l 544 819 q 663 781 622 819 q 703 681 703 743 q 681 597 703 635 q 619 543 658 560 m 533 631 q 583 675 583 631 q 569 709 583 697 q 533 721 556 721 l 475 721 l 475 631 l 533 631 z "},"¯":{"ha":1089,"x_min":322,"x_max":767,"o":"m 767 1044 l 322 1044 l 322 1178 l 767 1178 l 767 1044 z "},"°":{"ha":578,"x_min":56,"x_max":522,"o":"m 290 489 q 124 557 193 489 q 56 722 56 625 q 124 887 56 818 q 290 956 193 956 q 454 887 386 956 q 522 722 522 818 q 454 557 522 625 q 290 489 386 489 m 235 668 q 247 656 235 668 q 289 644 258 644 q 343 668 319 644 q 367 722 367 692 q 343 776 367 753 q 289 800 319 800 q 235 776 258 800 q 211 722 211 753 q 235 668 211 692 z "},"±":{"ha":711,"x_min":56,"x_max":656,"o":"m 656 667 l 656 511 l 433 511 l 433 289 l 278 289 l 278 511 l 56 511 l 56 667 l 278 667 l 278 889 l 433 889 l 433 667 l 656 667 m 56 189 l 656 189 l 656 33 l 56 33 l 56 189 z "},"²":{"ha":511,"x_min":56,"x_max":456,"o":"m 56 878 q 106 1001 56 947 q 246 1056 157 1056 q 390 1008 336 1056 q 444 885 444 961 q 313 700 444 785 l 456 700 l 456 578 l 56 578 l 256 789 q 310 878 310 846 q 293 918 310 903 q 250 933 276 933 q 205 915 224 933 q 186 867 186 897 l 56 878 z "},"³":{"ha":511,"x_min":56,"x_max":456,"o":"m 389 825 q 456 722 456 792 q 404 615 456 663 q 256 567 353 567 q 112 609 168 567 q 56 733 56 651 l 189 744 q 261 681 189 681 q 302 693 286 681 q 318 725 318 706 q 218 772 318 772 l 218 861 q 228 861 222 861 q 251 863 235 861 q 279 869 267 865 q 301 883 292 874 q 311 906 311 892 q 295 932 311 921 q 256 943 279 943 q 189 883 193 943 l 67 894 q 126 1014 75 972 q 256 1056 176 1056 q 394 1013 343 1056 q 444 911 444 971 q 389 825 444 853 z "},"´":{"ha":1089,"x_min":389,"x_max":789,"o":"m 389 1022 l 522 1244 l 789 1244 l 567 1022 l 389 1022 z "},"¶":{"ha":1022,"x_min":56,"x_max":967,"o":"m 967 756 l 856 756 l 856 -317 l 678 -317 l 678 756 l 500 756 l 500 -317 l 322 -317 l 322 378 q 132 458 208 378 q 56 656 56 539 q 132 853 56 772 q 322 933 208 933 l 967 933 l 967 756 z "},"·":{"ha":378,"x_min":56,"x_max":322,"o":"m 283 372 q 264 353 283 372 q 189 333 244 333 q 94 372 133 333 q 56 467 56 411 q 94 561 56 522 q 189 600 133 600 q 283 561 244 600 q 322 467 322 522 q 283 372 322 411 z "},"¸":{"ha":1089,"x_min":350,"x_max":750,"o":"m 503 0 l 638 0 l 575 -67 q 699 -102 647 -58 q 750 -222 750 -146 q 687 -365 750 -308 q 528 -422 624 -422 q 350 -335 400 -422 l 436 -228 q 528 -300 465 -294 q 601 -278 572 -304 q 631 -222 631 -253 q 609 -165 631 -186 q 554 -144 588 -144 q 476 -171 510 -144 l 417 -89 l 503 0 z "},"¹":{"ha":500,"x_min":122,"x_max":356,"o":"m 122 1011 l 356 1067 l 356 589 l 222 589 l 222 918 l 122 899 l 122 1011 z "},"º":{"ha":511,"x_min":56,"x_max":456,"o":"m 256 944 q 399 890 343 944 q 456 756 456 835 q 399 622 456 676 q 256 567 343 567 q 110 621 165 567 q 56 756 56 675 q 110 890 56 836 q 256 944 164 944 m 208 701 q 218 689 208 701 q 256 678 228 678 q 303 701 283 678 q 322 756 322 724 q 303 810 322 788 q 256 833 283 833 q 208 810 228 833 q 189 756 189 788 q 208 701 189 724 z "},"»":{"ha":933,"x_min":100,"x_max":878,"o":"m 100 711 l 300 711 l 522 378 l 300 44 l 100 44 l 322 378 l 100 711 m 456 711 l 656 711 l 878 378 l 656 44 l 456 44 l 678 378 l 456 711 z "},"¼":{"ha":1283,"x_min":122,"x_max":1228,"o":"m 122 889 l 356 944 l 356 467 l 222 467 l 222 796 l 122 776 l 122 889 m 389 0 l 233 0 l 883 933 l 1039 933 l 389 0 m 1172 189 l 1228 189 l 1228 78 l 1172 78 l 1172 0 l 1039 0 l 1039 78 l 806 78 l 806 178 l 1006 467 l 1172 467 l 1172 189 m 1039 189 l 1039 333 l 950 189 l 1039 189 z "},"½":{"ha":1283,"x_min":122,"x_max":1228,"o":"m 122 889 l 356 944 l 356 467 l 222 467 l 222 796 l 122 776 l 122 889 m 389 0 l 233 0 l 883 933 l 1039 933 l 389 0 m 828 300 q 878 424 828 369 q 1018 478 929 478 q 1163 431 1108 478 q 1217 307 1217 383 q 1085 122 1217 207 l 1228 122 l 1228 0 l 828 0 l 1028 211 q 1082 300 1082 268 q 1065 340 1082 325 q 1022 356 1049 356 q 977 338 996 356 q 958 289 958 319 l 828 300 z "},"¾":{"ha":1294,"x_min":56,"x_max":1239,"o":"m 389 714 q 456 611 456 681 q 404 503 456 551 q 256 456 353 456 q 112 498 168 456 q 56 622 56 540 l 189 633 q 261 569 189 569 q 302 582 286 569 q 318 614 318 594 q 218 661 318 661 l 218 750 q 228 750 222 750 q 251 752 235 750 q 279 758 267 754 q 301 772 292 763 q 311 794 311 781 q 295 821 311 810 q 256 832 279 832 q 189 772 193 832 l 67 783 q 126 903 75 861 q 256 944 176 944 q 394 902 343 944 q 444 800 444 860 q 389 714 444 742 m 400 0 l 244 0 l 894 933 l 1050 933 l 400 0 m 1183 189 l 1239 189 l 1239 78 l 1183 78 l 1183 0 l 1050 0 l 1050 78 l 817 78 l 817 178 l 1017 467 l 1183 467 l 1183 189 m 1050 189 l 1050 333 l 961 189 l 1050 189 z "},"¿":{"ha":789,"x_min":56,"x_max":733,"o":"m 494 506 q 475 486 494 506 q 400 467 456 467 q 306 506 344 467 q 267 600 267 544 q 306 694 267 656 q 400 733 344 733 q 494 694 456 733 q 533 600 533 656 q 494 506 533 544 m 400 -244 q 137 -169 218 -244 q 56 22 56 -93 q 85 133 56 90 q 189 244 114 176 q 234 288 217 269 q 270 344 251 307 q 289 422 289 382 l 511 422 q 439 211 511 286 q 397 171 424 196 q 361 135 371 146 q 342 109 351 125 q 333 78 333 93 q 457 -7 333 -7 q 638 61 571 -7 l 733 -133 q 400 -244 604 -244 z "},"À":{"ha":1000,"x_min":-11,"x_max":1011,"o":"m 633 1022 l 456 1022 l 233 1244 l 500 1244 l 633 1022 m 625 933 l 1011 0 l 740 0 l 681 156 l 319 156 l 260 0 l -11 0 l 375 933 l 625 933 m 397 356 l 603 356 l 500 622 l 397 356 z "},"Á":{"ha":1000,"x_min":-11,"x_max":1011,"o":"m 367 1022 l 500 1244 l 767 1244 l 544 1022 l 367 1022 m 625 933 l 1011 0 l 740 0 l 681 156 l 319 156 l 260 0 l -11 0 l 375 933 l 625 933 m 397 356 l 603 356 l 500 622 l 397 356 z "},"Â":{"ha":1000,"x_min":-11,"x_max":1011,"o":"m 567 1022 l 500 1133 l 433 1022 l 211 1022 l 433 1244 l 567 1244 l 789 1022 l 567 1022 m 625 933 l 1011 0 l 740 0 l 681 156 l 319 156 l 260 0 l -11 0 l 375 933 l 625 933 m 397 356 l 603 356 l 500 622 l 397 356 z "},"Ã":{"ha":1000,"x_min":-11,"x_max":1011,"o":"m 678 1200 l 800 1158 q 622 1022 736 1022 q 500 1050 567 1022 q 392 1080 435 1083 q 322 1022 349 1076 l 200 1064 q 378 1200 264 1200 q 500 1171 429 1200 q 609 1142 567 1139 q 678 1200 651 1146 m 625 933 l 1011 0 l 740 0 l 681 156 l 319 156 l 260 0 l -11 0 l 375 933 l 625 933 m 397 356 l 603 356 l 500 622 l 397 356 z "},"Ä":{"ha":1000,"x_min":-11,"x_max":1011,"o":"m 423 1055 q 407 1039 423 1055 q 344 1022 390 1022 q 266 1055 299 1022 q 233 1133 233 1088 q 266 1212 233 1179 q 344 1244 299 1244 q 423 1212 390 1244 q 456 1133 456 1179 q 423 1055 456 1088 m 734 1055 q 718 1039 734 1055 q 656 1022 701 1022 q 577 1055 610 1022 q 544 1133 544 1088 q 577 1212 544 1179 q 656 1244 610 1244 q 734 1212 701 1244 q 767 1133 767 1179 q 734 1055 767 1088 m 625 933 l 1011 0 l 740 0 l 681 156 l 319 156 l 260 0 l -11 0 l 375 933 l 625 933 m 397 356 l 603 356 l 500 622 l 397 356 z "},"Å":{"ha":1000,"x_min":-11,"x_max":1011,"o":"m 374 1281 q 400 1307 374 1281 q 500 1333 426 1333 q 626 1281 574 1333 q 678 1156 678 1229 q 626 1030 678 1082 q 500 978 574 978 q 374 1030 426 978 q 322 1156 322 1082 q 374 1281 322 1229 m 453 1108 q 463 1099 453 1108 q 500 1089 472 1089 q 547 1108 528 1089 q 567 1156 567 1128 q 547 1203 567 1183 q 500 1222 528 1222 q 453 1203 472 1222 q 433 1156 433 1183 q 453 1108 433 1128 m 625 933 l 1011 0 l 740 0 l 681 156 l 319 156 l 260 0 l -11 0 l 375 933 l 625 933 m 397 356 l 603 356 l 500 622 l 397 356 z "},"Æ":{"ha":1200,"x_min":-11,"x_max":1144,"o":"m 1144 689 l 789 689 l 789 578 l 1078 578 l 1078 356 l 789 356 l 789 244 l 1144 244 l 1144 0 l 522 0 l 522 156 l 324 156 l 260 0 l -11 0 l 397 933 l 1144 933 l 1144 689 m 404 356 l 522 356 l 522 644 l 404 356 z "},"Ç":{"ha":911,"x_min":33,"x_max":878,"o":"m 878 90 q 615 -19 772 -1 l 569 -67 q 693 -102 642 -58 q 744 -222 744 -146 q 681 -365 744 -308 q 522 -422 618 -422 q 344 -335 394 -422 l 431 -228 q 522 -300 460 -294 q 596 -278 567 -304 q 625 -222 625 -253 q 603 -165 625 -186 q 549 -144 582 -144 q 471 -171 504 -144 l 411 -89 l 483 -17 q 163 145 292 8 q 33 467 33 282 q 188 812 33 668 q 558 956 342 956 q 730 926 643 956 q 878 844 817 897 l 776 617 q 565 711 693 711 q 378 640 456 711 q 300 467 300 568 q 378 294 300 365 q 565 222 456 222 q 776 317 693 222 l 878 90 z "},"È":{"ha":756,"x_min":78,"x_max":700,"o":"m 544 1022 l 367 1022 l 144 1244 l 411 1244 l 544 1022 m 700 689 l 344 689 l 344 578 l 633 578 l 633 356 l 344 356 l 344 244 l 700 244 l 700 0 l 78 0 l 78 933 l 700 933 l 700 689 z "},"É":{"ha":756,"x_min":78,"x_max":700,"o":"m 222 1022 l 356 1244 l 622 1244 l 400 1022 l 222 1022 m 700 689 l 344 689 l 344 578 l 633 578 l 633 356 l 344 356 l 344 244 l 700 244 l 700 0 l 78 0 l 78 933 l 700 933 l 700 689 z "},"Ê":{"ha":756,"x_min":78,"x_max":700,"o":"m 444 1022 l 378 1133 l 311 1022 l 89 1022 l 311 1244 l 444 1244 l 667 1022 l 444 1022 m 700 689 l 344 689 l 344 578 l 633 578 l 633 356 l 344 356 l 344 244 l 700 244 l 700 0 l 78 0 l 78 933 l 700 933 l 700 689 z "},"Ë":{"ha":756,"x_min":78,"x_max":700,"o":"m 301 1055 q 284 1039 301 1055 q 222 1022 268 1022 q 144 1055 176 1022 q 111 1133 111 1088 q 144 1212 111 1179 q 222 1244 176 1244 q 301 1212 268 1244 q 333 1133 333 1179 q 301 1055 333 1088 m 612 1055 q 595 1039 612 1055 q 533 1022 579 1022 q 455 1055 488 1022 q 422 1133 422 1088 q 455 1212 422 1179 q 533 1244 488 1244 q 612 1212 579 1244 q 644 1133 644 1179 q 612 1055 644 1088 m 700 689 l 344 689 l 344 578 l 633 578 l 633 356 l 344 356 l 344 244 l 700 244 l 700 0 l 78 0 l 78 933 l 700 933 l 700 689 z "},"Ì":{"ha":422,"x_min":-56,"x_max":344,"o":"m 344 1022 l 167 1022 l -56 1244 l 211 1244 l 344 1022 m 344 0 l 78 0 l 78 933 l 344 933 l 344 0 z "},"Í":{"ha":422,"x_min":78,"x_max":478,"o":"m 78 1022 l 211 1244 l 478 1244 l 256 1022 l 78 1022 m 344 0 l 78 0 l 78 933 l 344 933 l 344 0 z "},"Î":{"ha":422,"x_min":-78,"x_max":500,"o":"m 278 1022 l 211 1133 l 144 1022 l -78 1022 l 144 1244 l 278 1244 l 500 1022 l 278 1022 m 344 0 l 78 0 l 78 933 l 344 933 l 344 0 z "},"Ï":{"ha":422,"x_min":-56,"x_max":478,"o":"m 134 1055 q 118 1039 134 1055 q 56 1022 101 1022 q -23 1055 10 1022 q -56 1133 -56 1088 q -23 1212 -56 1179 q 56 1244 10 1244 q 134 1212 101 1244 q 167 1133 167 1179 q 134 1055 167 1088 m 445 1055 q 429 1039 445 1055 q 367 1022 413 1022 q 288 1055 321 1022 q 256 1133 256 1088 q 288 1212 256 1179 q 367 1244 321 1244 q 445 1212 413 1244 q 478 1133 478 1179 q 445 1055 478 1088 m 344 0 l 78 0 l 78 933 l 344 933 l 344 0 z "},"Ð":{"ha":1000,"x_min":11,"x_max":967,"o":"m 476 933 q 838 801 708 933 q 967 467 967 669 q 835 133 967 265 q 476 0 704 0 l 100 0 l 100 389 l 11 389 l 11 544 l 100 544 l 100 933 l 476 933 m 500 244 q 636 311 572 244 q 700 467 700 378 q 636 622 700 556 q 500 689 572 689 l 367 689 l 367 544 l 456 544 l 456 389 l 367 389 l 367 244 l 500 244 z "},"Ñ":{"ha":1044,"x_min":78,"x_max":967,"o":"m 700 1200 l 822 1158 q 644 1022 758 1022 q 522 1050 589 1022 q 414 1080 457 1083 q 344 1022 371 1076 l 222 1064 q 400 1200 286 1200 q 522 1171 451 1200 q 631 1142 589 1139 q 700 1200 674 1146 m 700 933 l 967 933 l 967 0 l 700 0 l 344 511 l 344 0 l 78 0 l 78 933 l 344 933 l 700 422 l 700 933 z "},"Ò":{"ha":1089,"x_min":33,"x_max":1056,"o":"m 667 1022 l 489 1022 l 267 1244 l 533 1244 l 667 1022 m 183 813 q 258 884 183 813 q 544 956 333 956 q 906 813 756 956 q 1056 467 1056 669 q 906 121 1056 264 q 544 -22 756 -22 q 183 121 333 -22 q 33 467 33 264 q 183 813 33 669 m 372 294 q 407 258 372 294 q 544 222 443 222 q 717 294 646 222 q 789 467 789 365 q 717 640 789 568 q 544 711 646 711 q 372 640 443 711 q 300 467 300 568 q 372 294 300 365 z "},"Ó":{"ha":1089,"x_min":33,"x_max":1056,"o":"m 422 1022 l 556 1244 l 822 1244 l 600 1022 l 422 1022 m 183 813 q 258 884 183 813 q 544 956 333 956 q 906 813 756 956 q 1056 467 1056 669 q 906 121 1056 264 q 544 -22 756 -22 q 183 121 333 -22 q 33 467 33 264 q 183 813 33 669 m 372 294 q 407 258 372 294 q 544 222 443 222 q 717 294 646 222 q 789 467 789 365 q 717 640 789 568 q 544 711 646 711 q 372 640 443 711 q 300 467 300 568 q 372 294 300 365 z "},"Ô":{"ha":1089,"x_min":33,"x_max":1056,"o":"m 611 1022 l 544 1133 l 478 1022 l 256 1022 l 478 1244 l 611 1244 l 833 1022 l 611 1022 m 183 813 q 258 884 183 813 q 544 956 333 956 q 906 813 756 956 q 1056 467 1056 669 q 906 121 1056 264 q 544 -22 756 -22 q 183 121 333 -22 q 33 467 33 264 q 183 813 33 669 m 372 294 q 407 258 372 294 q 544 222 443 222 q 717 294 646 222 q 789 467 789 365 q 717 640 789 568 q 544 711 646 711 q 372 640 443 711 q 300 467 300 568 q 372 294 300 365 z "},"Õ":{"ha":1089,"x_min":33,"x_max":1056,"o":"m 722 1200 l 844 1158 q 667 1022 781 1022 q 544 1050 611 1022 q 436 1080 479 1083 q 367 1022 393 1076 l 244 1064 q 422 1200 308 1200 q 544 1171 474 1200 q 653 1142 611 1139 q 722 1200 696 1146 m 183 813 q 258 884 183 813 q 544 956 333 956 q 906 813 756 956 q 1056 467 1056 669 q 906 121 1056 264 q 544 -22 756 -22 q 183 121 333 -22 q 33 467 33 264 q 183 813 33 669 m 372 294 q 407 258 372 294 q 544 222 443 222 q 717 294 646 222 q 789 467 789 365 q 717 640 789 568 q 544 711 646 711 q 372 640 443 711 q 300 467 300 568 q 372 294 300 365 z "},"Ö":{"ha":1089,"x_min":33,"x_max":1056,"o":"m 467 1055 q 451 1039 467 1055 q 389 1022 435 1022 q 310 1055 343 1022 q 278 1133 278 1088 q 310 1212 278 1179 q 389 1244 343 1244 q 467 1212 435 1244 q 500 1133 500 1179 q 467 1055 500 1088 m 778 1055 q 762 1039 778 1055 q 700 1022 746 1022 q 622 1055 654 1022 q 589 1133 589 1088 q 622 1212 589 1179 q 700 1244 654 1244 q 778 1212 746 1244 q 811 1133 811 1179 q 778 1055 811 1088 m 183 813 q 258 884 183 813 q 544 956 333 956 q 906 813 756 956 q 1056 467 1056 669 q 906 121 1056 264 q 544 -22 756 -22 q 183 121 333 -22 q 33 467 33 264 q 183 813 33 669 m 372 294 q 407 258 372 294 q 544 222 443 222 q 717 294 646 222 q 789 467 789 365 q 717 640 789 568 q 544 711 646 711 q 372 640 443 711 q 300 467 300 568 q 372 294 300 365 z "},"×":{"ha":672,"x_min":56,"x_max":617,"o":"m 507 703 l 617 593 l 446 422 l 617 251 l 507 142 l 336 313 l 165 142 l 56 251 l 226 422 l 56 593 l 165 703 l 336 532 l 507 703 z "},"Ø":{"ha":1089,"x_min":33,"x_max":1056,"o":"m 907 811 q 1056 467 1056 667 q 906 121 1056 264 q 544 -22 756 -22 q 263 60 390 -22 l 211 0 l 78 0 l 182 122 q 33 467 33 267 q 183 813 33 669 q 544 956 333 956 q 826 874 699 956 l 878 933 l 1011 933 l 907 811 m 300 467 q 350 318 300 386 l 661 681 q 544 711 607 711 q 372 640 443 711 q 300 467 300 568 m 544 222 q 717 294 646 222 q 789 467 789 365 q 739 615 789 547 l 428 253 q 544 222 482 222 z "},"Ù":{"ha":1000,"x_min":56,"x_max":944,"o":"m 633 1022 l 456 1022 l 233 1244 l 500 1244 l 633 1022 m 656 933 l 944 933 l 944 400 q 825 95 944 213 q 500 -22 706 -22 q 175 95 294 -22 q 56 400 56 213 l 56 933 l 344 933 l 344 397 q 390 268 344 314 q 500 222 436 222 q 610 268 564 222 q 656 397 656 314 l 656 933 z "},"Ú":{"ha":1000,"x_min":56,"x_max":944,"o":"m 367 1022 l 500 1244 l 767 1244 l 544 1022 l 367 1022 m 656 933 l 944 933 l 944 400 q 825 95 944 213 q 500 -22 706 -22 q 175 95 294 -22 q 56 400 56 213 l 56 933 l 344 933 l 344 397 q 390 268 344 314 q 500 222 436 222 q 610 268 564 222 q 656 397 656 314 l 656 933 z "},"Û":{"ha":1000,"x_min":56,"x_max":944,"o":"m 567 1022 l 500 1133 l 433 1022 l 211 1022 l 433 1244 l 567 1244 l 789 1022 l 567 1022 m 656 933 l 944 933 l 944 400 q 825 95 944 213 q 500 -22 706 -22 q 175 95 294 -22 q 56 400 56 213 l 56 933 l 344 933 l 344 397 q 390 268 344 314 q 500 222 436 222 q 610 268 564 222 q 656 397 656 314 l 656 933 z "},"Ü":{"ha":1000,"x_min":56,"x_max":944,"o":"m 423 1055 q 407 1039 423 1055 q 344 1022 390 1022 q 266 1055 299 1022 q 233 1133 233 1088 q 266 1212 233 1179 q 344 1244 299 1244 q 423 1212 390 1244 q 456 1133 456 1179 q 423 1055 456 1088 m 734 1055 q 718 1039 734 1055 q 656 1022 701 1022 q 577 1055 610 1022 q 544 1133 544 1088 q 577 1212 544 1179 q 656 1244 610 1244 q 734 1212 701 1244 q 767 1133 767 1179 q 734 1055 767 1088 m 656 933 l 944 933 l 944 400 q 825 95 944 213 q 500 -22 706 -22 q 175 95 294 -22 q 56 400 56 213 l 56 933 l 344 933 l 344 397 q 390 268 344 314 q 500 222 436 222 q 610 268 564 222 q 656 397 656 314 l 656 933 z "},"Ý":{"ha":956,"x_min":-11,"x_max":967,"o":"m 344 1022 l 478 1244 l 744 1244 l 522 1022 l 344 1022 m 656 933 l 967 933 l 611 378 l 611 0 l 344 0 l 344 378 l -11 933 l 300 933 l 478 644 l 656 933 z "},"Þ":{"ha":889,"x_min":78,"x_max":856,"o":"m 500 811 q 765 722 675 811 q 856 489 856 632 q 765 256 856 346 q 500 167 675 167 l 344 167 l 344 0 l 78 0 l 78 978 l 344 978 l 344 811 l 500 811 m 475 389 q 557 414 525 389 q 589 489 589 439 q 557 563 589 538 q 475 589 525 589 l 344 589 l 344 389 l 475 389 z "},"ß":{"ha":867,"x_min":56,"x_max":833,"o":"m 656 533 q 784 448 735 522 q 833 296 833 374 q 749 72 833 167 q 522 -22 665 -22 q 367 0 436 -22 l 367 189 q 425 183 396 183 q 489 192 454 183 q 545 231 524 200 q 567 311 567 261 q 521 414 567 383 q 367 444 475 444 l 367 578 q 466 609 432 578 q 500 689 500 640 q 411 800 500 800 q 348 771 374 800 q 322 689 322 742 l 322 0 l 56 0 l 56 689 q 158 919 56 839 q 400 1000 261 1000 q 672 922 576 1000 q 767 715 767 844 q 733 603 767 660 q 656 533 700 547 z "},"à":{"ha":911,"x_min":33,"x_max":833,"o":"m 678 800 l 500 800 l 278 1022 l 544 1022 l 678 800 m 567 711 l 833 711 l 833 0 l 567 0 l 567 72 q 367 -22 488 -22 q 131 88 228 -22 q 33 356 33 199 q 131 623 33 513 q 367 733 228 733 q 567 639 488 733 l 567 711 m 339 246 q 358 223 339 246 q 433 200 378 200 q 528 246 489 200 q 567 356 567 292 q 528 465 567 419 q 433 511 489 511 q 339 465 378 511 q 300 356 300 419 q 339 246 300 292 z "},"á":{"ha":911,"x_min":33,"x_max":833,"o":"m 367 800 l 500 1022 l 767 1022 l 544 800 l 367 800 m 567 711 l 833 711 l 833 0 l 567 0 l 567 72 q 367 -22 488 -22 q 131 88 228 -22 q 33 356 33 199 q 131 623 33 513 q 367 733 228 733 q 567 639 488 733 l 567 711 m 339 246 q 358 223 339 246 q 433 200 378 200 q 528 246 489 200 q 567 356 567 292 q 528 465 567 419 q 433 511 489 511 q 339 465 378 511 q 300 356 300 419 q 339 246 300 292 z "},"â":{"ha":911,"x_min":33,"x_max":833,"o":"m 544 800 l 478 911 l 411 800 l 189 800 l 411 1022 l 544 1022 l 767 800 l 544 800 m 567 711 l 833 711 l 833 0 l 567 0 l 567 72 q 367 -22 488 -22 q 131 88 228 -22 q 33 356 33 199 q 131 623 33 513 q 367 733 228 733 q 567 639 488 733 l 567 711 m 339 246 q 358 223 339 246 q 433 200 378 200 q 528 246 489 200 q 567 356 567 292 q 528 465 567 419 q 433 511 489 511 q 339 465 378 511 q 300 356 300 419 q 339 246 300 292 z "},"ã":{"ha":911,"x_min":33,"x_max":833,"o":"m 644 978 l 767 936 q 589 800 703 800 q 467 828 533 800 q 358 858 401 861 q 289 800 315 854 l 167 842 q 344 978 231 978 q 467 949 396 978 q 576 920 533 917 q 644 978 618 924 m 567 711 l 833 711 l 833 0 l 567 0 l 567 72 q 367 -22 488 -22 q 131 88 228 -22 q 33 356 33 199 q 131 623 33 513 q 367 733 228 733 q 567 639 488 733 l 567 711 m 339 246 q 358 223 339 246 q 433 200 378 200 q 528 246 489 200 q 567 356 567 292 q 528 465 567 419 q 433 511 489 511 q 339 465 378 511 q 300 356 300 419 q 339 246 300 292 z "},"ä":{"ha":911,"x_min":33,"x_max":833,"o":"m 401 833 q 384 816 401 833 q 322 800 368 800 q 244 833 276 800 q 211 911 211 865 q 244 990 211 957 q 322 1022 276 1022 q 401 990 368 1022 q 433 911 433 957 q 401 833 433 865 m 712 833 q 695 816 712 833 q 633 800 679 800 q 555 833 588 800 q 522 911 522 865 q 555 990 522 957 q 633 1022 588 1022 q 712 990 679 1022 q 744 911 744 957 q 712 833 744 865 m 567 711 l 833 711 l 833 0 l 567 0 l 567 72 q 367 -22 488 -22 q 131 88 228 -22 q 33 356 33 199 q 131 623 33 513 q 367 733 228 733 q 567 639 488 733 l 567 711 m 339 246 q 358 223 339 246 q 433 200 378 200 q 528 246 489 200 q 567 356 567 292 q 528 465 567 419 q 433 511 489 511 q 339 465 378 511 q 300 356 300 419 q 339 246 300 292 z "},"å":{"ha":911,"x_min":33,"x_max":833,"o":"m 352 1059 q 378 1085 352 1059 q 478 1111 404 1111 q 603 1059 551 1111 q 656 933 656 1007 q 603 808 656 860 q 478 756 551 756 q 352 808 404 756 q 300 933 300 860 q 352 1059 300 1007 m 431 886 q 440 876 431 886 q 478 867 450 867 q 525 886 506 867 q 544 933 544 906 q 525 981 544 961 q 478 1000 506 1000 q 431 981 450 1000 q 411 933 411 961 q 431 886 411 906 m 567 711 l 833 711 l 833 0 l 567 0 l 567 72 q 367 -22 488 -22 q 131 88 228 -22 q 33 356 33 199 q 131 623 33 513 q 367 733 228 733 q 567 639 488 733 l 567 711 m 339 246 q 358 223 339 246 q 433 200 378 200 q 528 246 489 200 q 567 356 567 292 q 528 465 567 419 q 433 511 489 511 q 339 465 378 511 q 300 356 300 419 q 339 246 300 292 z "},"æ":{"ha":1267,"x_min":33,"x_max":1233,"o":"m 1233 356 q 1228 289 1233 333 l 775 289 q 828 224 783 247 q 936 200 872 200 q 1032 211 986 200 q 1099 233 1078 222 l 1119 244 l 1188 44 q 1155 26 1176 38 q 1061 -3 1133 15 q 911 -22 989 -22 q 749 0 824 -22 l 478 0 l 478 46 q 410 -3 461 15 q 300 -22 360 -22 q 108 49 183 -22 q 33 222 33 119 q 38 258 33 239 q 53 310 42 278 q 94 372 64 342 q 167 422 124 401 q 478 444 300 483 q 442 517 476 494 q 358 538 407 540 q 261 524 310 535 q 178 501 213 514 l 144 489 l 78 644 q 92 654 82 649 q 134 675 101 660 q 205 702 167 690 q 305 724 243 714 q 433 733 367 733 q 653 674 586 733 q 878 733 746 733 q 1141 634 1049 733 q 1233 356 1233 535 m 775 422 l 961 422 q 937 501 961 469 q 867 533 913 533 q 801 500 826 533 q 775 422 775 467 m 478 222 l 478 333 l 456 333 q 339 304 378 333 q 300 231 300 275 q 325 159 300 185 q 393 133 350 133 q 455 158 432 133 q 478 222 478 182 z "},"ç":{"ha":733,"x_min":33,"x_max":700,"o":"m 700 65 q 507 -17 635 0 l 458 -67 q 582 -102 531 -58 q 633 -222 633 -146 q 570 -365 633 -308 q 411 -422 507 -422 q 233 -335 283 -422 l 319 -228 q 411 -300 349 -294 q 485 -278 456 -304 q 514 -222 514 -253 q 492 -165 514 -186 q 438 -144 471 -144 q 360 -171 393 -144 l 300 -89 l 369 -19 q 124 103 214 -1 q 33 356 33 208 q 141 625 33 517 q 429 733 249 733 q 700 646 608 733 l 597 444 q 456 511 543 511 q 346 465 392 511 q 300 356 300 419 q 346 246 300 292 q 456 200 392 200 q 597 267 544 200 l 700 65 z "},"è":{"ha":800,"x_min":33,"x_max":767,"o":"m 567 800 l 389 800 l 167 1022 l 433 1022 l 567 800 m 767 356 q 761 289 767 333 l 308 289 q 361 224 317 247 q 469 200 406 200 q 565 211 519 200 q 632 233 611 222 l 653 244 l 721 44 q 688 26 710 38 q 594 -3 667 15 q 444 -22 522 -22 q 137 84 240 -22 q 33 356 33 190 q 131 627 33 521 q 411 733 228 733 q 674 634 582 733 q 767 356 767 535 m 308 422 l 494 422 q 470 501 494 469 q 400 533 446 533 q 334 500 360 533 q 308 422 308 467 z "},"é":{"ha":800,"x_min":33,"x_max":767,"o":"m 289 800 l 422 1022 l 689 1022 l 467 800 l 289 800 m 767 356 q 761 289 767 333 l 308 289 q 361 224 317 247 q 469 200 406 200 q 565 211 519 200 q 632 233 611 222 l 653 244 l 721 44 q 688 26 710 38 q 594 -3 667 15 q 444 -22 522 -22 q 137 84 240 -22 q 33 356 33 190 q 131 627 33 521 q 411 733 228 733 q 674 634 582 733 q 767 356 767 535 m 308 422 l 494 422 q 470 501 494 469 q 400 533 446 533 q 334 500 360 533 q 308 422 308 467 z "},"ê":{"ha":800,"x_min":33,"x_max":767,"o":"m 478 800 l 411 911 l 344 800 l 122 800 l 344 1022 l 478 1022 l 700 800 l 478 800 m 767 356 q 761 289 767 333 l 308 289 q 361 224 317 247 q 469 200 406 200 q 565 211 519 200 q 632 233 611 222 l 653 244 l 721 44 q 688 26 710 38 q 594 -3 667 15 q 444 -22 522 -22 q 137 84 240 -22 q 33 356 33 190 q 131 627 33 521 q 411 733 228 733 q 674 634 582 733 q 767 356 767 535 m 308 422 l 494 422 q 470 501 494 469 q 400 533 446 533 q 334 500 360 533 q 308 422 308 467 z "},"ë":{"ha":800,"x_min":33,"x_max":767,"o":"m 323 833 q 307 816 323 833 q 244 800 290 800 q 166 833 199 800 q 133 911 133 865 q 166 990 133 957 q 244 1022 199 1022 q 323 990 290 1022 q 356 911 356 957 q 323 833 356 865 m 634 833 q 618 816 634 833 q 556 800 601 800 q 477 833 510 800 q 444 911 444 865 q 477 990 444 957 q 556 1022 510 1022 q 634 990 601 1022 q 667 911 667 957 q 634 833 667 865 m 767 356 q 761 289 767 333 l 308 289 q 361 224 317 247 q 469 200 406 200 q 565 211 519 200 q 632 233 611 222 l 653 244 l 721 44 q 688 26 710 38 q 594 -3 667 15 q 444 -22 522 -22 q 137 84 240 -22 q 33 356 33 190 q 131 627 33 521 q 411 733 228 733 q 674 634 582 733 q 767 356 767 535 m 308 422 l 494 422 q 470 501 494 469 q 400 533 446 533 q 334 500 360 533 q 308 422 308 467 z "},"ì":{"ha":422,"x_min":-56,"x_max":344,"o":"m 344 800 l 167 800 l -56 1022 l 211 1022 l 344 800 m 78 0 l 78 711 l 344 711 l 344 0 l 78 0 z "},"í":{"ha":422,"x_min":78,"x_max":478,"o":"m 78 800 l 211 1022 l 478 1022 l 256 800 l 78 800 m 78 0 l 78 711 l 344 711 l 344 0 l 78 0 z "},"î":{"ha":422,"x_min":-78,"x_max":500,"o":"m 278 800 l 211 911 l 144 800 l -78 800 l 144 1022 l 278 1022 l 500 800 l 278 800 m 78 0 l 78 711 l 344 711 l 344 0 l 78 0 z "},"ï":{"ha":422,"x_min":-56,"x_max":478,"o":"m 134 833 q 118 816 134 833 q 56 800 101 800 q -23 833 10 800 q -56 911 -56 865 q -23 990 -56 957 q 56 1022 10 1022 q 134 990 101 1022 q 167 911 167 957 q 134 833 167 865 m 445 833 q 429 816 445 833 q 367 800 413 800 q 288 833 321 800 q 256 911 256 865 q 288 990 256 957 q 367 1022 321 1022 q 445 990 413 1022 q 478 911 478 957 q 445 833 478 865 m 78 0 l 78 711 l 344 711 l 344 0 l 78 0 z "},"ð":{"ha":867,"x_min":33,"x_max":833,"o":"m 696 650 q 794 513 754 593 q 833 356 833 433 q 721 87 833 196 q 433 -22 608 -22 q 142 86 251 -22 q 33 356 33 194 q 107 585 33 486 q 310 718 181 685 l 308 718 l 251 758 l 56 689 l 56 821 l 124 846 l 33 911 l 211 1000 l 328 919 l 567 1001 l 567 868 l 457 832 q 696 650 635 710 m 339 246 q 358 223 339 246 q 433 200 378 200 q 528 246 489 200 q 567 356 567 292 q 528 465 567 419 q 433 511 489 511 q 339 465 378 511 q 300 356 300 419 q 339 246 300 292 z "},"ñ":{"ha":867,"x_min":78,"x_max":811,"o":"m 611 978 l 733 936 q 556 800 669 800 q 433 828 500 800 q 325 858 368 861 q 256 800 282 854 l 133 842 q 311 978 197 978 q 433 949 363 978 q 542 920 500 917 q 611 978 585 924 m 544 733 q 734 652 657 733 q 811 422 811 571 l 811 0 l 544 0 l 544 378 q 515 463 544 436 q 444 489 486 489 q 374 461 404 489 q 344 378 344 433 l 344 0 l 78 0 l 78 711 l 344 711 l 344 622 q 428 705 374 676 q 544 733 482 733 z "},"ò":{"ha":867,"x_min":33,"x_max":833,"o":"m 556 800 l 378 800 l 156 1022 l 422 1022 l 556 800 m 433 733 q 721 624 608 733 q 833 356 833 514 q 721 87 833 196 q 433 -22 608 -22 q 142 86 251 -22 q 33 356 33 194 q 142 625 33 517 q 433 733 250 733 m 339 246 q 358 223 339 246 q 433 200 378 200 q 528 246 489 200 q 567 356 567 292 q 528 465 567 419 q 433 511 489 511 q 339 465 378 511 q 300 356 300 419 q 339 246 300 292 z "},"ó":{"ha":867,"x_min":33,"x_max":833,"o":"m 311 800 l 444 1022 l 711 1022 l 489 800 l 311 800 m 433 733 q 721 624 608 733 q 833 356 833 514 q 721 87 833 196 q 433 -22 608 -22 q 142 86 251 -22 q 33 356 33 194 q 142 625 33 517 q 433 733 250 733 m 339 246 q 358 223 339 246 q 433 200 378 200 q 528 246 489 200 q 567 356 567 292 q 528 465 567 419 q 433 511 489 511 q 339 465 378 511 q 300 356 300 419 q 339 246 300 292 z "},"ô":{"ha":867,"x_min":33,"x_max":833,"o":"m 500 800 l 433 911 l 367 800 l 144 800 l 367 1022 l 500 1022 l 722 800 l 500 800 m 433 733 q 721 624 608 733 q 833 356 833 514 q 721 87 833 196 q 433 -22 608 -22 q 142 86 251 -22 q 33 356 33 194 q 142 625 33 517 q 433 733 250 733 m 339 246 q 358 223 339 246 q 433 200 378 200 q 528 246 489 200 q 567 356 567 292 q 528 465 567 419 q 433 511 489 511 q 339 465 378 511 q 300 356 300 419 q 339 246 300 292 z "},"õ":{"ha":867,"x_min":33,"x_max":833,"o":"m 611 978 l 733 936 q 556 800 669 800 q 433 828 500 800 q 325 858 368 861 q 256 800 282 854 l 133 842 q 311 978 197 978 q 433 949 363 978 q 542 920 500 917 q 611 978 585 924 m 433 733 q 721 624 608 733 q 833 356 833 514 q 721 87 833 196 q 433 -22 608 -22 q 142 86 251 -22 q 33 356 33 194 q 142 625 33 517 q 433 733 250 733 m 339 246 q 358 223 339 246 q 433 200 378 200 q 528 246 489 200 q 567 356 567 292 q 528 465 567 419 q 433 511 489 511 q 339 465 378 511 q 300 356 300 419 q 339 246 300 292 z "},"ö":{"ha":867,"x_min":33,"x_max":833,"o":"m 356 833 q 340 816 356 833 q 278 800 324 800 q 199 833 232 800 q 167 911 167 865 q 199 990 167 957 q 278 1022 232 1022 q 356 990 324 1022 q 389 911 389 957 q 356 833 389 865 m 667 833 q 651 816 667 833 q 589 800 635 800 q 510 833 543 800 q 478 911 478 865 q 510 990 478 957 q 589 1022 543 1022 q 667 990 635 1022 q 700 911 700 957 q 667 833 700 865 m 433 733 q 721 624 608 733 q 833 356 833 514 q 721 87 833 196 q 433 -22 608 -22 q 142 86 251 -22 q 33 356 33 194 q 142 625 33 517 q 433 733 250 733 m 339 246 q 358 223 339 246 q 433 200 378 200 q 528 246 489 200 q 567 356 567 292 q 528 465 567 419 q 433 511 489 511 q 339 465 378 511 q 300 356 300 419 q 339 246 300 292 z "},"÷":{"ha":711,"x_min":56,"x_max":656,"o":"m 450 617 q 431 597 450 617 q 356 578 411 578 q 261 617 300 578 q 222 711 222 656 q 261 806 222 767 q 356 844 300 844 q 450 806 411 844 q 489 711 489 767 q 450 617 489 656 m 56 500 l 656 500 l 656 344 l 56 344 l 56 500 m 450 39 q 431 19 450 39 q 356 0 411 0 q 261 39 300 0 q 222 133 222 78 q 261 228 222 189 q 356 267 300 267 q 450 228 411 267 q 489 133 489 189 q 450 39 489 78 z "},"ø":{"ha":867,"x_min":33,"x_max":833,"o":"m 728 617 q 833 356 833 508 q 721 87 833 196 q 433 -22 608 -22 q 217 31 311 -22 l 189 0 l 56 0 l 136 92 q 33 356 33 197 q 142 625 33 517 q 433 733 250 733 q 649 678 551 733 l 678 711 l 811 711 l 728 617 m 300 356 q 311 293 300 322 l 490 496 q 433 511 463 511 q 339 465 378 511 q 300 356 300 419 m 433 200 q 528 246 489 200 q 567 356 567 292 q 556 418 567 389 l 376 215 q 433 200 404 200 z "},"ù":{"ha":867,"x_min":56,"x_max":789,"o":"m 533 800 l 356 800 l 133 1022 l 400 1022 l 533 800 m 322 -22 q 133 59 210 -22 q 56 289 56 140 l 56 711 l 322 711 l 322 333 q 351 249 322 275 q 422 222 381 222 q 492 250 463 222 q 522 333 522 278 l 522 711 l 789 711 l 789 0 l 522 0 l 522 89 q 439 6 493 35 q 322 -22 385 -22 z "},"ú":{"ha":867,"x_min":56,"x_max":789,"o":"m 311 800 l 444 1022 l 711 1022 l 489 800 l 311 800 m 322 -22 q 133 59 210 -22 q 56 289 56 140 l 56 711 l 322 711 l 322 333 q 351 249 322 275 q 422 222 381 222 q 492 250 463 222 q 522 333 522 278 l 522 711 l 789 711 l 789 0 l 522 0 l 522 89 q 439 6 493 35 q 322 -22 385 -22 z "},"û":{"ha":867,"x_min":56,"x_max":789,"o":"m 494 800 l 428 911 l 361 800 l 139 800 l 361 1022 l 494 1022 l 717 800 l 494 800 m 322 -22 q 133 59 210 -22 q 56 289 56 140 l 56 711 l 322 711 l 322 333 q 351 249 322 275 q 422 222 381 222 q 492 250 463 222 q 522 333 522 278 l 522 711 l 789 711 l 789 0 l 522 0 l 522 89 q 439 6 493 35 q 322 -22 385 -22 z "},"ü":{"ha":867,"x_min":56,"x_max":789,"o":"m 351 833 q 334 816 351 833 q 272 800 318 800 q 194 833 226 800 q 161 911 161 865 q 194 990 161 957 q 272 1022 226 1022 q 351 990 318 1022 q 383 911 383 957 q 351 833 383 865 m 662 833 q 645 816 662 833 q 583 800 629 800 q 505 833 538 800 q 472 911 472 865 q 505 990 472 957 q 583 1022 538 1022 q 662 990 629 1022 q 694 911 694 957 q 662 833 694 865 m 322 -22 q 133 59 210 -22 q 56 289 56 140 l 56 711 l 322 711 l 322 333 q 351 249 322 275 q 422 222 381 222 q 492 250 463 222 q 522 333 522 278 l 522 711 l 789 711 l 789 0 l 522 0 l 522 89 q 439 6 493 35 q 322 -22 385 -22 z "},"ý":{"ha":778,"x_min":-11,"x_max":789,"o":"m 256 800 l 389 1022 l 656 1022 l 433 800 l 256 800 m 367 -356 l 100 -356 l 256 22 l -11 711 l 256 711 l 389 333 l 522 711 l 789 711 l 367 -356 z "},"þ":{"ha":911,"x_min":78,"x_max":878,"o":"m 544 733 q 781 623 683 733 q 878 356 878 513 q 781 88 878 199 q 544 -22 683 -22 q 344 72 424 -22 l 344 -356 l 78 -356 l 78 978 l 344 978 l 344 639 q 544 733 424 733 m 383 246 q 403 223 383 246 q 478 200 422 200 q 572 246 533 200 q 611 356 611 292 q 572 465 611 419 q 478 511 533 511 q 383 465 422 511 q 344 356 344 419 q 383 246 344 292 z "},"ÿ":{"ha":778,"x_min":-11,"x_max":789,"o":"m 312 833 q 295 816 312 833 q 233 800 279 800 q 155 833 188 800 q 122 911 122 865 q 155 990 122 957 q 233 1022 188 1022 q 312 990 279 1022 q 344 911 344 957 q 312 833 344 865 m 623 833 q 607 816 623 833 q 544 800 590 800 q 466 833 499 800 q 433 911 433 865 q 466 990 433 957 q 544 1022 499 1022 q 623 990 590 1022 q 656 911 656 957 q 623 833 656 865 m 367 -356 l 100 -356 l 256 22 l -11 711 l 256 711 l 389 333 l 522 711 l 789 711 l 367 -356 z "},"Ā":{"ha":1000,"x_min":-11,"x_max":1011,"o":"m 722 1044 l 278 1044 l 278 1178 l 722 1178 l 722 1044 m 625 933 l 1011 0 l 740 0 l 681 156 l 319 156 l 260 0 l -11 0 l 375 933 l 625 933 m 397 356 l 603 356 l 500 622 l 397 356 z "},"ā":{"ha":911,"x_min":33,"x_max":833,"o":"m 700 822 l 256 822 l 256 956 l 700 956 l 700 822 m 567 711 l 833 711 l 833 0 l 567 0 l 567 72 q 367 -22 488 -22 q 131 88 228 -22 q 33 356 33 199 q 131 623 33 513 q 367 733 228 733 q 567 639 488 733 l 567 711 m 339 246 q 358 223 339 246 q 433 200 378 200 q 528 246 489 200 q 567 356 567 292 q 528 465 567 419 q 433 511 489 511 q 339 465 378 511 q 300 356 300 419 q 339 246 300 292 z "},"Ă":{"ha":1000,"x_min":-11,"x_max":1011,"o":"m 589 1244 l 722 1244 q 657 1088 722 1153 q 500 1022 592 1022 q 343 1088 408 1022 q 278 1244 278 1153 l 411 1244 q 438 1182 411 1208 q 500 1156 464 1156 q 563 1182 536 1156 q 589 1244 589 1208 m 625 933 l 1011 0 l 740 0 l 681 156 l 319 156 l 260 0 l -11 0 l 375 933 l 625 933 m 397 356 l 603 356 l 500 622 l 397 356 z "},"ă":{"ha":911,"x_min":33,"x_max":833,"o":"m 567 1022 l 700 1022 q 635 865 700 931 q 478 800 569 800 q 321 865 386 800 q 256 1022 256 931 l 389 1022 q 415 960 389 986 q 478 933 442 933 q 540 960 514 933 q 567 1022 567 986 m 567 711 l 833 711 l 833 0 l 567 0 l 567 72 q 367 -22 488 -22 q 131 88 228 -22 q 33 356 33 199 q 131 623 33 513 q 367 733 228 733 q 567 639 488 733 l 567 711 m 339 246 q 358 223 339 246 q 433 200 378 200 q 528 246 489 200 q 567 356 567 292 q 528 465 567 419 q 433 511 489 511 q 339 465 378 511 q 300 356 300 419 q 339 246 300 292 z "},"Ą":{"ha":1000,"x_min":-11,"x_max":1011,"o":"m 811 -103 q 862 -167 811 -153 q 963 -156 913 -181 l 985 -267 q 874 -289 921 -289 q 743 -240 790 -289 q 696 -111 696 -190 q 709 -49 696 -82 q 740 0 722 -15 l 681 156 l 319 156 l 260 0 l -11 0 l 375 933 l 625 933 l 1011 0 l 940 0 q 852 -24 893 0 q 811 -103 811 -49 m 397 356 l 603 356 l 500 622 l 397 356 z "},"ą":{"ha":911,"x_min":33,"x_max":833,"o":"m 767 0 q 678 -24 719 0 q 638 -103 638 -49 q 688 -167 638 -153 q 789 -156 739 -181 l 811 -267 q 700 -289 747 -289 q 569 -240 617 -289 q 522 -111 522 -190 q 535 -49 522 -82 q 567 0 549 -15 l 567 72 q 367 -22 488 -22 q 131 88 228 -22 q 33 356 33 199 q 131 623 33 513 q 367 733 228 733 q 567 639 488 733 l 567 711 l 833 711 l 833 0 l 767 0 m 339 246 q 358 223 339 246 q 433 200 378 200 q 528 246 489 200 q 567 356 567 292 q 528 465 567 419 q 433 511 489 511 q 339 465 378 511 q 300 356 300 419 q 339 246 300 292 z "},"Ć":{"ha":911,"x_min":33,"x_max":878,"o":"m 411 1022 l 544 1244 l 811 1244 l 589 1022 l 411 1022 m 565 222 q 776 317 693 222 l 878 90 q 730 8 817 38 q 558 -22 643 -22 q 188 122 342 -22 q 33 467 33 265 q 188 812 33 668 q 558 956 342 956 q 730 926 643 956 q 878 844 817 897 l 776 617 q 565 711 693 711 q 378 640 456 711 q 300 467 300 568 q 378 294 300 365 q 565 222 456 222 z "},"ć":{"ha":733,"x_min":33,"x_max":700,"o":"m 300 800 l 433 1022 l 700 1022 l 478 800 l 300 800 m 597 267 l 700 65 q 429 -22 613 -22 q 140 86 247 -22 q 33 356 33 194 q 141 625 33 517 q 429 733 249 733 q 700 646 608 733 l 597 444 q 456 511 543 511 q 346 465 392 511 q 300 356 300 419 q 346 246 300 292 q 456 200 392 200 q 597 267 544 200 z "},"Ċ":{"ha":911,"x_min":33,"x_max":878,"o":"m 639 1039 q 619 1019 639 1039 q 544 1000 600 1000 q 450 1039 489 1000 q 411 1133 411 1078 q 450 1228 411 1189 q 544 1267 489 1267 q 639 1228 600 1267 q 678 1133 678 1189 q 639 1039 678 1078 m 565 222 q 776 317 693 222 l 878 90 q 730 8 817 38 q 558 -22 643 -22 q 188 122 342 -22 q 33 467 33 265 q 188 812 33 668 q 558 956 342 956 q 730 926 643 956 q 878 844 817 897 l 776 617 q 565 711 693 711 q 378 640 456 711 q 300 467 300 568 q 378 294 300 365 q 565 222 456 222 z "},"ċ":{"ha":733,"x_min":33,"x_max":700,"o":"m 528 817 q 508 797 528 817 q 433 778 489 778 q 339 817 378 778 q 300 911 300 856 q 339 1006 300 967 q 433 1044 378 1044 q 528 1006 489 1044 q 567 911 567 967 q 528 817 567 856 m 597 267 l 700 65 q 429 -22 613 -22 q 140 86 247 -22 q 33 356 33 194 q 141 625 33 517 q 429 733 249 733 q 700 646 608 733 l 597 444 q 456 511 543 511 q 346 465 392 511 q 300 356 300 419 q 346 246 300 292 q 456 200 392 200 q 597 267 544 200 z "},"Č":{"ha":911,"x_min":33,"x_max":878,"o":"m 600 1244 l 822 1244 l 600 1022 l 467 1022 l 244 1244 l 467 1244 l 533 1133 l 600 1244 m 565 222 q 776 317 693 222 l 878 90 q 730 8 817 38 q 558 -22 643 -22 q 188 122 342 -22 q 33 467 33 265 q 188 812 33 668 q 558 956 342 956 q 730 926 643 956 q 878 844 817 897 l 776 617 q 565 711 693 711 q 378 640 456 711 q 300 467 300 568 q 378 294 300 365 q 565 222 456 222 z "},"č":{"ha":733,"x_min":33,"x_max":700,"o":"m 478 1022 l 700 1022 l 478 800 l 344 800 l 122 1022 l 344 1022 l 411 911 l 478 1022 m 597 267 l 700 65 q 429 -22 613 -22 q 140 86 247 -22 q 33 356 33 194 q 141 625 33 517 q 429 733 249 733 q 700 646 608 733 l 597 444 q 456 511 543 511 q 346 465 392 511 q 300 356 300 419 q 346 246 300 292 q 456 200 392 200 q 597 267 544 200 z "},"Ď":{"ha":978,"x_min":78,"x_max":944,"o":"m 511 1244 l 733 1244 l 511 1022 l 378 1022 l 156 1244 l 378 1244 l 444 1133 l 511 1244 m 454 933 q 815 801 686 933 q 944 467 944 669 q 813 133 944 265 q 454 0 682 0 l 78 0 l 78 933 l 454 933 m 478 244 q 614 311 550 244 q 678 467 678 378 q 614 622 678 556 q 478 689 550 689 l 344 689 l 344 244 l 478 244 z "},"ď":{"ha":1156,"x_min":33,"x_max":1122,"o":"m 567 978 l 833 978 l 833 0 l 567 0 l 567 72 q 367 -22 488 -22 q 131 88 228 -22 q 33 356 33 199 q 131 623 33 513 q 367 733 228 733 q 567 639 488 733 l 567 978 m 878 711 l 922 933 l 1122 933 l 1011 711 l 878 711 m 339 246 q 358 223 339 246 q 433 200 378 200 q 528 246 489 200 q 567 356 567 292 q 528 465 567 419 q 433 511 489 511 q 339 465 378 511 q 300 356 300 419 q 339 246 300 292 z "},"Đ":{"ha":1000,"x_min":11,"x_max":967,"o":"m 476 933 q 838 801 708 933 q 967 467 967 669 q 835 133 967 265 q 476 0 704 0 l 100 0 l 100 389 l 11 389 l 11 544 l 100 544 l 100 933 l 476 933 m 500 244 q 636 311 572 244 q 700 467 700 378 q 636 622 700 556 q 500 689 572 689 l 367 689 l 367 544 l 456 544 l 456 389 l 367 389 l 367 244 l 500 244 z "},"đ":{"ha":933,"x_min":33,"x_max":922,"o":"m 922 878 l 922 744 l 833 744 l 833 0 l 567 0 l 567 72 q 367 -22 488 -22 q 131 88 228 -22 q 33 356 33 199 q 131 623 33 513 q 367 733 228 733 q 567 639 488 733 l 567 744 l 478 744 l 478 878 l 567 878 l 567 978 l 833 978 l 833 878 l 922 878 m 339 246 q 358 223 339 246 q 433 200 378 200 q 528 246 489 200 q 567 356 567 292 q 528 465 567 419 q 433 511 489 511 q 339 465 378 511 q 300 356 300 419 q 339 246 300 292 z "},"Ē":{"ha":756,"x_min":78,"x_max":700,"o":"m 600 1044 l 156 1044 l 156 1178 l 600 1178 l 600 1044 m 700 689 l 344 689 l 344 578 l 633 578 l 633 356 l 344 356 l 344 244 l 700 244 l 700 0 l 78 0 l 78 933 l 700 933 l 700 689 z "},"ē":{"ha":800,"x_min":33,"x_max":767,"o":"m 622 822 l 178 822 l 178 956 l 622 956 l 622 822 m 767 356 q 761 289 767 333 l 308 289 q 361 224 317 247 q 469 200 406 200 q 565 211 519 200 q 632 233 611 222 l 653 244 l 721 44 q 688 26 710 38 q 594 -3 667 15 q 444 -22 522 -22 q 137 84 240 -22 q 33 356 33 190 q 131 627 33 521 q 411 733 228 733 q 674 634 582 733 q 767 356 767 535 m 308 422 l 494 422 q 470 501 494 469 q 400 533 446 533 q 334 500 360 533 q 308 422 308 467 z "},"Ė":{"ha":756,"x_min":78,"x_max":700,"o":"m 472 1039 q 453 1019 472 1039 q 378 1000 433 1000 q 283 1039 322 1000 q 244 1133 244 1078 q 283 1228 244 1189 q 378 1267 322 1267 q 472 1228 433 1267 q 511 1133 511 1189 q 472 1039 511 1078 m 700 689 l 344 689 l 344 578 l 633 578 l 633 356 l 344 356 l 344 244 l 700 244 l 700 0 l 78 0 l 78 933 l 700 933 l 700 689 z "},"ė":{"ha":800,"x_min":33,"x_max":767,"o":"m 500 817 q 481 797 500 817 q 406 778 461 778 q 311 817 350 778 q 272 911 272 856 q 311 1006 272 967 q 406 1044 350 1044 q 500 1006 461 1044 q 539 911 539 967 q 500 817 539 856 m 767 356 q 761 289 767 333 l 308 289 q 361 224 317 247 q 469 200 406 200 q 565 211 519 200 q 632 233 611 222 l 653 244 l 721 44 q 688 26 710 38 q 594 -3 667 15 q 444 -22 522 -22 q 137 84 240 -22 q 33 356 33 190 q 131 627 33 521 q 411 733 228 733 q 674 634 582 733 q 767 356 767 535 m 308 422 l 494 422 q 470 501 494 469 q 400 533 446 533 q 334 500 360 533 q 308 422 308 467 z "},"Ę":{"ha":756,"x_min":78,"x_max":744,"o":"m 722 -156 l 744 -267 q 633 -289 681 -289 q 503 -240 550 -289 q 456 -111 456 -190 q 469 -49 456 -82 q 500 0 482 -15 l 78 0 l 78 933 l 700 933 l 700 689 l 344 689 l 344 578 l 633 578 l 633 356 l 344 356 l 344 244 l 700 244 l 700 0 q 612 -24 653 0 q 571 -103 571 -49 q 622 -167 571 -153 q 722 -156 672 -181 z "},"ę":{"ha":800,"x_min":33,"x_max":767,"o":"m 767 356 q 761 289 767 333 l 308 289 q 361 224 317 247 q 469 200 406 200 q 565 211 519 200 q 632 233 611 222 l 653 244 l 721 44 q 543 -15 658 3 q 482 -103 482 -33 q 533 -167 482 -153 q 633 -156 583 -181 l 656 -267 q 544 -289 592 -289 q 414 -240 461 -289 q 367 -111 367 -190 q 394 -21 367 -62 q 124 97 214 -7 q 33 356 33 200 q 131 627 33 521 q 411 733 228 733 q 674 634 582 733 q 767 356 767 535 m 308 422 l 494 422 q 470 501 494 469 q 400 533 446 533 q 334 500 360 533 q 308 422 308 467 z "},"Ě":{"ha":756,"x_min":78,"x_max":700,"o":"m 444 1244 l 667 1244 l 444 1022 l 311 1022 l 89 1244 l 311 1244 l 378 1133 l 444 1244 m 700 689 l 344 689 l 344 578 l 633 578 l 633 356 l 344 356 l 344 244 l 700 244 l 700 0 l 78 0 l 78 933 l 700 933 l 700 689 z "},"ě":{"ha":800,"x_min":33,"x_max":767,"o":"m 478 1022 l 700 1022 l 478 800 l 344 800 l 122 1022 l 344 1022 l 411 911 l 478 1022 m 767 356 q 761 289 767 333 l 308 289 q 361 224 317 247 q 469 200 406 200 q 565 211 519 200 q 632 233 611 222 l 653 244 l 721 44 q 688 26 710 38 q 594 -3 667 15 q 444 -22 522 -22 q 137 84 240 -22 q 33 356 33 190 q 131 627 33 521 q 411 733 228 733 q 674 634 582 733 q 767 356 767 535 m 308 422 l 494 422 q 470 501 494 469 q 400 533 446 533 q 334 500 360 533 q 308 422 308 467 z "},"Ğ":{"ha":1044,"x_min":33,"x_max":1011,"o":"m 611 1244 l 744 1244 q 679 1088 744 1153 q 522 1022 614 1022 q 365 1088 431 1022 q 300 1244 300 1153 l 433 1244 q 460 1182 433 1208 q 522 1156 486 1156 q 585 1182 558 1156 q 611 1244 611 1208 m 1003 556 q 1011 467 1011 510 q 875 120 1011 263 q 533 -22 739 -22 q 180 121 326 -22 q 33 467 33 264 q 180 813 33 669 q 533 956 326 956 q 789 884 678 956 q 965 689 900 813 l 714 621 q 533 711 644 711 q 368 640 436 711 q 300 467 300 568 q 368 294 300 365 q 533 222 436 222 q 655 258 601 222 q 736 356 708 294 l 478 356 l 478 556 l 1003 556 z "},"ğ":{"ha":911,"x_min":33,"x_max":833,"o":"m 567 1022 l 700 1022 q 635 865 700 931 q 478 800 569 800 q 321 865 386 800 q 256 1022 256 931 l 389 1022 q 415 960 389 986 q 478 933 442 933 q 540 960 514 933 q 567 1022 567 986 m 567 711 l 833 711 l 833 67 q 724 -265 833 -151 q 411 -378 615 -378 q 239 -350 328 -378 q 103 -294 150 -322 l 56 -267 l 144 -67 q 176 -87 156 -75 q 261 -120 197 -100 q 390 -140 325 -140 q 567 44 567 -140 l 567 72 q 367 -22 488 -22 q 131 88 228 -22 q 33 356 33 199 q 131 623 33 513 q 367 733 228 733 q 567 639 488 733 l 567 711 m 339 246 q 358 223 339 246 q 433 200 378 200 q 528 246 489 200 q 567 356 567 292 q 528 465 567 419 q 433 511 489 511 q 339 465 378 511 q 300 356 300 419 q 339 246 300 292 z "},"Ġ":{"ha":1044,"x_min":33,"x_max":1011,"o":"m 617 1039 q 597 1019 617 1039 q 522 1000 578 1000 q 428 1039 467 1000 q 389 1133 389 1078 q 428 1228 389 1189 q 522 1267 467 1267 q 617 1228 578 1267 q 656 1133 656 1189 q 617 1039 656 1078 m 1003 556 q 1011 467 1011 510 q 875 120 1011 263 q 533 -22 739 -22 q 180 121 326 -22 q 33 467 33 264 q 180 813 33 669 q 533 956 326 956 q 789 884 678 956 q 965 689 900 813 l 714 621 q 533 711 644 711 q 368 640 436 711 q 300 467 300 568 q 368 294 300 365 q 533 222 436 222 q 655 258 601 222 q 736 356 708 294 l 478 356 l 478 556 l 1003 556 z "},"ġ":{"ha":911,"x_min":33,"x_max":833,"o":"m 550 817 q 531 797 550 817 q 456 778 511 778 q 361 817 400 778 q 322 911 322 856 q 361 1006 322 967 q 456 1044 400 1044 q 550 1006 511 1044 q 589 911 589 967 q 550 817 589 856 m 567 711 l 833 711 l 833 67 q 724 -265 833 -151 q 411 -378 615 -378 q 239 -350 328 -378 q 103 -294 150 -322 l 56 -267 l 144 -67 q 176 -87 156 -75 q 261 -120 197 -100 q 390 -140 325 -140 q 567 44 567 -140 l 567 72 q 367 -22 488 -22 q 131 88 228 -22 q 33 356 33 199 q 131 623 33 513 q 367 733 228 733 q 567 639 488 733 l 567 711 m 339 246 q 358 223 339 246 q 433 200 378 200 q 528 246 489 200 q 567 356 567 292 q 528 465 567 419 q 433 511 489 511 q 339 465 378 511 q 300 356 300 419 q 339 246 300 292 z "},"Ģ":{"ha":1044,"x_min":33,"x_max":1011,"o":"m 1003 556 q 1011 467 1011 510 q 875 120 1011 263 q 533 -22 739 -22 q 180 121 326 -22 q 33 467 33 264 q 180 813 33 669 q 533 956 326 956 q 789 884 678 956 q 965 689 900 813 l 714 621 q 533 711 644 711 q 368 640 436 711 q 300 467 300 568 q 368 294 300 365 q 533 222 436 222 q 655 258 601 222 q 736 356 708 294 l 478 356 l 478 556 l 1003 556 m 389 -311 l 433 -89 l 633 -89 l 522 -311 l 389 -311 z "},"ģ":{"ha":911,"x_min":33,"x_max":833,"o":"m 622 1022 l 578 800 l 378 800 l 489 1022 l 622 1022 m 567 711 l 833 711 l 833 67 q 724 -265 833 -151 q 411 -378 615 -378 q 239 -350 328 -378 q 103 -294 150 -322 l 56 -267 l 144 -67 q 176 -87 156 -75 q 261 -120 197 -100 q 390 -140 325 -140 q 567 44 567 -140 l 567 72 q 367 -22 488 -22 q 131 88 228 -22 q 33 356 33 199 q 131 623 33 513 q 367 733 228 733 q 567 639 488 733 l 567 711 m 339 246 q 358 223 339 246 q 433 200 378 200 q 528 246 489 200 q 567 356 567 292 q 528 465 567 419 q 433 511 489 511 q 339 465 378 511 q 300 356 300 419 q 339 246 300 292 z "},"Ħ":{"ha":1000,"x_min":11,"x_max":989,"o":"m 989 833 l 989 700 l 922 700 l 922 0 l 656 0 l 656 344 l 344 344 l 344 0 l 78 0 l 78 700 l 11 700 l 11 833 l 78 833 l 78 933 l 344 933 l 344 833 l 656 833 l 656 933 l 922 933 l 922 833 l 989 833 m 656 589 l 656 700 l 344 700 l 344 589 l 656 589 z "},"ħ":{"ha":889,"x_min":11,"x_max":833,"o":"m 567 733 q 756 652 679 733 q 833 422 833 571 l 833 0 l 567 0 l 567 378 q 538 463 567 436 q 467 489 508 489 q 397 461 426 489 q 367 378 367 433 l 367 0 l 100 0 l 100 744 l 11 744 l 11 878 l 100 878 l 100 978 l 367 978 l 367 878 l 456 878 l 456 744 l 367 744 l 367 622 q 450 705 396 676 q 567 733 504 733 z "},"Ī":{"ha":422,"x_min":-11,"x_max":433,"o":"m 433 1044 l -11 1044 l -11 1178 l 433 1178 l 433 1044 m 344 0 l 78 0 l 78 933 l 344 933 l 344 0 z "},"ī":{"ha":422,"x_min":-11,"x_max":433,"o":"m 433 822 l -11 822 l -11 956 l 433 956 l 433 822 m 78 0 l 78 711 l 344 711 l 344 0 l 78 0 z "},"Į":{"ha":422,"x_min":78,"x_max":389,"o":"m 367 -156 l 389 -267 q 278 -289 325 -289 q 147 -240 194 -289 q 100 -111 100 -190 q 113 -49 100 -82 q 144 0 126 -15 l 78 0 l 78 933 l 344 933 l 344 0 q 256 -24 297 0 q 215 -103 215 -49 q 266 -167 215 -153 q 367 -156 317 -181 z "},"į":{"ha":422,"x_min":67,"x_max":389,"o":"m 313 820 q 292 799 313 820 q 211 778 271 778 q 109 820 151 778 q 67 922 67 863 q 109 1024 67 982 q 211 1067 151 1067 q 313 1024 271 1067 q 356 922 356 982 q 313 820 356 863 m 367 -156 l 389 -267 q 278 -289 325 -289 q 147 -240 194 -289 q 100 -111 100 -190 q 113 -49 100 -82 q 144 0 126 -15 l 78 0 l 78 711 l 344 711 l 344 0 q 256 -24 297 0 q 215 -103 215 -49 q 266 -167 215 -153 q 367 -156 317 -181 z "},"İ":{"ha":422,"x_min":78,"x_max":344,"o":"m 306 1039 q 286 1019 306 1039 q 211 1000 267 1000 q 117 1039 156 1000 q 78 1133 78 1078 q 117 1228 78 1189 q 211 1267 156 1267 q 306 1228 267 1267 q 344 1133 344 1189 q 306 1039 344 1078 m 344 0 l 78 0 l 78 933 l 344 933 l 344 0 z "},"ı":{"ha":422,"x_min":78,"x_max":344,"o":"m 78 0 l 78 711 l 344 711 l 344 0 l 78 0 z "},"Ĳ":{"ha":1133,"x_min":78,"x_max":1078,"o":"m 344 0 l 78 0 l 78 933 l 344 933 l 344 0 m 811 933 l 1078 933 l 1078 356 q 973 74 1078 169 q 683 -22 868 -22 q 555 3 619 -22 q 456 67 490 28 l 571 276 q 678 222 610 222 q 774 256 736 222 q 811 356 811 290 l 811 933 z "},"ĳ":{"ha":844,"x_min":67,"x_max":778,"o":"m 313 820 q 292 799 313 820 q 211 778 271 778 q 109 820 151 778 q 67 922 67 863 q 109 1024 67 982 q 211 1067 151 1067 q 313 1024 271 1067 q 356 922 356 982 q 313 820 356 863 m 735 820 q 714 799 735 820 q 633 778 693 778 q 531 820 574 778 q 489 922 489 863 q 531 1024 489 982 q 633 1067 574 1067 q 735 1024 693 1067 q 778 922 778 982 q 735 820 778 863 m 78 0 l 78 711 l 344 711 l 344 0 l 78 0 m 500 0 l 500 711 l 767 711 l 767 22 q 678 -282 767 -186 q 411 -378 590 -378 l 367 -156 q 460 -117 421 -156 q 500 0 500 -79 z "},"Ķ":{"ha":978,"x_min":78,"x_max":967,"o":"m 589 489 l 967 0 l 633 0 l 344 400 l 344 0 l 78 0 l 78 933 l 344 933 l 344 578 l 611 933 l 944 933 l 589 489 m 333 -311 l 378 -89 l 578 -89 l 467 -311 l 333 -311 z "},"ķ":{"ha":844,"x_min":78,"x_max":856,"o":"m 567 372 l 856 0 l 544 0 l 344 289 l 344 0 l 78 0 l 78 978 l 344 978 l 344 444 l 522 711 l 833 711 l 567 372 m 300 -311 l 344 -89 l 544 -89 l 433 -311 l 300 -311 z "},"Ĺ":{"ha":733,"x_min":78,"x_max":700,"o":"m 78 1022 l 211 1244 l 478 1244 l 256 1022 l 78 1022 m 344 244 l 700 244 l 700 0 l 78 0 l 78 933 l 344 933 l 344 244 z "},"ĺ":{"ha":422,"x_min":78,"x_max":478,"o":"m 78 1067 l 211 1289 l 478 1289 l 256 1067 l 78 1067 m 78 978 l 344 978 l 344 0 l 78 0 l 78 978 z "},"Ļ":{"ha":733,"x_min":78,"x_max":700,"o":"m 344 244 l 700 244 l 700 0 l 78 0 l 78 933 l 344 933 l 344 244 m 233 -311 l 278 -89 l 478 -89 l 367 -311 l 233 -311 z "},"ļ":{"ha":422,"x_min":78,"x_max":344,"o":"m 78 978 l 344 978 l 344 0 l 78 0 l 78 978 m 78 -311 l 122 -89 l 322 -89 l 211 -311 l 78 -311 z "},"Ľ":{"ha":756,"x_min":78,"x_max":722,"o":"m 344 244 l 700 244 l 700 0 l 78 0 l 78 933 l 344 933 l 344 244 m 478 711 l 522 933 l 722 933 l 611 711 l 478 711 z "},"ľ":{"ha":644,"x_min":78,"x_max":633,"o":"m 78 978 l 344 978 l 344 0 l 78 0 l 78 978 m 389 711 l 433 933 l 633 933 l 522 711 l 389 711 z "},"Ŀ":{"ha":756,"x_min":78,"x_max":722,"o":"m 344 244 l 700 244 l 700 0 l 78 0 l 78 933 l 344 933 l 344 244 m 683 428 q 664 408 683 428 q 589 389 644 389 q 494 428 533 389 q 456 522 456 467 q 494 617 456 578 q 589 656 533 656 q 683 617 644 656 q 722 522 722 578 q 683 428 722 467 z "},"ŀ":{"ha":689,"x_min":78,"x_max":678,"o":"m 78 978 l 344 978 l 344 0 l 78 0 l 78 978 m 639 428 q 619 408 639 428 q 544 389 600 389 q 450 428 489 389 q 411 522 411 467 q 450 617 411 578 q 544 656 489 656 q 639 617 600 656 q 678 522 678 578 q 639 428 678 467 z "},"Ł":{"ha":733,"x_min":11,"x_max":700,"o":"m 344 244 l 700 244 l 700 0 l 78 0 l 78 385 l 11 367 l 11 500 l 78 518 l 78 933 l 344 933 l 344 593 l 411 611 l 411 478 l 344 460 l 344 244 z "},"ł":{"ha":422,"x_min":11,"x_max":411,"o":"m 411 610 l 411 476 l 344 458 l 344 0 l 78 0 l 78 385 l 11 367 l 11 500 l 78 518 l 78 978 l 344 978 l 344 592 l 411 610 z "},"Ń":{"ha":1044,"x_min":78,"x_max":967,"o":"m 389 1022 l 522 1244 l 789 1244 l 567 1022 l 389 1022 m 700 933 l 967 933 l 967 0 l 700 0 l 344 511 l 344 0 l 78 0 l 78 933 l 344 933 l 700 422 l 700 933 z "},"ń":{"ha":867,"x_min":78,"x_max":811,"o":"m 300 800 l 433 1022 l 700 1022 l 478 800 l 300 800 m 544 733 q 734 652 657 733 q 811 422 811 571 l 811 0 l 544 0 l 544 378 q 515 463 544 436 q 444 489 486 489 q 374 461 404 489 q 344 378 344 433 l 344 0 l 78 0 l 78 711 l 344 711 l 344 622 q 428 705 374 676 q 544 733 482 733 z "},"Ņ":{"ha":1044,"x_min":78,"x_max":967,"o":"m 700 933 l 967 933 l 967 0 l 700 0 l 344 511 l 344 0 l 78 0 l 78 933 l 344 933 l 700 422 l 700 933 m 389 -311 l 433 -89 l 633 -89 l 522 -311 l 389 -311 z "},"ņ":{"ha":867,"x_min":78,"x_max":811,"o":"m 544 733 q 734 652 657 733 q 811 422 811 571 l 811 0 l 544 0 l 544 378 q 515 463 544 436 q 444 489 486 489 q 374 461 404 489 q 344 378 344 433 l 344 0 l 78 0 l 78 711 l 344 711 l 344 622 q 428 705 374 676 q 544 733 482 733 m 300 -311 l 344 -89 l 544 -89 l 433 -311 l 300 -311 z "},"Ň":{"ha":1044,"x_min":78,"x_max":967,"o":"m 589 1244 l 811 1244 l 589 1022 l 456 1022 l 233 1244 l 456 1244 l 522 1133 l 589 1244 m 700 933 l 967 933 l 967 0 l 700 0 l 344 511 l 344 0 l 78 0 l 78 933 l 344 933 l 700 422 l 700 933 z "},"ň":{"ha":867,"x_min":78,"x_max":811,"o":"m 489 1022 l 711 1022 l 489 800 l 356 800 l 133 1022 l 356 1022 l 422 911 l 489 1022 m 544 733 q 734 652 657 733 q 811 422 811 571 l 811 0 l 544 0 l 544 378 q 515 463 544 436 q 444 489 486 489 q 374 461 404 489 q 344 378 344 433 l 344 0 l 78 0 l 78 711 l 344 711 l 344 622 q 428 705 374 676 q 544 733 482 733 z "},"Ŋ":{"ha":1044,"x_min":78,"x_max":967,"o":"m 700 933 l 967 933 l 967 22 q 878 -282 967 -186 q 611 -378 790 -378 l 567 -156 q 660 -117 621 -156 q 700 0 700 -79 l 344 511 l 344 0 l 78 0 l 78 933 l 344 933 l 700 422 l 700 933 z "},"ŋ":{"ha":867,"x_min":78,"x_max":811,"o":"m 544 733 q 734 652 657 733 q 811 422 811 571 l 811 22 q 723 -282 811 -186 q 456 -378 635 -378 l 411 -156 q 505 -117 465 -156 q 544 0 544 -79 l 544 378 q 515 463 544 436 q 444 489 486 489 q 374 461 404 489 q 344 378 344 433 l 344 0 l 78 0 l 78 711 l 344 711 l 344 622 q 428 705 374 676 q 544 733 482 733 z "},"Ō":{"ha":1089,"x_min":33,"x_max":1056,"o":"m 767 1044 l 322 1044 l 322 1178 l 767 1178 l 767 1044 m 183 813 q 258 884 183 813 q 544 956 333 956 q 906 813 756 956 q 1056 467 1056 669 q 906 121 1056 264 q 544 -22 756 -22 q 183 121 333 -22 q 33 467 33 264 q 183 813 33 669 m 372 294 q 407 258 372 294 q 544 222 443 222 q 717 294 646 222 q 789 467 789 365 q 717 640 789 568 q 544 711 646 711 q 372 640 443 711 q 300 467 300 568 q 372 294 300 365 z "},"ō":{"ha":867,"x_min":33,"x_max":833,"o":"m 656 822 l 211 822 l 211 956 l 656 956 l 656 822 m 433 733 q 721 624 608 733 q 833 356 833 514 q 721 87 833 196 q 433 -22 608 -22 q 142 86 251 -22 q 33 356 33 194 q 142 625 33 517 q 433 733 250 733 m 339 246 q 358 223 339 246 q 433 200 378 200 q 528 246 489 200 q 567 356 567 292 q 528 465 567 419 q 433 511 489 511 q 339 465 378 511 q 300 356 300 419 q 339 246 300 292 z "},"Ő":{"ha":1089,"x_min":33,"x_max":1056,"o":"m 300 1022 l 344 1244 l 544 1244 l 433 1022 l 300 1022 m 633 1022 l 678 1244 l 878 1244 l 767 1022 l 633 1022 m 183 813 q 258 884 183 813 q 544 956 333 956 q 906 813 756 956 q 1056 467 1056 669 q 906 121 1056 264 q 544 -22 756 -22 q 183 121 333 -22 q 33 467 33 264 q 183 813 33 669 m 372 294 q 407 258 372 294 q 544 222 443 222 q 717 294 646 222 q 789 467 789 365 q 717 640 789 568 q 544 711 646 711 q 372 640 443 711 q 300 467 300 568 q 372 294 300 365 z "},"ő":{"ha":867,"x_min":33,"x_max":833,"o":"m 189 800 l 233 1022 l 433 1022 l 322 800 l 189 800 m 522 800 l 567 1022 l 767 1022 l 656 800 l 522 800 m 433 733 q 721 624 608 733 q 833 356 833 514 q 721 87 833 196 q 433 -22 608 -22 q 142 86 251 -22 q 33 356 33 194 q 142 625 33 517 q 433 733 250 733 m 339 246 q 358 223 339 246 q 433 200 378 200 q 528 246 489 200 q 567 356 567 292 q 528 465 567 419 q 433 511 489 511 q 339 465 378 511 q 300 356 300 419 q 339 246 300 292 z "},"Œ":{"ha":1556,"x_min":33,"x_max":1500,"o":"m 1500 689 l 1144 689 l 1144 578 l 1433 578 l 1433 356 l 1144 356 l 1144 244 l 1500 244 l 1500 0 l 878 0 l 878 96 q 544 -22 735 -22 q 183 121 333 -22 q 33 467 33 264 q 183 813 33 669 q 544 956 333 956 q 878 838 735 956 l 878 933 l 1500 933 l 1500 689 m 372 294 q 407 258 372 294 q 544 222 443 222 q 717 294 646 222 q 789 467 789 365 q 717 640 789 568 q 544 711 646 711 q 372 640 443 711 q 300 467 300 568 q 372 294 300 365 z "},"œ":{"ha":1333,"x_min":33,"x_max":1300,"o":"m 1300 356 q 1294 289 1300 333 l 842 289 q 894 224 850 247 q 1003 200 939 200 q 1099 211 1053 200 q 1165 233 1144 222 l 1186 244 l 1254 44 q 1222 26 1243 38 q 1128 -3 1200 15 q 978 -22 1056 -22 q 693 64 799 -22 q 433 -22 588 -22 q 142 86 251 -22 q 33 356 33 194 q 142 625 33 517 q 433 733 250 733 q 689 651 582 733 q 944 733 786 733 q 1208 634 1115 733 q 1300 356 1300 535 m 842 422 l 1028 422 q 1003 501 1028 469 q 933 533 979 533 q 867 500 893 533 q 842 422 842 467 m 339 246 q 358 223 339 246 q 433 200 378 200 q 528 246 489 200 q 567 356 567 292 q 528 465 567 419 q 433 511 489 511 q 339 465 378 511 q 300 356 300 419 q 339 246 300 292 z "},"Ŕ":{"ha":933,"x_min":78,"x_max":900,"o":"m 289 1022 l 422 1244 l 689 1244 l 467 1022 l 289 1022 m 671 314 l 900 0 l 589 0 l 396 289 l 344 289 l 344 0 l 78 0 l 78 933 l 500 933 q 766 849 676 933 q 856 622 856 764 q 807 434 856 517 q 671 314 758 351 m 475 511 q 557 536 525 511 q 589 611 589 561 q 557 685 589 660 q 475 711 525 711 l 344 711 l 344 511 l 475 511 z "},"ŕ":{"ha":644,"x_min":78,"x_max":611,"o":"m 156 800 l 289 1022 l 556 1022 l 333 800 l 156 800 m 344 565 q 611 733 411 719 l 611 432 q 500 461 561 463 q 394 411 443 457 q 344 290 344 365 l 344 0 l 78 0 l 78 711 l 344 711 l 344 565 z "},"Ŗ":{"ha":933,"x_min":78,"x_max":900,"o":"m 671 314 l 900 0 l 589 0 l 396 289 l 344 289 l 344 0 l 78 0 l 78 933 l 500 933 q 766 849 676 933 q 856 622 856 764 q 807 434 856 517 q 671 314 758 351 m 475 511 q 557 536 525 511 q 589 611 589 561 q 557 685 589 660 q 475 711 525 711 l 344 711 l 344 511 l 475 511 m 300 -311 l 344 -89 l 544 -89 l 433 -311 l 300 -311 z "},"ŗ":{"ha":644,"x_min":78,"x_max":611,"o":"m 344 565 q 611 733 411 719 l 611 432 q 500 461 561 463 q 394 411 443 457 q 344 290 344 365 l 344 0 l 78 0 l 78 711 l 344 711 l 344 565 m 78 -311 l 122 -89 l 322 -89 l 211 -311 l 78 -311 z "},"Ř":{"ha":933,"x_min":78,"x_max":900,"o":"m 478 1244 l 700 1244 l 478 1022 l 344 1022 l 122 1244 l 344 1244 l 411 1133 l 478 1244 m 671 314 l 900 0 l 589 0 l 396 289 l 344 289 l 344 0 l 78 0 l 78 933 l 500 933 q 766 849 676 933 q 856 622 856 764 q 807 434 856 517 q 671 314 758 351 m 475 511 q 557 536 525 511 q 589 611 589 561 q 557 685 589 660 q 475 711 525 711 l 344 711 l 344 511 l 475 511 z "},"ř":{"ha":644,"x_min":22,"x_max":611,"o":"m 378 1022 l 600 1022 l 378 800 l 244 800 l 22 1022 l 244 1022 l 311 911 l 378 1022 m 344 565 q 611 733 411 719 l 611 432 q 500 461 561 463 q 394 411 443 457 q 344 290 344 365 l 344 0 l 78 0 l 78 711 l 344 711 l 344 565 z "},"Ś":{"ha":889,"x_min":33,"x_max":856,"o":"m 322 1022 l 456 1244 l 722 1244 l 500 1022 l 322 1022 m 444 610 q 559 592 511 601 q 667 560 607 582 q 765 507 728 538 q 829 424 803 476 q 856 304 856 372 q 751 68 856 158 q 433 -22 647 -22 q 297 -8 364 -22 q 185 27 231 7 q 103 67 139 47 q 50 103 68 88 l 33 117 l 132 329 q 269 255 193 282 q 389 225 344 228 l 433 222 q 589 279 589 217 q 555 319 589 307 q 418 347 521 331 q 56 653 56 404 q 158 870 56 785 q 458 956 261 956 q 524 953 483 956 q 660 922 565 950 q 811 844 756 894 l 706 644 q 676 663 696 651 q 587 692 657 674 q 433 711 517 711 q 322 667 322 711 q 347 631 322 643 q 444 610 372 619 z "},"ś":{"ha":778,"x_min":33,"x_max":744,"o":"m 267 800 l 400 1022 l 667 1022 l 444 800 l 267 800 m 415 472 q 551 450 499 463 q 651 412 603 438 q 722 342 700 386 q 744 231 744 297 q 656 46 744 114 q 379 -22 567 -22 q 194 3 281 -22 q 71 53 108 28 l 33 78 l 100 267 q 203 217 143 238 q 303 192 264 197 l 340 186 q 478 206 478 171 q 458 228 478 221 q 351 247 438 235 q 56 467 56 289 q 149 660 56 586 q 428 733 243 733 q 700 674 589 732 l 633 483 q 411 531 553 528 q 322 507 322 532 q 372 478 322 485 q 408 474 383 476 l 410 472 l 411 472 l 413 472 l 414 472 l 415 472 z "},"Ş":{"ha":889,"x_min":33,"x_max":856,"o":"m 856 304 q 772 86 856 174 q 515 -18 688 -1 l 469 -67 q 593 -102 542 -58 q 644 -222 644 -146 q 581 -365 644 -308 q 422 -422 518 -422 q 244 -335 294 -422 l 331 -228 q 422 -300 360 -294 q 496 -278 467 -304 q 525 -222 525 -253 q 503 -165 525 -186 q 449 -144 482 -144 q 371 -171 404 -144 l 311 -89 l 381 -19 q 198 22 285 -12 q 72 86 111 56 l 33 117 l 132 329 q 269 255 193 282 q 389 225 344 228 l 433 222 q 589 279 589 217 q 555 319 589 307 q 418 347 521 331 q 56 653 56 404 q 158 870 56 785 q 458 956 261 956 q 524 953 483 956 q 660 922 565 950 q 811 844 756 894 l 706 644 q 676 663 696 651 q 587 692 657 674 q 433 711 517 711 q 322 667 322 711 q 347 631 322 643 q 444 610 372 619 q 559 592 511 601 q 667 560 607 582 q 765 507 728 538 q 829 424 803 476 q 856 304 856 372 z "},"ş":{"ha":778,"x_min":33,"x_max":744,"o":"m 744 231 q 678 65 744 131 q 474 -17 613 -1 l 425 -67 q 549 -102 497 -58 q 600 -222 600 -146 q 537 -365 600 -308 q 378 -422 474 -422 q 200 -335 250 -422 l 286 -228 q 378 -300 315 -294 q 451 -278 422 -304 q 481 -222 481 -253 q 459 -165 481 -186 q 404 -144 438 -144 q 326 -171 360 -144 l 267 -89 l 335 -21 q 174 9 249 -15 q 67 56 99 33 l 33 78 l 100 267 q 203 217 143 238 q 303 192 264 197 l 340 186 q 478 206 478 171 q 458 228 478 221 q 351 247 438 235 q 56 467 56 289 q 149 660 56 586 q 428 733 243 733 q 700 674 589 732 l 633 483 q 411 531 553 528 q 322 507 322 532 q 372 478 322 485 q 408 474 383 476 l 410 472 l 411 472 l 413 472 l 414 472 l 415 472 q 551 450 499 463 q 651 412 603 438 q 722 342 700 386 q 744 231 744 297 z "},"Š":{"ha":889,"x_min":33,"x_max":856,"o":"m 508 1244 l 731 1244 l 508 1022 l 375 1022 l 153 1244 l 375 1244 l 442 1133 l 508 1244 m 444 610 q 559 592 511 601 q 667 560 607 582 q 765 507 728 538 q 829 424 803 476 q 856 304 856 372 q 751 68 856 158 q 433 -22 647 -22 q 297 -8 364 -22 q 185 27 231 7 q 103 67 139 47 q 50 103 68 88 l 33 117 l 132 329 q 269 255 193 282 q 389 225 344 228 l 433 222 q 589 279 589 217 q 555 319 589 307 q 418 347 521 331 q 56 653 56 404 q 158 870 56 785 q 458 956 261 956 q 524 953 483 956 q 660 922 565 950 q 811 844 756 894 l 706 644 q 676 663 696 651 q 587 692 657 674 q 433 711 517 711 q 322 667 322 711 q 347 631 322 643 q 444 610 372 619 z "},"š":{"ha":778,"x_min":33,"x_max":744,"o":"m 456 1022 l 678 1022 l 456 800 l 322 800 l 100 1022 l 322 1022 l 389 911 l 456 1022 m 415 472 q 551 450 499 463 q 651 412 603 438 q 722 342 700 386 q 744 231 744 297 q 656 46 744 114 q 379 -22 567 -22 q 194 3 281 -22 q 71 53 108 28 l 33 78 l 100 267 q 203 217 143 238 q 303 192 264 197 l 340 186 q 478 206 478 171 q 458 228 478 221 q 351 247 438 235 q 56 467 56 289 q 149 660 56 586 q 428 733 243 733 q 700 674 589 732 l 633 483 q 411 531 553 528 q 322 507 322 532 q 372 478 322 485 q 408 474 383 476 l 410 472 l 411 472 l 413 472 l 414 472 l 415 472 z "},"Ţ":{"ha":822,"x_min":33,"x_max":789,"o":"m 544 0 l 490 0 l 428 -67 q 551 -102 500 -58 q 603 -222 603 -146 q 540 -365 603 -308 q 381 -422 476 -422 q 203 -335 253 -422 l 289 -228 q 381 -300 318 -294 q 454 -278 425 -304 q 483 -222 483 -253 q 462 -165 483 -186 q 407 -144 440 -144 q 329 -171 363 -144 l 269 -89 l 356 0 l 278 0 l 278 689 l 33 689 l 33 933 l 789 933 l 789 689 l 544 689 l 544 0 z "},"ţ":{"ha":578,"x_min":33,"x_max":522,"o":"m 522 489 l 389 489 l 389 311 q 413 208 389 232 q 522 200 438 185 l 522 0 q 368 -22 457 -21 l 325 -67 q 449 -102 397 -58 q 500 -222 500 -146 q 437 -365 500 -308 q 278 -422 374 -422 q 100 -335 150 -422 l 186 -228 q 278 -300 215 -294 q 351 -278 322 -304 q 381 -222 381 -253 q 359 -165 381 -186 q 304 -144 338 -144 q 226 -171 260 -144 l 167 -89 l 246 -10 q 152 69 181 13 q 122 218 124 125 l 122 489 l 33 489 l 33 711 l 122 711 l 122 933 l 389 933 l 389 711 l 522 711 l 522 489 z "},"Ť":{"ha":822,"x_min":33,"x_max":789,"o":"m 478 1244 l 700 1244 l 478 1022 l 344 1022 l 122 1244 l 344 1244 l 411 1133 l 478 1244 m 33 933 l 789 933 l 789 689 l 544 689 l 544 0 l 278 0 l 278 689 l 33 689 l 33 933 z "},"ť":{"ha":844,"x_min":33,"x_max":811,"o":"m 522 489 l 389 489 l 389 311 q 413 208 389 232 q 522 200 438 185 l 522 0 q 344 -22 450 -22 q 174 37 224 -22 q 122 218 124 96 l 122 489 l 33 489 l 33 711 l 122 711 l 122 933 l 389 933 l 389 711 l 522 711 l 522 489 m 567 711 l 611 933 l 811 933 l 700 711 l 567 711 z "},"Ŧ":{"ha":822,"x_min":33,"x_max":789,"o":"m 789 689 l 544 689 l 544 500 l 633 500 l 633 367 l 544 367 l 544 0 l 278 0 l 278 367 l 189 367 l 189 500 l 278 500 l 278 689 l 33 689 l 33 933 l 789 933 l 789 689 z "},"ŧ":{"ha":578,"x_min":33,"x_max":522,"o":"m 522 489 l 389 489 l 389 444 l 522 444 l 522 311 l 389 311 q 413 208 389 232 q 522 200 438 185 l 522 0 q 344 -22 450 -22 q 174 37 224 -22 q 122 218 124 96 l 122 311 l 33 311 l 33 444 l 122 444 l 122 489 l 33 489 l 33 711 l 122 711 l 122 933 l 389 933 l 389 711 l 522 711 l 522 489 z "},"Ū":{"ha":1000,"x_min":56,"x_max":944,"o":"m 722 1044 l 278 1044 l 278 1178 l 722 1178 l 722 1044 m 656 933 l 944 933 l 944 400 q 825 95 944 213 q 500 -22 706 -22 q 175 95 294 -22 q 56 400 56 213 l 56 933 l 344 933 l 344 397 q 390 268 344 314 q 500 222 436 222 q 610 268 564 222 q 656 397 656 314 l 656 933 z "},"ū":{"ha":867,"x_min":56,"x_max":789,"o":"m 653 822 l 208 822 l 208 956 l 653 956 l 653 822 m 322 -22 q 133 59 210 -22 q 56 289 56 140 l 56 711 l 322 711 l 322 333 q 351 249 322 275 q 422 222 381 222 q 492 250 463 222 q 522 333 522 278 l 522 711 l 789 711 l 789 0 l 522 0 l 522 89 q 439 6 493 35 q 322 -22 385 -22 z "},"Ů":{"ha":1000,"x_min":56,"x_max":944,"o":"m 374 1281 q 400 1307 374 1281 q 500 1333 426 1333 q 626 1281 574 1333 q 678 1156 678 1229 q 626 1030 678 1082 q 500 978 574 978 q 374 1030 426 978 q 322 1156 322 1082 q 374 1281 322 1229 m 453 1108 q 463 1099 453 1108 q 500 1089 472 1089 q 547 1108 528 1089 q 567 1156 567 1128 q 547 1203 567 1183 q 500 1222 528 1222 q 453 1203 472 1222 q 433 1156 433 1183 q 453 1108 433 1128 m 656 933 l 944 933 l 944 400 q 825 95 944 213 q 500 -22 706 -22 q 175 95 294 -22 q 56 400 56 213 l 56 933 l 344 933 l 344 397 q 390 268 344 314 q 500 222 436 222 q 610 268 564 222 q 656 397 656 314 l 656 933 z "},"ů":{"ha":867,"x_min":56,"x_max":789,"o":"m 308 1059 q 334 1085 308 1059 q 433 1111 360 1111 q 559 1059 507 1111 q 611 933 611 1007 q 559 808 611 860 q 433 756 507 756 q 308 808 360 756 q 256 933 256 860 q 308 1059 256 1007 m 386 886 q 396 876 386 886 q 433 867 406 867 q 481 886 461 867 q 500 933 500 906 q 481 981 500 961 q 433 1000 461 1000 q 386 981 406 1000 q 367 933 367 961 q 386 886 367 906 m 322 -22 q 133 59 210 -22 q 56 289 56 140 l 56 711 l 322 711 l 322 333 q 351 249 322 275 q 422 222 381 222 q 492 250 463 222 q 522 333 522 278 l 522 711 l 789 711 l 789 0 l 522 0 l 522 89 q 439 6 493 35 q 322 -22 385 -22 z "},"Ű":{"ha":1000,"x_min":56,"x_max":944,"o":"m 256 1022 l 300 1244 l 500 1244 l 389 1022 l 256 1022 m 589 1022 l 633 1244 l 833 1244 l 722 1022 l 589 1022 m 656 933 l 944 933 l 944 400 q 825 95 944 213 q 500 -22 706 -22 q 175 95 294 -22 q 56 400 56 213 l 56 933 l 344 933 l 344 397 q 390 268 344 314 q 500 222 436 222 q 610 268 564 222 q 656 397 656 314 l 656 933 z "},"ű":{"ha":867,"x_min":56,"x_max":789,"o":"m 167 800 l 211 1022 l 411 1022 l 300 800 l 167 800 m 500 800 l 544 1022 l 744 1022 l 633 800 l 500 800 m 322 -22 q 133 59 210 -22 q 56 289 56 140 l 56 711 l 322 711 l 322 333 q 351 249 322 275 q 422 222 381 222 q 492 250 463 222 q 522 333 522 278 l 522 711 l 789 711 l 789 0 l 522 0 l 522 89 q 439 6 493 35 q 322 -22 385 -22 z "},"Ų":{"ha":1000,"x_min":56,"x_max":944,"o":"m 656 933 l 944 933 l 944 400 q 851 125 944 238 q 596 -15 758 13 q 528 -103 528 -32 q 578 -167 528 -153 q 679 -156 629 -181 l 701 -267 q 590 -289 638 -289 q 460 -240 507 -289 q 413 -111 413 -190 q 440 -19 413 -61 q 158 113 261 -1 q 56 400 56 226 l 56 933 l 344 933 l 344 397 q 390 268 344 314 q 500 222 436 222 q 610 268 564 222 q 656 397 656 314 l 656 933 z "},"ų":{"ha":867,"x_min":56,"x_max":789,"o":"m 722 0 q 634 -24 675 0 q 593 -103 593 -49 q 644 -167 593 -153 q 744 -156 694 -181 l 767 -267 q 656 -289 703 -289 q 525 -240 572 -289 q 478 -111 478 -190 q 491 -49 478 -82 q 522 0 504 -15 l 522 89 q 439 6 493 35 q 322 -22 385 -22 q 133 59 210 -22 q 56 289 56 140 l 56 711 l 322 711 l 322 333 q 351 249 322 275 q 422 222 381 222 q 492 250 463 222 q 522 333 522 278 l 522 711 l 789 711 l 789 0 l 722 0 z "},"Ŵ":{"ha":1422,"x_min":0,"x_max":1422,"o":"m 778 1022 l 711 1133 l 644 1022 l 422 1022 l 644 1244 l 778 1244 l 1000 1022 l 778 1022 m 833 933 l 967 378 l 1122 933 l 1422 933 l 1111 0 l 833 0 l 711 444 l 589 0 l 311 0 l 0 933 l 300 933 l 456 378 l 589 933 l 833 933 z "},"ŵ":{"ha":1156,"x_min":0,"x_max":1156,"o":"m 644 800 l 578 911 l 511 800 l 289 800 l 511 1022 l 644 1022 l 867 800 l 644 800 m 889 711 l 1156 711 l 911 0 l 689 0 l 578 344 l 467 0 l 244 0 l 0 711 l 267 711 l 361 344 l 472 711 l 683 711 l 794 344 l 889 711 z "},"Ŷ":{"ha":956,"x_min":-11,"x_max":967,"o":"m 544 1022 l 478 1133 l 411 1022 l 189 1022 l 411 1244 l 544 1244 l 767 1022 l 544 1022 m 656 933 l 967 933 l 611 378 l 611 0 l 344 0 l 344 378 l -11 933 l 300 933 l 478 644 l 656 933 z "},"ŷ":{"ha":778,"x_min":-11,"x_max":789,"o":"m 456 800 l 389 911 l 322 800 l 100 800 l 322 1022 l 456 1022 l 678 800 l 456 800 m 367 -356 l 100 -356 l 256 22 l -11 711 l 256 711 l 389 333 l 522 711 l 789 711 l 367 -356 z "},"Ÿ":{"ha":956,"x_min":-11,"x_max":967,"o":"m 401 1055 q 384 1039 401 1055 q 322 1022 368 1022 q 244 1055 276 1022 q 211 1133 211 1088 q 244 1212 211 1179 q 322 1244 276 1244 q 401 1212 368 1244 q 433 1133 433 1179 q 401 1055 433 1088 m 712 1055 q 695 1039 712 1055 q 633 1022 679 1022 q 555 1055 588 1022 q 522 1133 522 1088 q 555 1212 522 1179 q 633 1244 588 1244 q 712 1212 679 1244 q 744 1133 744 1179 q 712 1055 744 1088 m 656 933 l 967 933 l 611 378 l 611 0 l 344 0 l 344 378 l -11 933 l 300 933 l 478 644 l 656 933 z "},"Ź":{"ha":889,"x_min":33,"x_max":856,"o":"m 311 1022 l 444 1244 l 711 1244 l 489 1022 l 311 1022 m 833 0 l 33 0 l 422 689 l 56 689 l 56 933 l 856 933 l 467 244 l 833 244 l 833 0 z "},"ź":{"ha":778,"x_min":33,"x_max":744,"o":"m 256 800 l 389 1022 l 656 1022 l 433 800 l 256 800 m 722 0 l 33 0 l 344 489 l 56 489 l 56 711 l 744 711 l 433 222 l 722 222 l 722 0 z "},"Ż":{"ha":889,"x_min":33,"x_max":856,"o":"m 539 1039 q 519 1019 539 1039 q 444 1000 500 1000 q 350 1039 389 1000 q 311 1133 311 1078 q 350 1228 311 1189 q 444 1267 389 1267 q 539 1228 500 1267 q 578 1133 578 1189 q 539 1039 578 1078 m 833 0 l 33 0 l 422 689 l 56 689 l 56 933 l 856 933 l 467 244 l 833 244 l 833 0 z "},"ż":{"ha":778,"x_min":33,"x_max":744,"o":"m 483 817 q 464 797 483 817 q 389 778 444 778 q 294 817 333 778 q 256 911 256 856 q 294 1006 256 967 q 389 1044 333 1044 q 483 1006 444 1044 q 522 911 522 967 q 483 817 522 856 m 722 0 l 33 0 l 344 489 l 56 489 l 56 711 l 744 711 l 433 222 l 722 222 l 722 0 z "},"Ž":{"ha":889,"x_min":33,"x_max":856,"o":"m 511 1244 l 733 1244 l 511 1022 l 378 1022 l 156 1244 l 378 1244 l 444 1133 l 511 1244 m 833 0 l 33 0 l 422 689 l 56 689 l 56 933 l 856 933 l 467 244 l 833 244 l 833 0 z "},"ž":{"ha":778,"x_min":33,"x_max":744,"o":"m 456 1022 l 678 1022 l 456 800 l 322 800 l 100 1022 l 322 1022 l 389 911 l 456 1022 m 722 0 l 33 0 l 344 489 l 56 489 l 56 711 l 744 711 l 433 222 l 722 222 l 722 0 z "},"Ǻ":{"ha":1000,"x_min":-11,"x_max":1011,"o":"m 367 1378 l 500 1600 l 767 1600 l 544 1378 l 367 1378 m 374 1281 q 400 1307 374 1281 q 500 1333 426 1333 q 626 1281 574 1333 q 678 1156 678 1229 q 626 1030 678 1082 q 500 978 574 978 q 374 1030 426 978 q 322 1156 322 1082 q 374 1281 322 1229 m 453 1108 q 463 1099 453 1108 q 500 1089 472 1089 q 547 1108 528 1089 q 567 1156 567 1128 q 547 1203 567 1183 q 500 1222 528 1222 q 453 1203 472 1222 q 433 1156 433 1183 q 453 1108 433 1128 m 625 933 l 1011 0 l 740 0 l 681 156 l 319 156 l 260 0 l -11 0 l 375 933 l 625 933 m 397 356 l 603 356 l 500 622 l 397 356 z "},"ǻ":{"ha":911,"x_min":33,"x_max":833,"o":"m 367 1156 l 500 1378 l 767 1378 l 544 1156 l 367 1156 m 352 1059 q 378 1085 352 1059 q 478 1111 404 1111 q 603 1059 551 1111 q 656 933 656 1007 q 603 808 656 860 q 478 756 551 756 q 352 808 404 756 q 300 933 300 860 q 352 1059 300 1007 m 431 886 q 440 876 431 886 q 478 867 450 867 q 525 886 506 867 q 544 933 544 906 q 525 981 544 961 q 478 1000 506 1000 q 431 981 450 1000 q 411 933 411 961 q 431 886 411 906 m 567 711 l 833 711 l 833 0 l 567 0 l 567 72 q 367 -22 488 -22 q 131 88 228 -22 q 33 356 33 199 q 131 623 33 513 q 367 733 228 733 q 567 639 488 733 l 567 711 m 339 246 q 358 223 339 246 q 433 200 378 200 q 528 246 489 200 q 567 356 567 292 q 528 465 567 419 q 433 511 489 511 q 339 465 378 511 q 300 356 300 419 q 339 246 300 292 z "},"Ǽ":{"ha":1200,"x_min":-11,"x_max":1144,"o":"m 500 1022 l 633 1244 l 900 1244 l 678 1022 l 500 1022 m 1144 689 l 789 689 l 789 578 l 1078 578 l 1078 356 l 789 356 l 789 244 l 1144 244 l 1144 0 l 522 0 l 522 156 l 324 156 l 260 0 l -11 0 l 397 933 l 1144 933 l 1144 689 m 404 356 l 522 356 l 522 644 l 404 356 z "},"ǽ":{"ha":1267,"x_min":33,"x_max":1233,"o":"m 500 800 l 633 1022 l 900 1022 l 678 800 l 500 800 m 1233 356 q 1228 289 1233 333 l 775 289 q 828 224 783 247 q 936 200 872 200 q 1032 211 986 200 q 1099 233 1078 222 l 1119 244 l 1188 44 q 1155 26 1176 38 q 1061 -3 1133 15 q 911 -22 989 -22 q 749 0 824 -22 l 478 0 l 478 46 q 410 -3 461 15 q 300 -22 360 -22 q 108 49 183 -22 q 33 222 33 119 q 38 258 33 239 q 53 310 42 278 q 94 372 64 342 q 167 422 124 401 q 478 444 300 483 q 442 517 476 494 q 358 538 407 540 q 261 524 310 535 q 178 501 213 514 l 144 489 l 78 644 q 92 654 82 649 q 134 675 101 660 q 205 702 167 690 q 305 724 243 714 q 433 733 367 733 q 653 674 586 733 q 878 733 746 733 q 1141 634 1049 733 q 1233 356 1233 535 m 775 422 l 961 422 q 937 501 961 469 q 867 533 913 533 q 801 500 826 533 q 775 422 775 467 m 478 222 l 478 333 l 456 333 q 339 304 378 333 q 300 231 300 275 q 325 159 300 185 q 393 133 350 133 q 455 158 432 133 q 478 222 478 182 z "},"Ș":{"ha":889,"x_min":33,"x_max":856,"o":"m 444 610 q 559 592 511 601 q 667 560 607 582 q 765 507 728 538 q 829 424 803 476 q 856 304 856 372 q 751 68 856 158 q 433 -22 647 -22 q 297 -8 364 -22 q 185 27 231 7 q 103 67 139 47 q 50 103 68 88 l 33 117 l 132 329 q 269 255 193 282 q 389 225 344 228 l 433 222 q 589 279 589 217 q 555 319 589 307 q 418 347 521 331 q 56 653 56 404 q 158 870 56 785 q 458 956 261 956 q 524 953 483 956 q 660 922 565 950 q 811 844 756 894 l 706 644 q 676 663 696 651 q 587 692 657 674 q 433 711 517 711 q 322 667 322 711 q 347 631 322 643 q 444 610 372 619 m 300 -311 l 344 -89 l 544 -89 l 433 -311 l 300 -311 z "},"ș":{"ha":778,"x_min":33,"x_max":744,"o":"m 415 472 q 551 450 499 463 q 651 412 603 438 q 722 342 700 386 q 744 231 744 297 q 656 46 744 114 q 379 -22 567 -22 q 194 3 281 -22 q 71 53 108 28 l 33 78 l 100 267 q 203 217 143 238 q 303 192 264 197 l 340 186 q 478 206 478 171 q 458 228 478 221 q 351 247 438 235 q 56 467 56 289 q 149 660 56 586 q 428 733 243 733 q 700 674 589 732 l 633 483 q 411 531 553 528 q 322 507 322 532 q 372 478 322 485 q 408 474 383 476 l 410 472 l 411 472 l 413 472 l 414 472 l 415 472 m 256 -311 l 300 -89 l 500 -89 l 389 -311 l 256 -311 z "},"Ț":{"ha":822,"x_min":33,"x_max":789,"o":"m 33 933 l 789 933 l 789 689 l 544 689 l 544 0 l 278 0 l 278 689 l 33 689 l 33 933 m 278 -311 l 322 -89 l 522 -89 l 411 -311 l 278 -311 z "},"ț":{"ha":578,"x_min":33,"x_max":522,"o":"m 522 489 l 389 489 l 389 311 q 413 208 389 232 q 522 200 438 185 l 522 0 q 344 -22 450 -22 q 174 37 224 -22 q 122 218 124 96 l 122 489 l 33 489 l 33 711 l 122 711 l 122 933 l 389 933 l 389 711 l 522 711 l 522 489 m 144 -311 l 189 -89 l 389 -89 l 278 -311 l 144 -311 z "},"ˆ":{"ha":1089,"x_min":256,"x_max":833,"o":"m 611 1022 l 544 1133 l 478 1022 l 256 1022 l 478 1244 l 611 1244 l 833 1022 l 611 1022 z "},"ˇ":{"ha":1089,"x_min":256,"x_max":833,"o":"m 611 1244 l 833 1244 l 611 1022 l 478 1022 l 256 1244 l 478 1244 l 544 1133 l 611 1244 z "},"˘":{"ha":1089,"x_min":322,"x_max":767,"o":"m 633 1244 l 767 1244 q 701 1088 767 1153 q 544 1022 636 1022 q 388 1088 453 1022 q 322 1244 322 1153 l 456 1244 q 482 1182 456 1208 q 544 1156 508 1156 q 607 1182 581 1156 q 633 1244 633 1208 z "},"˙":{"ha":1089,"x_min":411,"x_max":678,"o":"m 639 1039 q 619 1019 639 1039 q 544 1000 600 1000 q 450 1039 489 1000 q 411 1133 411 1078 q 450 1228 411 1189 q 544 1267 489 1267 q 639 1228 600 1267 q 678 1133 678 1189 q 639 1039 678 1078 z "},"˚":{"ha":1089,"x_min":367,"x_max":722,"o":"m 419 1281 q 445 1307 419 1281 q 544 1333 471 1333 q 670 1281 618 1333 q 722 1156 722 1229 q 670 1030 722 1082 q 544 978 618 978 q 419 1030 471 978 q 367 1156 367 1082 q 419 1281 367 1229 m 497 1108 q 507 1099 497 1108 q 544 1089 517 1089 q 592 1108 572 1089 q 611 1156 611 1128 q 592 1203 611 1183 q 544 1222 572 1222 q 497 1203 517 1222 q 478 1156 478 1183 q 497 1108 478 1128 z "},"˛":{"ha":1089,"x_min":419,"x_max":708,"o":"m 464 0 l 664 0 q 576 -24 617 0 q 535 -103 535 -49 q 585 -167 535 -153 q 686 -156 636 -181 l 708 -267 q 597 -289 644 -289 q 467 -240 514 -289 q 419 -111 419 -190 q 433 -49 419 -82 q 464 0 446 -15 z "},"˜":{"ha":1089,"x_min":244,"x_max":844,"o":"m 722 1200 l 844 1158 q 667 1022 781 1022 q 544 1050 611 1022 q 436 1080 479 1083 q 367 1022 393 1076 l 244 1064 q 422 1200 308 1200 q 544 1171 474 1200 q 653 1142 611 1139 q 722 1200 696 1146 z "},"˝":{"ha":1089,"x_min":278,"x_max":856,"o":"m 278 1022 l 322 1244 l 522 1244 l 411 1022 l 278 1022 m 611 1022 l 656 1244 l 856 1244 l 744 1022 l 611 1022 z "},"Ά":{"ha":1022,"x_min":11,"x_max":1033,"o":"m 647 933 l 1033 0 l 763 0 l 703 156 l 342 156 l 282 0 l 11 0 l 397 933 l 647 933 m 33 711 l 78 933 l 278 933 l 167 711 l 33 711 m 419 356 l 625 356 l 522 622 l 419 356 z "},"Έ":{"ha":1000,"x_min":33,"x_max":944,"o":"m 33 711 l 78 933 l 278 933 l 167 711 l 33 711 m 944 689 l 589 689 l 589 578 l 878 578 l 878 356 l 589 356 l 589 244 l 944 244 l 944 0 l 322 0 l 322 933 l 944 933 l 944 689 z "},"Ή":{"ha":1244,"x_min":33,"x_max":1167,"o":"m 33 711 l 78 933 l 278 933 l 167 711 l 33 711 m 900 933 l 1167 933 l 1167 0 l 900 0 l 900 344 l 589 344 l 589 0 l 322 0 l 322 933 l 589 933 l 589 589 l 900 589 l 900 933 z "},"Ί":{"ha":667,"x_min":33,"x_max":589,"o":"m 33 711 l 78 933 l 278 933 l 167 711 l 33 711 m 589 0 l 322 0 l 322 933 l 589 933 l 589 0 z "},"Ό":{"ha":1244,"x_min":33,"x_max":1211,"o":"m 339 813 q 414 884 339 813 q 700 956 489 956 q 1061 813 911 956 q 1211 467 1211 669 q 1061 121 1211 264 q 700 -22 911 -22 q 339 121 489 -22 q 189 467 189 264 q 339 813 189 669 m 33 711 l 78 933 l 278 933 l 167 711 l 33 711 m 527 294 q 563 258 527 294 q 700 222 599 222 q 873 294 801 222 q 944 467 944 365 q 873 640 944 568 q 700 711 801 711 q 527 640 599 711 q 456 467 456 568 q 527 294 456 365 z "},"Ύ":{"ha":1289,"x_min":33,"x_max":1300,"o":"m 33 711 l 78 933 l 278 933 l 167 711 l 33 711 m 989 933 l 1300 933 l 944 378 l 944 0 l 678 0 l 678 378 l 322 933 l 633 933 l 811 644 l 989 933 z "},"Ώ":{"ha":1289,"x_min":33,"x_max":1233,"o":"m 1233 533 q 1197 367 1233 444 q 1093 244 1160 290 l 1233 244 l 1233 0 l 767 0 l 767 267 q 913 348 858 292 q 967 489 967 404 q 895 647 967 582 q 722 711 824 711 q 549 647 621 711 q 478 489 478 582 q 532 348 478 404 q 678 267 586 292 l 678 0 l 211 0 l 211 244 l 351 244 q 248 367 285 290 q 211 533 211 444 q 356 837 211 718 q 722 956 501 956 q 1088 837 943 956 q 1233 533 1233 718 m 33 711 l 78 933 l 278 933 l 167 711 l 33 711 z "},"ΐ":{"ha":467,"x_min":-144,"x_max":589,"o":"m 45 833 q 29 816 45 833 q -33 800 13 800 q -112 833 -79 800 q -144 911 -144 865 q -112 990 -144 957 q -33 1022 -79 1022 q 45 990 13 1022 q 78 911 78 957 q 45 833 78 865 m 111 800 l 156 1022 l 356 1022 l 244 800 l 111 800 m 556 833 q 540 816 556 833 q 478 800 524 800 q 399 833 432 800 q 367 911 367 865 q 399 990 367 957 q 478 1022 432 1022 q 556 990 524 1022 q 589 911 589 957 q 556 833 589 865 m 344 711 l 344 289 q 363 209 344 228 q 433 200 382 190 l 433 0 q 286 -22 369 -22 q 78 240 78 -22 l 78 711 l 344 711 z "},"Α":{"ha":1000,"x_min":-11,"x_max":1011,"o":"m 625 933 l 1011 0 l 740 0 l 681 156 l 319 156 l 260 0 l -11 0 l 375 933 l 625 933 m 397 356 l 603 356 l 500 622 l 397 356 z "},"Β":{"ha":911,"x_min":78,"x_max":878,"o":"m 721 501 q 840 422 803 483 q 878 281 878 360 q 792 78 878 157 q 558 0 706 0 l 78 0 l 78 933 l 478 933 q 738 870 642 933 q 833 689 833 807 q 802 570 833 621 q 721 501 771 519 m 344 733 l 344 578 l 456 578 q 567 656 567 578 q 456 733 567 733 l 344 733 m 478 200 q 611 289 611 200 q 478 378 611 378 l 344 378 l 344 200 l 478 200 z "},"Γ":{"ha":733,"x_min":78,"x_max":700,"o":"m 344 689 l 344 0 l 78 0 l 78 933 l 700 933 l 700 689 l 344 689 z "},"Δ":{"ha":1000,"x_min":-11,"x_max":1011,"o":"m 625 933 l 1011 0 l -11 0 l 375 933 l 625 933 m 354 244 l 646 244 l 500 622 l 354 244 z "},"Ε":{"ha":756,"x_min":78,"x_max":700,"o":"m 700 689 l 344 689 l 344 578 l 633 578 l 633 356 l 344 356 l 344 244 l 700 244 l 700 0 l 78 0 l 78 933 l 700 933 l 700 689 z "},"Ζ":{"ha":889,"x_min":33,"x_max":856,"o":"m 833 0 l 33 0 l 422 689 l 56 689 l 56 933 l 856 933 l 467 244 l 833 244 l 833 0 z "},"Η":{"ha":1000,"x_min":78,"x_max":922,"o":"m 656 933 l 922 933 l 922 0 l 656 0 l 656 344 l 344 344 l 344 0 l 78 0 l 78 933 l 344 933 l 344 589 l 656 589 l 656 933 z "},"Θ":{"ha":1089,"x_min":33,"x_max":1056,"o":"m 183 813 q 258 884 183 813 q 544 956 333 956 q 906 813 756 956 q 1056 467 1056 669 q 906 121 1056 264 q 544 -22 756 -22 q 183 121 333 -22 q 33 467 33 264 q 183 813 33 669 m 372 294 q 407 258 372 294 q 544 222 443 222 q 717 294 646 222 q 789 467 789 365 q 717 640 789 568 q 544 711 646 711 q 372 640 443 711 q 300 467 300 568 q 372 294 300 365 m 367 400 l 367 533 l 722 533 l 722 400 l 367 400 z "},"Ι":{"ha":422,"x_min":78,"x_max":344,"o":"m 344 0 l 78 0 l 78 933 l 344 933 l 344 0 z "},"Κ":{"ha":978,"x_min":78,"x_max":967,"o":"m 589 489 l 967 0 l 633 0 l 344 400 l 344 0 l 78 0 l 78 933 l 344 933 l 344 578 l 611 933 l 944 933 l 589 489 z "},"Λ":{"ha":1000,"x_min":-11,"x_max":1011,"o":"m 625 933 l 1011 0 l 740 0 l 500 622 l 260 0 l -11 0 l 375 933 l 625 933 z "},"Μ":{"ha":1222,"x_min":33,"x_max":1189,"o":"m 1100 933 l 1189 0 l 922 0 l 878 489 l 722 0 l 500 0 l 344 489 l 300 0 l 33 0 l 122 933 l 389 933 l 611 378 l 833 933 l 1100 933 z "},"Ν":{"ha":1044,"x_min":78,"x_max":967,"o":"m 700 933 l 967 933 l 967 0 l 700 0 l 344 511 l 344 0 l 78 0 l 78 933 l 344 933 l 700 422 l 700 933 z "},"Ξ":{"ha":822,"x_min":56,"x_max":767,"o":"m 56 689 l 56 933 l 767 933 l 767 689 l 56 689 m 122 356 l 122 578 l 700 578 l 700 356 l 122 356 m 56 0 l 56 244 l 767 244 l 767 0 l 56 0 z "},"Ο":{"ha":1089,"x_min":33,"x_max":1056,"o":"m 183 813 q 258 884 183 813 q 544 956 333 956 q 906 813 756 956 q 1056 467 1056 669 q 906 121 1056 264 q 544 -22 756 -22 q 183 121 333 -22 q 33 467 33 264 q 183 813 33 669 m 372 294 q 407 258 372 294 q 544 222 443 222 q 717 294 646 222 q 789 467 789 365 q 717 640 789 568 q 544 711 646 711 q 372 640 443 711 q 300 467 300 568 q 372 294 300 365 z "},"Π":{"ha":1000,"x_min":78,"x_max":922,"o":"m 922 933 l 922 0 l 656 0 l 656 689 l 344 689 l 344 0 l 78 0 l 78 933 l 922 933 z "},"Ρ":{"ha":889,"x_min":78,"x_max":856,"o":"m 500 933 q 766 849 676 933 q 856 622 856 764 q 772 385 856 481 q 544 289 688 289 l 344 289 l 344 0 l 78 0 l 78 933 l 500 933 m 475 511 q 557 536 525 511 q 589 611 589 561 q 557 685 589 660 q 475 711 525 711 l 344 711 l 344 511 l 475 511 z "},"Σ":{"ha":889,"x_min":78,"x_max":811,"o":"m 425 689 l 633 467 l 425 244 l 811 244 l 811 0 l 78 0 l 78 244 l 300 467 l 78 689 l 78 933 l 811 933 l 811 689 l 425 689 z "},"Τ":{"ha":822,"x_min":33,"x_max":789,"o":"m 33 933 l 789 933 l 789 689 l 544 689 l 544 0 l 278 0 l 278 689 l 33 689 l 33 933 z "},"Υ":{"ha":956,"x_min":-11,"x_max":967,"o":"m 656 933 l 967 933 l 611 378 l 611 0 l 344 0 l 344 378 l -11 933 l 300 933 l 478 644 l 656 933 z "},"Φ":{"ha":1133,"x_min":33,"x_max":1100,"o":"m 1100 489 q 988 202 1100 315 q 700 89 876 89 l 700 0 l 433 0 l 433 89 q 145 202 257 89 q 33 489 33 315 q 145 777 33 665 q 433 889 257 889 l 433 978 l 700 978 l 700 889 q 988 777 876 889 q 1100 489 1100 665 m 433 333 l 433 644 q 340 606 381 644 q 300 489 300 567 q 340 372 300 410 q 433 333 381 333 m 700 333 q 793 372 753 333 q 833 489 833 410 q 793 606 833 567 q 700 644 753 644 l 700 333 z "},"Χ":{"ha":1022,"x_min":11,"x_max":1011,"o":"m 694 489 l 1011 0 l 697 0 l 511 294 l 325 0 l 11 0 l 328 489 l 35 933 l 349 933 l 511 672 l 674 933 l 988 933 l 694 489 z "},"Ψ":{"ha":1222,"x_min":78,"x_max":1144,"o":"m 878 933 l 1144 933 l 1144 581 q 1113 394 1144 472 q 1023 270 1082 315 q 898 201 964 225 q 744 167 832 178 l 744 0 l 478 0 l 478 167 q 324 201 390 178 q 199 270 258 225 q 109 394 140 315 q 78 581 78 472 l 78 933 l 344 933 l 344 561 q 478 411 344 421 l 478 933 l 744 933 l 744 411 q 878 561 878 421 l 878 933 z "},"Ω":{"ha":1133,"x_min":56,"x_max":1078,"o":"m 1078 533 q 1041 367 1078 444 q 938 244 1004 290 l 1078 244 l 1078 0 l 611 0 l 611 267 q 757 348 703 292 q 811 489 811 404 q 740 647 811 582 q 567 711 668 711 q 394 647 465 711 q 322 489 322 582 q 376 348 322 404 q 522 267 431 292 l 522 0 l 56 0 l 56 244 l 196 244 q 92 367 129 290 q 56 533 56 444 q 201 837 56 718 q 567 956 346 956 q 933 837 788 956 q 1078 533 1078 718 z "},"Ϊ":{"ha":422,"x_min":-56,"x_max":478,"o":"m 134 1055 q 118 1039 134 1055 q 56 1022 101 1022 q -23 1055 10 1022 q -56 1133 -56 1088 q -23 1212 -56 1179 q 56 1244 10 1244 q 134 1212 101 1244 q 167 1133 167 1179 q 134 1055 167 1088 m 445 1055 q 429 1039 445 1055 q 367 1022 413 1022 q 288 1055 321 1022 q 256 1133 256 1088 q 288 1212 256 1179 q 367 1244 321 1244 q 445 1212 413 1244 q 478 1133 478 1179 q 445 1055 478 1088 m 344 0 l 78 0 l 78 933 l 344 933 l 344 0 z "},"Ϋ":{"ha":956,"x_min":-11,"x_max":967,"o":"m 401 1055 q 384 1039 401 1055 q 322 1022 368 1022 q 244 1055 276 1022 q 211 1133 211 1088 q 244 1212 211 1179 q 322 1244 276 1244 q 401 1212 368 1244 q 433 1133 433 1179 q 401 1055 433 1088 m 712 1055 q 695 1039 712 1055 q 633 1022 679 1022 q 555 1055 588 1022 q 522 1133 522 1088 q 555 1212 522 1179 q 633 1244 588 1244 q 712 1212 679 1244 q 744 1133 744 1179 q 712 1055 744 1088 m 656 933 l 967 933 l 611 378 l 611 0 l 344 0 l 344 378 l -11 933 l 300 933 l 478 644 l 656 933 z "},"ά":{"ha":956,"x_min":33,"x_max":922,"o":"m 400 800 l 444 1022 l 644 1022 l 533 800 l 400 800 m 833 289 q 851 210 833 228 q 922 200 869 192 l 922 0 q 786 -22 849 -22 q 597 90 638 -22 q 367 -22 518 -22 q 131 88 228 -22 q 33 356 33 199 q 131 623 33 513 q 367 733 228 733 q 567 639 488 733 l 567 711 l 833 711 l 833 289 m 339 246 q 358 223 339 246 q 433 200 378 200 q 528 246 489 200 q 567 356 567 292 q 528 465 567 419 q 433 511 489 511 q 339 465 378 511 q 300 356 300 419 q 339 246 300 292 z "},"έ":{"ha":733,"x_min":33,"x_max":700,"o":"m 278 800 l 322 1022 l 522 1022 l 411 800 l 278 800 m 442 211 q 611 250 524 211 l 700 63 q 389 -22 575 -22 q 129 38 225 -22 q 33 208 33 97 q 66 302 33 257 q 149 367 99 347 q 73 427 101 385 q 44 514 44 469 q 382 733 44 733 q 690 647 565 733 l 611 461 q 435 500 511 500 q 300 458 300 500 q 360 424 300 436 q 500 411 419 411 l 499 300 q 359 288 418 300 q 300 253 300 275 q 442 211 300 211 z "},"ή":{"ha":867,"x_min":78,"x_max":811,"o":"m 333 800 l 378 1022 l 578 1022 l 467 800 l 333 800 m 544 733 q 734 652 657 733 q 811 422 811 571 l 811 -356 l 544 -356 l 544 378 q 515 463 544 436 q 444 489 486 489 q 374 461 404 489 q 344 378 344 433 l 344 0 l 78 0 l 78 711 l 344 711 l 344 622 q 428 705 374 676 q 544 733 482 733 z "},"ί":{"ha":467,"x_min":78,"x_max":433,"o":"m 111 800 l 156 1022 l 356 1022 l 244 800 l 111 800 m 344 711 l 344 289 q 363 209 344 228 q 433 200 382 190 l 433 0 q 286 -22 369 -22 q 78 240 78 -22 l 78 711 l 344 711 z "},"ΰ":{"ha":867,"x_min":56,"x_max":811,"o":"m 245 833 q 229 816 245 833 q 167 800 213 800 q 88 833 121 800 q 56 911 56 865 q 88 990 56 957 q 167 1022 121 1022 q 245 990 213 1022 q 278 911 278 957 q 245 833 278 865 m 311 800 l 356 1022 l 556 1022 l 444 800 l 311 800 m 756 833 q 740 816 756 833 q 678 800 724 800 q 599 833 632 800 q 567 911 567 865 q 599 990 567 957 q 678 1022 632 1022 q 756 990 724 1022 q 789 911 789 957 q 756 833 789 865 m 744 711 q 811 383 811 532 q 714 88 811 197 q 433 -22 617 -22 q 156 78 256 -22 q 56 344 56 178 l 56 711 l 322 711 l 322 364 q 353 256 322 290 q 433 222 385 222 q 512 260 479 222 q 544 375 544 299 q 489 711 544 504 l 744 711 z "},"α":{"ha":956,"x_min":33,"x_max":922,"o":"m 833 289 q 851 210 833 228 q 922 200 869 192 l 922 0 q 786 -22 849 -22 q 597 90 638 -22 q 367 -22 518 -22 q 131 88 228 -22 q 33 356 33 199 q 131 623 33 513 q 367 733 228 733 q 567 639 488 733 l 567 711 l 833 711 l 833 289 m 339 246 q 358 223 339 246 q 433 200 378 200 q 528 246 489 200 q 567 356 567 292 q 528 465 567 419 q 433 511 489 511 q 339 465 378 511 q 300 356 300 419 q 339 246 300 292 z "},"β":{"ha":867,"x_min":56,"x_max":833,"o":"m 656 533 q 784 448 735 522 q 833 296 833 374 q 747 70 833 163 q 489 -22 661 -22 q 322 22 386 -22 l 322 -356 l 56 -356 l 56 689 q 158 919 56 839 q 400 1000 261 1000 q 672 922 576 1000 q 767 715 767 844 q 733 603 767 660 q 656 533 700 547 m 322 211 q 397 192 356 196 q 477 197 439 189 q 541 235 515 206 q 567 311 567 265 q 521 414 567 383 q 367 444 475 444 l 367 578 q 466 609 432 578 q 500 689 500 640 q 411 800 500 800 q 348 771 374 800 q 322 689 322 742 l 322 211 z "},"γ":{"ha":778,"x_min":-11,"x_max":789,"o":"m 789 711 l 522 28 l 522 -356 l 256 -356 l 256 28 l -11 711 l 256 711 l 389 333 l 522 711 l 789 711 z "},"δ":{"ha":867,"x_min":33,"x_max":833,"o":"m 833 350 q 720 85 829 192 q 433 -22 611 -22 q 142 86 251 -22 q 33 356 33 194 q 82 549 33 463 q 221 683 131 635 q 144 830 143 750 q 219 954 146 910 q 432 1000 293 1000 q 700 967 568 1000 l 678 778 q 442 800 561 808 q 396 780 394 797 q 442 753 397 763 q 593 707 528 735 q 715 634 658 679 q 803 517 772 589 q 833 350 833 444 m 339 246 q 358 223 339 246 q 433 200 378 200 q 528 246 489 200 q 567 356 567 292 q 517 474 567 421 q 411 547 467 526 q 381 526 406 547 q 328 456 356 504 q 300 356 300 408 q 339 246 300 292 z "},"ε":{"ha":756,"x_min":56,"x_max":722,"o":"m 464 211 q 633 250 546 211 l 722 63 q 411 -22 597 -22 q 151 38 247 -22 q 56 208 56 97 q 88 302 56 257 q 171 367 121 347 q 95 427 124 385 q 67 514 67 469 q 404 733 67 733 q 713 647 588 733 l 633 461 q 457 500 533 500 q 322 458 322 500 q 382 424 322 436 q 522 411 442 411 l 521 300 q 381 288 440 300 q 322 253 322 275 q 464 211 322 211 z "},"ζ":{"ha":756,"x_min":56,"x_max":744,"o":"m 722 689 q 431 505 540 594 q 322 344 322 415 q 346 265 322 294 q 406 225 369 236 q 488 209 443 214 q 578 197 533 204 q 660 172 624 189 q 721 116 697 156 q 744 14 744 76 q 722 -133 744 -44 l 522 -133 q 519 -46 536 -69 q 422 -22 501 -22 q 56 267 56 -22 q 152 524 56 403 q 396 689 249 646 l 122 689 l 122 933 l 722 933 l 722 689 z "},"η":{"ha":867,"x_min":78,"x_max":811,"o":"m 544 733 q 734 652 657 733 q 811 422 811 571 l 811 -356 l 544 -356 l 544 378 q 515 463 544 436 q 444 489 486 489 q 374 461 404 489 q 344 378 344 433 l 344 0 l 78 0 l 78 711 l 344 711 l 344 622 q 428 705 374 676 q 544 733 482 733 z "},"θ":{"ha":911,"x_min":56,"x_max":856,"o":"m 456 956 q 749 817 643 956 q 856 467 856 678 q 753 115 856 253 q 456 -22 651 -22 q 157 115 258 -22 q 56 467 56 251 q 161 817 56 678 q 456 956 267 956 m 540 662 q 523 686 540 662 q 456 711 506 711 q 372 662 406 711 q 326 533 338 613 l 585 533 q 540 662 574 613 m 372 272 q 389 247 372 272 q 456 222 406 222 q 540 272 506 222 q 585 400 574 321 l 326 400 q 372 272 338 321 z "},"ι":{"ha":467,"x_min":78,"x_max":433,"o":"m 344 711 l 344 289 q 363 209 344 228 q 433 200 382 190 l 433 0 q 286 -22 369 -22 q 78 240 78 -22 l 78 711 l 344 711 z "},"κ":{"ha":844,"x_min":78,"x_max":856,"o":"m 567 372 l 856 0 l 544 0 l 344 289 l 344 0 l 78 0 l 78 711 l 344 711 l 344 444 l 522 711 l 833 711 l 567 372 z "},"λ":{"ha":889,"x_min":33,"x_max":856,"o":"m 706 300 q 767 208 733 229 q 856 200 800 186 l 856 0 q 736 -22 801 -22 q 652 -4 690 -22 q 588 40 614 14 q 537 114 563 65 q 495 203 511 163 q 456 314 479 244 l 433 378 l 300 0 l 33 0 l 311 682 q 252 772 283 751 q 167 778 221 792 l 167 978 q 282 1000 221 1000 q 377 978 336 1000 q 449 911 418 957 q 501 817 479 865 q 553 692 524 768 q 560 672 557 679 l 706 300 z "},"μ":{"ha":889,"x_min":78,"x_max":811,"o":"m 544 711 l 811 711 l 811 0 l 544 0 l 544 89 q 461 6 515 35 q 344 -22 407 -22 l 344 -356 l 78 -356 l 78 711 l 344 711 l 344 333 q 374 249 344 275 q 444 222 403 222 q 515 250 485 222 q 544 333 544 278 l 544 711 z "},"ν":{"ha":778,"x_min":-11,"x_max":789,"o":"m 278 0 l -11 711 l 256 711 l 389 333 l 515 711 l 789 711 l 500 0 l 278 0 z "},"ξ":{"ha":778,"x_min":56,"x_max":767,"o":"m 322 289 q 451 200 322 210 q 502 197 468 199 q 556 194 536 196 q 608 188 576 193 q 658 176 639 183 q 701 156 678 169 q 736 124 724 143 q 758 78 749 106 q 767 14 767 50 q 744 -133 767 -44 l 544 -133 q 542 -47 558 -71 q 456 -22 526 -22 q 151 41 246 -22 q 56 244 56 104 q 239 483 56 403 q 78 722 74 549 q 176 927 81 854 q 436 1000 271 1000 q 591 975 510 1000 q 722 911 672 950 l 633 711 q 467 756 572 750 q 365 744 408 758 q 322 690 322 729 q 405 610 322 643 q 633 578 488 578 l 633 389 q 322 289 322 389 z "},"ο":{"ha":867,"x_min":33,"x_max":833,"o":"m 433 733 q 721 624 608 733 q 833 356 833 514 q 721 87 833 196 q 433 -22 608 -22 q 142 86 251 -22 q 33 356 33 194 q 142 625 33 517 q 433 733 250 733 m 339 246 q 358 223 339 246 q 433 200 378 200 q 528 246 489 200 q 567 356 567 292 q 528 465 567 419 q 433 511 489 511 q 339 465 378 511 q 300 356 300 419 q 339 246 300 292 z "},"π":{"ha":956,"x_min":33,"x_max":900,"o":"m 789 467 l 789 289 q 808 209 789 228 q 878 200 826 190 l 878 0 q 736 -22 814 -22 q 581 44 629 -22 q 533 240 533 111 l 533 467 l 389 467 l 389 0 l 122 0 l 122 467 l 33 467 l 33 711 l 900 711 l 900 467 l 789 467 z "},"ρ":{"ha":911,"x_min":78,"x_max":878,"o":"m 478 733 q 765 624 653 733 q 878 356 878 514 q 778 88 878 197 q 522 -22 678 -22 q 344 28 414 -22 l 344 -356 l 78 -356 l 78 356 q 186 625 78 517 q 478 733 294 733 m 383 246 q 403 223 383 246 q 478 200 422 200 q 572 246 533 200 q 611 356 611 292 q 572 465 611 419 q 478 511 533 511 q 383 465 422 511 q 344 356 344 419 q 383 246 344 292 z "},"ς":{"ha":778,"x_min":33,"x_max":767,"o":"m 767 14 q 744 -133 767 -44 l 544 -133 q 538 -47 558 -71 q 429 -22 517 -22 q 140 86 247 -22 q 33 356 33 194 q 141 625 33 517 q 429 733 249 733 q 700 646 608 733 l 597 444 q 456 511 543 511 q 346 465 392 511 q 300 356 300 419 q 335 252 300 289 q 421 208 369 215 q 533 192 472 200 q 646 174 594 183 q 732 125 697 165 q 767 14 767 85 z "},"σ":{"ha":911,"x_min":33,"x_max":878,"o":"m 878 711 l 878 467 l 783 467 q 833 311 833 407 q 721 74 833 169 q 433 -22 608 -22 q 142 81 250 -22 q 33 344 33 185 q 141 608 33 504 q 433 711 249 711 l 878 711 m 339 238 q 358 219 339 238 q 433 200 378 200 q 528 238 489 200 q 567 333 567 275 q 528 429 567 392 q 433 467 489 467 q 339 429 378 467 q 300 333 300 392 q 339 238 300 275 z "},"τ":{"ha":733,"x_min":33,"x_max":700,"o":"m 500 467 l 500 289 q 519 209 500 228 q 589 200 538 190 l 589 0 q 442 -22 525 -22 q 233 240 233 -22 l 233 467 l 33 467 l 33 711 l 700 711 l 700 467 l 500 467 z "},"υ":{"ha":867,"x_min":56,"x_max":811,"o":"m 744 711 q 811 383 811 532 q 714 88 811 197 q 433 -22 617 -22 q 156 78 256 -22 q 56 344 56 178 l 56 711 l 322 711 l 322 364 q 353 256 322 290 q 433 222 385 222 q 512 260 479 222 q 544 375 544 299 q 489 711 544 504 l 744 711 z "},"φ":{"ha":1133,"x_min":33,"x_max":1100,"o":"m 700 733 q 994 617 888 717 q 1100 356 1100 518 q 994 94 1100 193 q 700 -22 888 -6 l 700 -356 l 433 -356 l 433 -22 q 140 94 246 -6 q 33 356 33 193 q 140 617 33 518 q 433 733 246 717 l 433 978 l 700 978 l 700 733 m 433 211 l 433 500 q 337 454 374 490 q 300 356 300 418 q 337 257 300 293 q 433 211 374 221 m 797 257 q 815 275 797 257 q 833 356 833 293 q 797 454 833 418 q 700 500 760 490 l 700 211 q 797 257 760 221 z "},"χ":{"ha":844,"x_min":11,"x_max":833,"o":"m 589 378 l 833 0 l 556 0 l 422 200 l 289 0 l 11 0 l 256 378 l 33 711 l 311 711 l 422 533 l 533 711 l 811 711 l 589 378 z "},"ψ":{"ha":1178,"x_min":56,"x_max":1122,"o":"m 856 711 l 1122 711 l 1122 369 q 1019 94 1122 193 q 722 -22 915 -6 l 722 -356 l 456 -356 l 456 -22 q 159 94 263 -6 q 56 369 56 193 l 56 711 l 322 711 l 322 375 q 334 299 322 331 q 367 249 346 267 q 409 224 389 232 q 456 211 429 217 l 456 711 l 722 711 l 722 211 q 769 224 749 217 q 810 249 789 232 q 844 299 832 267 q 856 375 856 331 l 856 711 z "},"ω":{"ha":1222,"x_min":56,"x_max":1167,"o":"m 1088 711 q 1143 544 1119 642 q 1167 361 1167 447 q 1081 76 1167 175 q 844 -22 994 -22 q 611 74 685 -22 q 378 -22 538 -22 q 138 75 219 -22 q 56 361 56 172 q 79 544 56 447 q 135 711 103 642 l 390 711 q 322 375 322 518 q 349 260 322 299 q 411 222 375 222 q 463 254 447 222 q 478 364 478 286 l 478 600 l 744 600 l 744 364 q 760 254 744 286 q 811 222 775 222 q 874 260 847 222 q 900 375 900 299 q 832 711 900 518 l 1088 711 z "},"ϊ":{"ha":467,"x_min":-56,"x_max":478,"o":"m 134 833 q 118 816 134 833 q 56 800 101 800 q -23 833 10 800 q -56 911 -56 865 q -23 990 -56 957 q 56 1022 10 1022 q 134 990 101 1022 q 167 911 167 957 q 134 833 167 865 m 445 833 q 429 816 445 833 q 367 800 413 800 q 288 833 321 800 q 256 911 256 865 q 288 990 256 957 q 367 1022 321 1022 q 445 990 413 1022 q 478 911 478 957 q 445 833 478 865 m 344 711 l 344 289 q 363 209 344 228 q 433 200 382 190 l 433 0 q 286 -22 369 -22 q 78 240 78 -22 l 78 711 l 344 711 z "},"ϋ":{"ha":867,"x_min":56,"x_max":811,"o":"m 323 833 q 307 816 323 833 q 244 800 290 800 q 166 833 199 800 q 133 911 133 865 q 166 990 133 957 q 244 1022 199 1022 q 323 990 290 1022 q 356 911 356 957 q 323 833 356 865 m 634 833 q 618 816 634 833 q 556 800 601 800 q 477 833 510 800 q 444 911 444 865 q 477 990 444 957 q 556 1022 510 1022 q 634 990 601 1022 q 667 911 667 957 q 634 833 667 865 m 744 711 q 811 383 811 532 q 714 88 811 197 q 433 -22 617 -22 q 156 78 256 -22 q 56 344 56 178 l 56 711 l 322 711 l 322 364 q 353 256 322 290 q 433 222 385 222 q 512 260 479 222 q 544 375 544 299 q 489 711 544 504 l 744 711 z "},"ό":{"ha":867,"x_min":33,"x_max":833,"o":"m 344 800 l 389 1022 l 589 1022 l 478 800 l 344 800 m 433 733 q 721 624 608 733 q 833 356 833 514 q 721 87 833 196 q 433 -22 608 -22 q 142 86 251 -22 q 33 356 33 194 q 142 625 33 517 q 433 733 250 733 m 339 246 q 358 223 339 246 q 433 200 378 200 q 528 246 489 200 q 567 356 567 292 q 528 465 567 419 q 433 511 489 511 q 339 465 378 511 q 300 356 300 419 q 339 246 300 292 z "},"ύ":{"ha":867,"x_min":56,"x_max":811,"o":"m 300 800 l 344 1022 l 544 1022 l 433 800 l 300 800 m 744 711 q 811 383 811 532 q 714 88 811 197 q 433 -22 617 -22 q 156 78 256 -22 q 56 344 56 178 l 56 711 l 322 711 l 322 364 q 353 256 322 290 q 433 222 385 222 q 512 260 479 222 q 544 375 544 299 q 489 711 544 504 l 744 711 z "},"ώ":{"ha":1222,"x_min":56,"x_max":1167,"o":"m 522 800 l 567 1022 l 767 1022 l 656 800 l 522 800 m 1088 711 q 1143 544 1119 642 q 1167 361 1167 447 q 1081 76 1167 175 q 844 -22 994 -22 q 611 74 685 -22 q 378 -22 538 -22 q 138 75 219 -22 q 56 361 56 172 q 79 544 56 447 q 135 711 103 642 l 390 711 q 322 375 322 518 q 349 260 322 299 q 411 222 375 222 q 463 254 447 222 q 478 364 478 286 l 478 600 l 744 600 l 744 364 q 760 254 744 286 q 811 222 775 222 q 874 260 847 222 q 900 375 900 299 q 832 711 900 518 l 1088 711 z "},"Ё":{"ha":756,"x_min":78,"x_max":700,"o":"m 301 1055 q 284 1039 301 1055 q 222 1022 268 1022 q 144 1055 176 1022 q 111 1133 111 1088 q 144 1212 111 1179 q 222 1244 176 1244 q 301 1212 268 1244 q 333 1133 333 1179 q 301 1055 333 1088 m 612 1055 q 595 1039 612 1055 q 533 1022 579 1022 q 455 1055 488 1022 q 422 1133 422 1088 q 455 1212 422 1179 q 533 1244 488 1244 q 612 1212 579 1244 q 644 1133 644 1179 q 612 1055 644 1088 m 700 689 l 344 689 l 344 578 l 633 578 l 633 356 l 344 356 l 344 244 l 700 244 l 700 0 l 78 0 l 78 933 l 700 933 l 700 689 z "},"Ђ":{"ha":1022,"x_min":33,"x_max":967,"o":"m 678 578 q 894 497 821 578 q 967 272 967 415 q 874 -33 967 68 q 611 -133 782 -133 l 567 89 q 700 239 700 89 q 673 329 700 303 q 589 356 646 356 q 538 347 565 356 q 494 331 510 339 l 478 322 l 478 0 l 211 0 l 211 689 l 33 689 l 33 933 l 744 933 l 744 689 l 478 689 l 478 517 q 678 578 561 578 z "},"Ѓ":{"ha":733,"x_min":78,"x_max":700,"o":"m 211 1022 l 344 1244 l 611 1244 l 389 1022 l 211 1022 m 344 689 l 344 0 l 78 0 l 78 933 l 700 933 l 700 689 l 344 689 z "},"Є":{"ha":911,"x_min":33,"x_max":878,"o":"m 565 222 q 776 317 693 222 l 878 90 q 730 8 817 38 q 558 -22 643 -22 q 188 122 342 -22 q 33 467 33 265 q 188 812 33 668 q 558 956 342 956 q 730 926 643 956 q 878 844 817 897 l 776 617 q 565 711 693 711 q 415 668 482 711 q 318 556 347 625 l 656 556 l 656 378 l 318 378 q 415 265 347 308 q 565 222 482 222 z "},"Ѕ":{"ha":889,"x_min":33,"x_max":856,"o":"m 444 610 q 559 592 511 601 q 667 560 607 582 q 765 507 728 538 q 829 424 803 476 q 856 304 856 372 q 751 68 856 158 q 433 -22 647 -22 q 297 -8 364 -22 q 185 27 231 7 q 103 67 139 47 q 50 103 68 88 l 33 117 l 132 329 q 269 255 193 282 q 389 225 344 228 l 433 222 q 589 279 589 217 q 555 319 589 307 q 418 347 521 331 q 56 653 56 404 q 158 870 56 785 q 458 956 261 956 q 524 953 483 956 q 660 922 565 950 q 811 844 756 894 l 706 644 q 676 663 696 651 q 587 692 657 674 q 433 711 517 711 q 322 667 322 711 q 347 631 322 643 q 444 610 372 619 z "},"І":{"ha":422,"x_min":78,"x_max":344,"o":"m 344 0 l 78 0 l 78 933 l 344 933 l 344 0 z "},"Ї":{"ha":422,"x_min":-56,"x_max":478,"o":"m 134 1055 q 118 1039 134 1055 q 56 1022 101 1022 q -23 1055 10 1022 q -56 1133 -56 1088 q -23 1212 -56 1179 q 56 1244 10 1244 q 134 1212 101 1244 q 167 1133 167 1179 q 134 1055 167 1088 m 445 1055 q 429 1039 445 1055 q 367 1022 413 1022 q 288 1055 321 1022 q 256 1133 256 1088 q 288 1212 256 1179 q 367 1244 321 1244 q 445 1212 413 1244 q 478 1133 478 1179 q 445 1055 478 1088 m 344 0 l 78 0 l 78 933 l 344 933 l 344 0 z "},"Ј":{"ha":711,"x_min":33,"x_max":656,"o":"m 389 933 l 656 933 l 656 356 q 551 74 656 169 q 261 -22 446 -22 q 133 3 197 -22 q 33 67 68 28 l 149 276 q 256 222 188 222 q 351 256 314 222 q 389 356 389 290 l 389 933 z "},"Љ":{"ha":1511,"x_min":56,"x_max":1478,"o":"m 1167 578 q 1396 503 1314 578 q 1478 300 1478 428 q 1388 83 1478 167 q 1122 0 1297 0 l 722 0 l 722 689 l 511 689 l 511 378 q 275 -3 511 63 q 56 -11 186 -28 l 56 233 q 186 250 146 225 q 233 371 233 281 l 233 933 l 989 933 l 989 578 l 1167 578 m 1108 222 q 1211 289 1211 222 q 1108 356 1211 356 l 989 356 l 989 222 l 1108 222 z "},"Њ":{"ha":1444,"x_min":78,"x_max":1411,"o":"m 1100 578 q 1329 503 1247 578 q 1411 300 1411 428 q 1321 83 1411 167 q 1056 0 1231 0 l 656 0 l 656 356 l 344 356 l 344 0 l 78 0 l 78 933 l 344 933 l 344 578 l 656 578 l 656 933 l 922 933 l 922 578 l 1100 578 m 1042 222 q 1144 289 1144 222 q 1042 356 1144 356 l 922 356 l 922 222 l 1042 222 z "},"Ћ":{"ha":1022,"x_min":33,"x_max":967,"o":"m 678 578 q 894 497 821 578 q 967 272 967 415 l 967 0 l 700 0 l 700 233 q 674 328 700 301 q 589 356 647 356 q 538 347 565 356 q 494 331 510 339 l 478 322 l 478 0 l 211 0 l 211 689 l 33 689 l 33 933 l 744 933 l 744 689 l 478 689 l 478 517 q 678 578 561 578 z "},"Ќ":{"ha":978,"x_min":78,"x_max":967,"o":"m 300 1022 l 433 1244 l 700 1244 l 478 1022 l 300 1022 m 589 489 l 967 0 l 633 0 l 344 400 l 344 0 l 78 0 l 78 933 l 344 933 l 344 578 l 611 933 l 944 933 l 589 489 z "},"Ў":{"ha":911,"x_min":11,"x_max":922,"o":"m 556 1244 l 689 1244 q 624 1088 689 1153 q 467 1022 558 1022 q 310 1088 375 1022 q 244 1244 244 1153 l 378 1244 q 404 1182 378 1208 q 467 1156 431 1156 q 529 1182 503 1156 q 556 1244 556 1208 m 622 933 l 922 933 l 467 0 l 178 0 l 322 297 l 11 933 l 311 933 l 467 581 l 622 933 z "},"Џ":{"ha":1000,"x_min":78,"x_max":922,"o":"m 922 933 l 922 0 l 633 0 l 633 -178 l 367 -178 l 367 0 l 78 0 l 78 933 l 344 933 l 344 244 l 656 244 l 656 933 l 922 933 z "},"А":{"ha":1000,"x_min":-11,"x_max":1011,"o":"m 625 933 l 1011 0 l 740 0 l 681 156 l 319 156 l 260 0 l -11 0 l 375 933 l 625 933 m 397 356 l 603 356 l 500 622 l 397 356 z "},"Б":{"ha":911,"x_min":78,"x_max":878,"o":"m 567 600 q 794 515 711 600 q 878 300 878 431 q 788 83 878 167 q 522 0 697 0 l 78 0 l 78 933 l 789 933 l 789 711 l 344 711 l 344 600 l 567 600 m 497 222 q 579 245 547 222 q 611 311 611 268 q 579 377 611 354 q 497 400 547 400 l 344 400 l 344 222 l 497 222 z "},"В":{"ha":911,"x_min":78,"x_max":878,"o":"m 721 501 q 840 422 803 483 q 878 281 878 360 q 792 78 878 157 q 558 0 706 0 l 78 0 l 78 933 l 478 933 q 738 870 642 933 q 833 689 833 807 q 802 570 833 621 q 721 501 771 519 m 344 733 l 344 578 l 456 578 q 567 656 567 578 q 456 733 567 733 l 344 733 m 478 200 q 611 289 611 200 q 478 378 611 378 l 344 378 l 344 200 l 478 200 z "},"Г":{"ha":733,"x_min":78,"x_max":700,"o":"m 344 689 l 344 0 l 78 0 l 78 933 l 700 933 l 700 689 l 344 689 z "},"Д":{"ha":1133,"x_min":33,"x_max":1100,"o":"m 967 244 l 1100 244 l 1100 -178 l 833 -178 l 833 0 l 300 0 l 300 -178 l 33 -178 l 33 244 q 164 306 119 244 q 226 512 208 368 q 244 933 244 656 l 967 933 l 967 244 m 407 244 l 700 244 l 700 689 l 500 689 q 407 244 500 346 z "},"Е":{"ha":756,"x_min":78,"x_max":700,"o":"m 700 689 l 344 689 l 344 578 l 633 578 l 633 356 l 344 356 l 344 244 l 700 244 l 700 0 l 78 0 l 78 933 l 700 933 l 700 689 z "},"Ж":{"ha":1489,"x_min":11,"x_max":1478,"o":"m 1100 478 l 1478 0 l 1156 0 l 878 367 l 878 0 l 611 0 l 611 367 l 333 0 l 11 0 l 389 478 l 33 933 l 356 933 l 611 578 l 611 933 l 878 933 l 878 578 l 1133 933 l 1456 933 l 1100 478 z "},"З":{"ha":867,"x_min":33,"x_max":833,"o":"m 278 378 l 278 556 q 465 575 386 556 q 544 636 544 594 q 404 711 544 711 q 150 644 263 711 l 54 833 q 237 922 128 888 q 444 956 346 956 q 709 881 607 956 q 811 678 811 806 q 696 493 811 550 q 796 414 758 478 q 833 278 833 350 q 730 61 833 144 q 435 -22 626 -22 q 214 13 325 -22 q 33 100 103 47 l 139 300 q 404 222 235 222 q 567 293 567 222 q 278 378 567 378 z "},"И":{"ha":1044,"x_min":78,"x_max":967,"o":"m 344 933 l 344 422 l 700 933 l 967 933 l 967 0 l 700 0 l 700 511 l 344 0 l 78 0 l 78 933 l 344 933 z "},"Й":{"ha":1044,"x_min":78,"x_max":967,"o":"m 611 1244 l 744 1244 q 679 1088 744 1153 q 522 1022 614 1022 q 365 1088 431 1022 q 300 1244 300 1153 l 433 1244 q 460 1182 433 1208 q 522 1156 486 1156 q 585 1182 558 1156 q 611 1244 611 1208 m 344 933 l 344 422 l 700 933 l 967 933 l 967 0 l 700 0 l 700 511 l 344 0 l 78 0 l 78 933 l 344 933 z "},"К":{"ha":978,"x_min":78,"x_max":967,"o":"m 589 489 l 967 0 l 633 0 l 344 400 l 344 0 l 78 0 l 78 933 l 344 933 l 344 578 l 611 933 l 944 933 l 589 489 z "},"Л":{"ha":1067,"x_min":56,"x_max":989,"o":"m 989 933 l 989 0 l 722 0 l 722 689 l 500 689 l 500 378 q 447 127 500 224 q 269 -3 393 31 q 56 -11 182 -28 l 56 233 q 186 250 146 225 q 233 371 233 281 l 233 933 l 989 933 z "},"М":{"ha":1222,"x_min":33,"x_max":1189,"o":"m 1100 933 l 1189 0 l 922 0 l 878 489 l 722 0 l 500 0 l 344 489 l 300 0 l 33 0 l 122 933 l 389 933 l 611 378 l 833 933 l 1100 933 z "},"Н":{"ha":1000,"x_min":78,"x_max":922,"o":"m 656 933 l 922 933 l 922 0 l 656 0 l 656 344 l 344 344 l 344 0 l 78 0 l 78 933 l 344 933 l 344 589 l 656 589 l 656 933 z "},"О":{"ha":1089,"x_min":33,"x_max":1056,"o":"m 183 813 q 258 884 183 813 q 544 956 333 956 q 906 813 756 956 q 1056 467 1056 669 q 906 121 1056 264 q 544 -22 756 -22 q 183 121 333 -22 q 33 467 33 264 q 183 813 33 669 m 372 294 q 407 258 372 294 q 544 222 443 222 q 717 294 646 222 q 789 467 789 365 q 717 640 789 568 q 544 711 646 711 q 372 640 443 711 q 300 467 300 568 q 372 294 300 365 z "},"П":{"ha":1000,"x_min":78,"x_max":922,"o":"m 922 933 l 922 0 l 656 0 l 656 689 l 344 689 l 344 0 l 78 0 l 78 933 l 922 933 z "},"Р":{"ha":889,"x_min":78,"x_max":856,"o":"m 500 933 q 766 849 676 933 q 856 622 856 764 q 772 385 856 481 q 544 289 688 289 l 344 289 l 344 0 l 78 0 l 78 933 l 500 933 m 475 511 q 557 536 525 511 q 589 611 589 561 q 557 685 589 660 q 475 711 525 711 l 344 711 l 344 511 l 475 511 z "},"С":{"ha":911,"x_min":33,"x_max":878,"o":"m 565 222 q 776 317 693 222 l 878 90 q 730 8 817 38 q 558 -22 643 -22 q 188 122 342 -22 q 33 467 33 265 q 188 812 33 668 q 558 956 342 956 q 730 926 643 956 q 878 844 817 897 l 776 617 q 565 711 693 711 q 378 640 456 711 q 300 467 300 568 q 378 294 300 365 q 565 222 456 222 z "},"Т":{"ha":822,"x_min":33,"x_max":789,"o":"m 33 933 l 789 933 l 789 689 l 544 689 l 544 0 l 278 0 l 278 689 l 33 689 l 33 933 z "},"У":{"ha":911,"x_min":11,"x_max":922,"o":"m 622 933 l 922 933 l 467 0 l 178 0 l 322 297 l 11 933 l 311 933 l 467 581 l 622 933 z "},"Ф":{"ha":1222,"x_min":33,"x_max":1189,"o":"m 1189 489 q 1067 201 1189 314 q 744 89 944 89 l 744 0 l 478 0 l 478 89 q 156 201 278 89 q 33 489 33 314 q 156 777 33 665 q 478 889 279 889 l 478 978 l 744 978 l 744 889 q 1066 777 943 889 q 1189 489 1189 665 m 478 333 l 478 644 q 353 606 407 644 q 300 489 300 567 q 353 372 300 410 q 478 333 406 333 m 744 333 q 869 372 817 333 q 922 489 922 410 q 869 606 922 567 q 744 644 815 644 l 744 333 z "},"Х":{"ha":1022,"x_min":11,"x_max":1011,"o":"m 694 489 l 1011 0 l 697 0 l 511 294 l 325 0 l 11 0 l 328 489 l 35 933 l 349 933 l 511 672 l 674 933 l 988 933 l 694 489 z "},"Ц":{"ha":1156,"x_min":78,"x_max":1100,"o":"m 922 244 l 1100 244 l 1100 -178 l 833 -178 l 833 0 l 78 0 l 78 933 l 344 933 l 344 244 l 656 244 l 656 933 l 922 933 l 922 244 z "},"Ч":{"ha":933,"x_min":56,"x_max":856,"o":"m 356 267 q 137 353 218 267 q 56 600 56 439 l 56 933 l 322 933 l 322 667 q 351 549 322 586 q 444 511 381 511 q 508 519 472 511 q 567 536 544 528 l 589 544 l 589 933 l 856 933 l 856 0 l 589 0 l 589 328 q 356 267 483 267 z "},"Ш":{"ha":1356,"x_min":78,"x_max":1278,"o":"m 1011 933 l 1278 933 l 1278 0 l 78 0 l 78 933 l 344 933 l 344 244 l 544 244 l 544 933 l 811 933 l 811 244 l 1011 244 l 1011 933 z "},"Щ":{"ha":1511,"x_min":78,"x_max":1456,"o":"m 1278 244 l 1456 244 l 1456 -178 l 1189 -178 l 1189 0 l 78 0 l 78 933 l 344 933 l 344 244 l 544 244 l 544 933 l 811 933 l 811 244 l 1011 244 l 1011 933 l 1278 933 l 1278 244 z "},"Ъ":{"ha":1022,"x_min":33,"x_max":989,"o":"m 678 600 q 906 520 824 600 q 989 311 989 440 q 898 88 989 176 q 633 0 807 0 l 211 0 l 211 689 l 33 689 l 33 933 l 478 933 l 478 600 l 678 600 m 608 222 q 690 245 658 222 q 722 311 722 268 q 690 377 722 354 q 608 400 658 400 l 478 400 l 478 222 l 608 222 z "},"Ы":{"ha":1289,"x_min":78,"x_max":1211,"o":"m 544 600 q 773 520 690 600 q 856 311 856 440 q 765 88 856 176 q 500 0 674 0 l 78 0 l 78 933 l 344 933 l 344 600 l 544 600 m 1211 0 l 944 0 l 944 933 l 1211 933 l 1211 0 m 475 222 q 557 245 525 222 q 589 311 589 268 q 557 377 589 354 q 475 400 525 400 l 344 400 l 344 222 l 475 222 z "},"Ь":{"ha":889,"x_min":78,"x_max":856,"o":"m 544 600 q 773 520 690 600 q 856 311 856 440 q 765 88 856 176 q 500 0 674 0 l 78 0 l 78 933 l 344 933 l 344 600 l 544 600 m 475 222 q 557 245 525 222 q 589 311 589 268 q 557 377 589 354 q 475 400 525 400 l 344 400 l 344 222 l 475 222 z "},"Э":{"ha":911,"x_min":33,"x_max":878,"o":"m 346 222 q 497 265 429 222 q 593 378 564 308 l 256 378 l 256 556 l 593 556 q 497 668 564 625 q 346 711 429 711 q 135 617 218 711 l 33 844 q 181 926 94 897 q 353 956 268 956 q 724 812 569 956 q 878 467 878 668 q 724 122 878 265 q 353 -22 569 -22 q 181 8 268 -22 q 33 90 94 38 l 135 317 q 346 222 218 222 z "},"Ю":{"ha":1511,"x_min":78,"x_max":1478,"o":"m 967 956 q 1328 813 1178 956 q 1478 467 1478 669 q 1328 121 1478 264 q 967 -22 1178 -22 q 649 85 788 -22 q 469 356 510 192 l 344 356 l 344 0 l 78 0 l 78 933 l 344 933 l 344 578 l 469 578 q 649 849 510 742 q 967 956 788 956 m 794 294 q 830 258 794 294 q 967 222 865 222 q 1140 294 1068 222 q 1211 467 1211 365 q 1140 640 1211 568 q 967 711 1068 711 q 794 640 865 711 q 722 467 722 568 q 794 294 722 365 z "},"Я":{"ha":933,"x_min":33,"x_max":856,"o":"m 263 314 q 126 434 175 351 q 78 622 78 517 q 167 849 78 764 q 433 933 257 933 l 856 933 l 856 0 l 589 0 l 589 289 l 538 289 l 344 0 l 33 0 l 263 314 m 458 511 l 589 511 l 589 711 l 458 711 q 376 685 408 711 q 344 611 344 660 q 376 536 344 561 q 458 511 408 511 z "},"а":{"ha":911,"x_min":33,"x_max":833,"o":"m 567 711 l 833 711 l 833 0 l 567 0 l 567 72 q 367 -22 488 -22 q 131 88 228 -22 q 33 356 33 199 q 131 623 33 513 q 367 733 228 733 q 567 639 488 733 l 567 711 m 339 246 q 358 223 339 246 q 433 200 378 200 q 528 246 489 200 q 567 356 567 292 q 528 465 567 419 q 433 511 489 511 q 339 465 378 511 q 300 356 300 419 q 339 246 300 292 z "},"б":{"ha":867,"x_min":33,"x_max":833,"o":"m 433 733 q 721 624 608 733 q 833 356 833 514 q 721 87 833 196 q 433 -22 608 -22 q 142 86 251 -22 q 33 356 33 194 q 74 574 33 472 q 221 778 114 675 q 307 848 257 813 q 386 911 357 883 q 433 978 415 939 l 700 978 q 529 782 683 864 q 469 754 499 767 q 426 733 439 742 l 433 733 m 339 246 q 358 223 339 246 q 433 200 378 200 q 528 246 489 200 q 567 356 567 292 q 528 465 567 419 q 433 511 489 511 q 339 465 378 511 q 300 356 300 419 q 339 246 300 292 z "},"в":{"ha":822,"x_min":78,"x_max":767,"o":"m 656 363 q 735 309 703 350 q 767 217 767 268 q 683 49 767 99 q 433 0 599 0 l 78 0 l 78 711 l 411 711 q 660 662 576 711 q 744 494 744 613 q 718 413 744 450 q 656 363 692 375 m 344 533 l 344 422 l 419 422 q 460 436 443 422 q 478 478 478 450 q 460 519 478 504 q 419 533 443 533 l 344 533 m 435 178 q 482 192 464 178 q 500 233 500 207 q 435 289 500 289 l 344 289 l 344 178 l 435 178 z "},"г":{"ha":644,"x_min":78,"x_max":611,"o":"m 344 467 l 344 0 l 78 0 l 78 711 l 611 711 l 611 467 l 344 467 z "},"д":{"ha":1044,"x_min":33,"x_max":989,"o":"m 878 244 l 989 244 l 989 -178 l 722 -178 l 722 0 l 300 0 l 300 -178 l 33 -178 l 33 244 q 137 276 94 244 q 202 373 179 308 q 235 518 225 438 q 244 711 244 599 l 878 711 l 878 244 m 401 244 l 611 244 l 611 467 l 467 467 q 448 335 467 407 q 401 244 429 263 z "},"е":{"ha":800,"x_min":33,"x_max":767,"o":"m 767 356 q 761 289 767 333 l 308 289 q 361 224 317 247 q 469 200 406 200 q 565 211 519 200 q 632 233 611 222 l 653 244 l 721 44 q 688 26 710 38 q 594 -3 667 15 q 444 -22 522 -22 q 137 84 240 -22 q 33 356 33 190 q 131 627 33 521 q 411 733 228 733 q 674 634 582 733 q 767 356 767 535 m 308 422 l 494 422 q 470 501 494 469 q 400 533 446 533 q 334 500 360 533 q 308 422 308 467 z "},"ж":{"ha":1311,"x_min":11,"x_max":1300,"o":"m 1011 361 l 1300 0 l 989 0 l 789 278 l 789 0 l 522 0 l 522 278 l 322 0 l 11 0 l 300 361 l 33 711 l 344 711 l 522 433 l 522 711 l 789 711 l 789 433 l 967 711 l 1278 711 l 1011 361 z "},"з":{"ha":756,"x_min":33,"x_max":700,"o":"m 292 211 q 433 253 433 211 q 374 288 433 275 q 235 300 315 300 l 233 411 q 371 424 314 411 q 428 458 428 436 q 299 500 428 500 q 122 461 222 500 l 43 647 q 351 733 168 733 q 689 514 689 733 q 660 427 689 469 q 585 367 632 385 q 667 302 635 347 q 700 208 700 257 q 604 38 700 97 q 344 -22 508 -22 q 33 63 158 -22 l 122 250 q 292 211 210 211 z "},"и":{"ha":911,"x_min":78,"x_max":833,"o":"m 344 711 l 344 356 l 567 711 l 833 711 l 833 0 l 567 0 l 567 356 l 344 0 l 78 0 l 78 711 l 344 711 z "},"й":{"ha":911,"x_min":78,"x_max":833,"o":"m 544 1022 l 678 1022 q 613 865 678 931 q 456 800 547 800 q 299 865 364 800 q 233 1022 233 931 l 367 1022 q 393 960 367 986 q 456 933 419 933 q 518 960 492 933 q 544 1022 544 986 m 344 711 l 344 356 l 567 711 l 833 711 l 833 0 l 567 0 l 567 356 l 344 0 l 78 0 l 78 711 l 344 711 z "},"к":{"ha":844,"x_min":78,"x_max":856,"o":"m 567 372 l 856 0 l 544 0 l 344 289 l 344 0 l 78 0 l 78 711 l 344 711 l 344 444 l 522 711 l 833 711 l 567 372 z "},"л":{"ha":911,"x_min":56,"x_max":833,"o":"m 189 711 l 833 711 l 833 0 l 567 0 l 567 467 l 444 467 l 444 263 q 383 56 444 135 q 214 -22 322 -22 q 56 0 138 -22 l 56 200 q 154 207 119 185 q 189 289 189 229 l 189 711 z "},"м":{"ha":1067,"x_min":11,"x_max":1056,"o":"m 794 0 l 743 322 l 635 0 l 432 0 l 324 322 l 272 0 l 11 0 l 138 711 l 410 711 l 533 338 l 657 711 l 929 711 l 1056 0 l 794 0 z "},"н":{"ha":889,"x_min":78,"x_max":811,"o":"m 544 711 l 811 711 l 811 0 l 544 0 l 544 233 l 344 233 l 344 0 l 78 0 l 78 711 l 344 711 l 344 478 l 544 478 l 544 711 z "},"о":{"ha":867,"x_min":33,"x_max":833,"o":"m 433 733 q 721 624 608 733 q 833 356 833 514 q 721 87 833 196 q 433 -22 608 -22 q 142 86 251 -22 q 33 356 33 194 q 142 625 33 517 q 433 733 250 733 m 339 246 q 358 223 339 246 q 433 200 378 200 q 528 246 489 200 q 567 356 567 292 q 528 465 567 419 q 433 511 489 511 q 339 465 378 511 q 300 356 300 419 q 339 246 300 292 z "},"п":{"ha":889,"x_min":78,"x_max":811,"o":"m 811 711 l 811 0 l 544 0 l 544 467 l 344 467 l 344 0 l 78 0 l 78 711 l 811 711 z "},"р":{"ha":911,"x_min":78,"x_max":878,"o":"m 544 733 q 781 623 683 733 q 878 356 878 513 q 781 88 878 199 q 544 -22 683 -22 q 344 72 424 -22 l 344 -356 l 78 -356 l 78 711 l 344 711 l 344 639 q 544 733 424 733 m 383 246 q 403 223 383 246 q 478 200 422 200 q 572 246 533 200 q 611 356 611 292 q 572 465 611 419 q 478 511 533 511 q 383 465 422 511 q 344 356 344 419 q 383 246 344 292 z "},"с":{"ha":733,"x_min":33,"x_max":700,"o":"m 597 267 l 700 65 q 429 -22 613 -22 q 140 86 247 -22 q 33 356 33 194 q 141 625 33 517 q 429 733 249 733 q 700 646 608 733 l 597 444 q 456 511 543 511 q 346 465 392 511 q 300 356 300 419 q 346 246 300 292 q 456 200 392 200 q 597 267 544 200 z "},"т":{"ha":733,"x_min":33,"x_max":700,"o":"m 33 711 l 700 711 l 700 467 l 500 467 l 500 0 l 233 0 l 233 467 l 33 467 l 33 711 z "},"у":{"ha":778,"x_min":-11,"x_max":789,"o":"m 367 -356 l 100 -356 l 256 22 l -11 711 l 256 711 l 389 333 l 522 711 l 789 711 l 367 -356 z "},"ф":{"ha":1400,"x_min":33,"x_max":1367,"o":"m 1033 733 q 1269 623 1172 733 q 1367 356 1367 513 q 1269 88 1367 199 q 1033 -22 1172 -22 q 833 39 904 -22 l 833 -267 l 567 -267 l 567 39 q 367 -22 496 -22 q 131 88 228 -22 q 33 356 33 199 q 131 623 33 513 q 367 733 228 733 q 567 672 496 733 l 567 978 l 833 978 l 833 672 q 1033 733 904 733 m 433 200 q 529 239 492 200 q 567 356 567 278 q 529 472 567 433 q 433 511 492 511 q 339 465 378 511 q 300 356 300 419 q 339 246 300 292 q 433 200 378 200 m 967 200 q 1061 246 1022 200 q 1100 356 1100 292 q 1061 465 1100 419 q 967 511 1022 511 q 871 472 908 511 q 833 356 833 433 q 871 239 833 278 q 967 200 908 200 z "},"х":{"ha":844,"x_min":11,"x_max":833,"o":"m 589 378 l 833 0 l 556 0 l 422 200 l 289 0 l 11 0 l 256 378 l 33 711 l 311 711 l 422 533 l 533 711 l 811 711 l 589 378 z "},"ц":{"ha":1044,"x_min":78,"x_max":989,"o":"m 811 244 l 989 244 l 989 -178 l 722 -178 l 722 0 l 78 0 l 78 711 l 344 711 l 344 244 l 544 244 l 544 711 l 811 711 l 811 244 z "},"ч":{"ha":844,"x_min":56,"x_max":767,"o":"m 300 200 q 119 278 182 200 q 56 511 56 357 l 56 711 l 322 711 l 322 514 q 341 449 322 472 q 411 425 360 425 q 500 447 475 425 l 500 711 l 767 711 l 767 0 l 500 0 l 500 253 q 300 200 410 200 z "},"ш":{"ha":1267,"x_min":78,"x_max":1189,"o":"m 922 711 l 1189 711 l 1189 0 l 78 0 l 78 711 l 344 711 l 344 244 l 500 244 l 500 711 l 767 711 l 767 244 l 922 244 l 922 711 z "},"щ":{"ha":1422,"x_min":78,"x_max":1367,"o":"m 1189 244 l 1367 244 l 1367 -178 l 1100 -178 l 1100 0 l 78 0 l 78 711 l 344 711 l 344 244 l 500 244 l 500 711 l 767 711 l 767 244 l 922 244 l 922 711 l 1189 711 l 1189 244 z "},"ъ":{"ha":933,"x_min":33,"x_max":900,"o":"m 567 467 q 900 239 900 467 q 813 59 900 118 q 567 0 726 0 l 211 0 l 211 467 l 33 467 l 33 711 l 478 711 l 478 467 l 567 467 m 557 178 q 612 192 590 178 q 633 233 633 207 q 557 289 633 289 l 478 289 l 478 178 l 557 178 z "},"ы":{"ha":1200,"x_min":78,"x_max":1122,"o":"m 78 0 l 78 711 l 344 711 l 344 467 l 433 467 q 767 239 767 467 q 680 59 767 118 q 433 0 593 0 l 78 0 m 856 0 l 856 711 l 1122 711 l 1122 0 l 856 0 m 424 178 q 478 192 457 178 q 500 233 500 207 q 424 289 500 289 l 344 289 l 344 178 l 424 178 z "},"ь":{"ha":800,"x_min":78,"x_max":767,"o":"m 78 0 l 78 711 l 344 711 l 344 467 l 433 467 q 767 239 767 467 q 680 59 767 118 q 433 0 593 0 l 78 0 m 424 178 q 478 192 457 178 q 500 233 500 207 q 424 289 500 289 l 344 289 l 344 178 l 424 178 z "},"э":{"ha":733,"x_min":33,"x_max":700,"o":"m 278 200 q 372 231 331 200 q 426 311 413 263 l 211 311 l 211 400 l 426 400 q 372 480 413 449 q 278 511 331 511 q 136 444 190 511 l 33 646 q 304 733 125 733 q 592 625 485 733 q 700 356 700 517 q 593 86 700 194 q 304 -22 486 -22 q 33 65 121 -22 l 136 267 q 278 200 189 200 z "},"ю":{"ha":1289,"x_min":78,"x_max":1256,"o":"m 856 733 q 1143 624 1031 733 q 1256 356 1256 514 q 1143 87 1256 196 q 856 -22 1031 -22 q 607 51 708 -22 q 471 244 506 125 l 344 244 l 344 0 l 78 0 l 78 711 l 344 711 l 344 467 l 471 467 q 606 660 504 586 q 856 733 707 733 m 761 246 q 781 223 761 246 q 856 200 800 200 q 950 246 911 200 q 989 356 989 292 q 950 465 989 419 q 856 511 911 511 q 761 465 800 511 q 722 356 722 419 q 761 246 722 292 z "},"я":{"ha":844,"x_min":33,"x_max":767,"o":"m 411 711 l 767 711 l 767 0 l 500 0 l 500 211 l 344 0 l 33 0 l 236 251 q 122 328 165 271 q 78 461 78 385 q 165 647 78 583 q 411 711 253 711 m 421 511 q 367 494 390 511 q 344 444 344 476 q 367 395 344 413 q 421 378 390 378 l 500 378 l 500 511 l 421 511 z "},"ё":{"ha":800,"x_min":33,"x_max":767,"o":"m 323 833 q 307 816 323 833 q 244 800 290 800 q 166 833 199 800 q 133 911 133 865 q 166 990 133 957 q 244 1022 199 1022 q 323 990 290 1022 q 356 911 356 957 q 323 833 356 865 m 634 833 q 618 816 634 833 q 556 800 601 800 q 477 833 510 800 q 444 911 444 865 q 477 990 444 957 q 556 1022 510 1022 q 634 990 601 1022 q 667 911 667 957 q 634 833 667 865 m 767 356 q 761 289 767 333 l 308 289 q 361 224 317 247 q 469 200 406 200 q 565 211 519 200 q 632 233 611 222 l 653 244 l 721 44 q 688 26 710 38 q 594 -3 667 15 q 444 -22 522 -22 q 137 84 240 -22 q 33 356 33 190 q 131 627 33 521 q 411 733 228 733 q 674 634 582 733 q 767 356 767 535 m 308 422 l 494 422 q 470 501 494 469 q 400 533 446 533 q 334 500 360 533 q 308 422 308 467 z "},"ђ":{"ha":889,"x_min":11,"x_max":833,"o":"m 567 733 q 756 652 679 733 q 833 422 833 571 l 833 0 q 740 -287 828 -197 q 478 -378 651 -378 l 433 -156 q 527 -117 488 -156 q 567 0 567 -79 l 567 378 q 538 463 567 436 q 467 489 508 489 q 397 461 426 489 q 367 378 367 433 l 367 0 l 100 0 l 100 744 l 11 744 l 11 878 l 100 878 l 100 978 l 367 978 l 367 878 l 456 878 l 456 744 l 367 744 l 367 622 q 450 705 396 676 q 567 733 504 733 z "},"ѓ":{"ha":644,"x_min":78,"x_max":611,"o":"m 167 800 l 300 1022 l 567 1022 l 344 800 l 167 800 m 344 467 l 344 0 l 78 0 l 78 711 l 611 711 l 611 467 l 344 467 z "},"є":{"ha":733,"x_min":33,"x_max":700,"o":"m 456 200 q 597 267 544 200 l 700 65 q 429 -22 613 -22 q 140 86 247 -22 q 33 356 33 194 q 141 625 33 517 q 429 733 249 733 q 700 646 608 733 l 597 444 q 456 511 543 511 q 362 480 403 511 q 307 400 321 449 l 522 400 l 522 311 l 307 311 q 362 231 321 263 q 456 200 403 200 z "},"ѕ":{"ha":778,"x_min":33,"x_max":744,"o":"m 415 472 q 551 450 499 463 q 651 412 603 438 q 722 342 700 386 q 744 231 744 297 q 656 46 744 114 q 379 -22 567 -22 q 194 3 281 -22 q 71 53 108 28 l 33 78 l 100 267 q 203 217 143 238 q 303 192 264 197 l 340 186 q 478 206 478 171 q 458 228 478 221 q 351 247 438 235 q 56 467 56 289 q 149 660 56 586 q 428 733 243 733 q 700 674 589 732 l 633 483 q 411 531 553 528 q 322 507 322 532 q 372 478 322 485 q 408 474 383 476 l 410 472 l 411 472 l 413 472 l 414 472 l 415 472 z "},"і":{"ha":422,"x_min":67,"x_max":356,"o":"m 313 820 q 292 799 313 820 q 211 778 271 778 q 109 820 151 778 q 67 922 67 863 q 109 1024 67 982 q 211 1067 151 1067 q 313 1024 271 1067 q 356 922 356 982 q 313 820 356 863 m 78 0 l 78 711 l 344 711 l 344 0 l 78 0 z "},"ї":{"ha":422,"x_min":-56,"x_max":478,"o":"m 134 833 q 118 816 134 833 q 56 800 101 800 q -23 833 10 800 q -56 911 -56 865 q -23 990 -56 957 q 56 1022 10 1022 q 134 990 101 1022 q 167 911 167 957 q 134 833 167 865 m 445 833 q 429 816 445 833 q 367 800 413 800 q 288 833 321 800 q 256 911 256 865 q 288 990 256 957 q 367 1022 321 1022 q 445 990 413 1022 q 478 911 478 957 q 445 833 478 865 m 78 0 l 78 711 l 344 711 l 344 0 l 78 0 z "},"ј":{"ha":422,"x_min":-56,"x_max":356,"o":"m 313 820 q 292 799 313 820 q 211 778 271 778 q 109 820 151 778 q 67 922 67 863 q 109 1024 67 982 q 211 1067 151 1067 q 313 1024 271 1067 q 356 922 356 982 q 313 820 356 863 m 78 0 l 78 711 l 344 711 l 344 22 q 256 -282 344 -186 q -11 -378 168 -378 l -56 -156 q 38 -117 -1 -156 q 78 0 78 -79 z "},"љ":{"ha":1267,"x_min":56,"x_max":1233,"o":"m 900 467 q 1233 239 1233 467 q 1147 59 1233 118 q 900 0 1060 0 l 567 0 l 567 467 l 444 467 l 444 263 q 383 56 444 135 q 214 -22 322 -22 q 56 0 138 -22 l 56 200 q 154 207 119 185 q 189 289 189 229 l 189 711 l 833 711 l 833 467 l 900 467 m 890 178 q 945 192 924 178 q 967 233 967 207 q 890 289 967 289 l 833 289 l 833 178 l 890 178 z "},"њ":{"ha":1244,"x_min":78,"x_max":1211,"o":"m 878 467 q 1211 239 1211 467 q 1124 59 1211 118 q 878 0 1038 0 l 544 0 l 544 289 l 344 289 l 344 0 l 78 0 l 78 711 l 344 711 l 344 467 l 544 467 l 544 711 l 811 711 l 811 467 l 878 467 m 868 178 q 923 192 901 178 q 944 233 944 207 q 868 289 944 289 l 811 289 l 811 178 l 868 178 z "},"ћ":{"ha":889,"x_min":11,"x_max":833,"o":"m 567 733 q 756 652 679 733 q 833 422 833 571 l 833 0 l 567 0 l 567 378 q 538 463 567 436 q 467 489 508 489 q 397 461 426 489 q 367 378 367 433 l 367 0 l 100 0 l 100 744 l 11 744 l 11 878 l 100 878 l 100 978 l 367 978 l 367 878 l 456 878 l 456 744 l 367 744 l 367 622 q 450 705 396 676 q 567 733 504 733 z "},"ќ":{"ha":844,"x_min":78,"x_max":856,"o":"m 278 800 l 411 1022 l 678 1022 l 456 800 l 278 800 m 567 372 l 856 0 l 544 0 l 344 289 l 344 0 l 78 0 l 78 711 l 344 711 l 344 444 l 522 711 l 833 711 l 567 372 z "},"ў":{"ha":778,"x_min":-11,"x_max":789,"o":"m 478 1022 l 611 1022 q 546 865 611 931 q 389 800 481 800 q 232 865 297 800 q 167 1022 167 931 l 300 1022 q 326 960 300 986 q 389 933 353 933 q 451 960 425 933 q 478 1022 478 986 m 367 -356 l 100 -356 l 256 22 l -11 711 l 256 711 l 389 333 l 522 711 l 789 711 l 367 -356 z "},"џ":{"ha":889,"x_min":78,"x_max":811,"o":"m 544 711 l 811 711 l 811 0 l 578 0 l 578 -178 l 311 -178 l 311 0 l 78 0 l 78 711 l 344 711 l 344 244 l 544 244 l 544 711 z "},"Ѣ":{"ha":933,"x_min":11,"x_max":900,"o":"m 589 600 q 817 520 735 600 q 900 311 900 440 q 809 88 900 176 q 544 0 718 0 l 122 0 l 122 689 l 11 689 l 11 867 l 122 867 l 122 978 l 389 978 l 389 867 l 611 867 l 611 689 l 389 689 l 389 600 l 589 600 m 519 222 q 601 245 569 222 q 633 311 633 268 q 601 377 633 354 q 519 400 569 400 l 389 400 l 389 222 l 519 222 z "},"ѣ":{"ha":822,"x_min":11,"x_max":789,"o":"m 456 467 q 789 239 789 467 q 702 59 789 118 q 456 0 615 0 l 100 0 l 100 544 l 11 544 l 11 678 l 100 678 l 100 756 l 367 756 l 367 678 l 456 678 l 456 544 l 367 544 l 367 467 l 456 467 m 446 178 q 501 192 479 178 q 522 233 522 207 q 446 289 522 289 l 367 289 l 367 178 l 446 178 z "},"Ѳ":{"ha":1089,"x_min":33,"x_max":1056,"o":"m 183 813 q 258 884 183 813 q 544 956 333 956 q 906 813 756 956 q 1056 467 1056 669 q 906 121 1056 264 q 544 -22 756 -22 q 183 121 333 -22 q 33 467 33 264 q 183 813 33 669 m 544 711 q 394 660 460 711 q 308 528 328 608 q 411 556 347 556 q 544 526 454 556 q 683 498 629 494 q 772 556 738 501 q 683 668 744 625 q 544 711 621 711 m 544 222 q 695 274 629 222 q 781 406 761 325 q 678 378 742 378 q 544 406 631 378 q 406 435 460 439 q 317 378 351 432 q 406 265 344 308 q 544 222 468 222 z "},"ѳ":{"ha":867,"x_min":33,"x_max":833,"o":"m 433 733 q 721 624 608 733 q 833 356 833 514 q 721 87 833 196 q 433 -22 608 -22 q 142 86 251 -22 q 33 356 33 194 q 142 625 33 517 q 433 733 250 733 m 433 511 q 318 433 356 511 l 322 433 q 433 404 363 433 q 565 382 528 364 q 520 474 557 438 q 433 511 483 511 m 433 200 q 549 278 511 200 l 544 278 q 433 306 500 278 q 301 329 339 346 q 347 237 310 274 q 433 200 385 200 z "},"Ѵ":{"ha":1044,"x_min":-11,"x_max":1033,"o":"m 593 633 q 627 724 613 688 q 661 798 642 761 q 699 858 681 835 q 741 901 717 881 q 792 933 765 922 q 856 950 819 943 q 936 956 893 957 q 1033 949 979 956 l 1033 704 q 937 688 972 711 q 871 590 901 664 l 633 0 l 367 0 l -11 933 l 300 933 l 500 375 l 593 633 z "},"ѵ":{"ha":822,"x_min":-11,"x_max":811,"o":"m 692 733 q 811 711 757 733 l 811 511 q 722 503 756 525 q 661 411 689 482 l 500 0 l 278 0 l -11 711 l 256 711 l 389 333 l 411 397 q 451 508 435 467 q 492 597 467 549 q 544 672 518 646 q 608 715 569 697 q 692 733 646 733 z "},"Ґ":{"ha":733,"x_min":78,"x_max":700,"o":"m 500 1067 l 700 1067 l 700 689 l 344 689 l 344 0 l 78 0 l 78 933 l 500 933 l 500 1067 z "},"ґ":{"ha":644,"x_min":78,"x_max":611,"o":"m 411 844 l 611 844 l 611 467 l 344 467 l 344 0 l 78 0 l 78 711 l 411 711 l 411 844 z "},"Ғ":{"ha":756,"x_min":11,"x_max":722,"o":"m 722 689 l 367 689 l 367 500 l 500 500 l 500 367 l 367 367 l 367 0 l 100 0 l 100 367 l 11 367 l 11 500 l 100 500 l 100 933 l 722 933 l 722 689 z "},"ғ":{"ha":667,"x_min":11,"x_max":633,"o":"m 633 467 l 367 467 l 367 361 l 500 361 l 500 228 l 367 228 l 367 0 l 100 0 l 100 228 l 11 228 l 11 361 l 100 361 l 100 711 l 633 711 l 633 467 z "},"Җ":{"ha":1489,"x_min":11,"x_max":1478,"o":"m 1285 244 l 1478 244 l 1478 -133 l 1278 -133 l 1278 0 l 1156 0 l 878 367 l 878 0 l 611 0 l 611 367 l 333 0 l 11 0 l 389 478 l 33 933 l 356 933 l 611 578 l 611 933 l 878 933 l 878 578 l 1133 933 l 1456 933 l 1100 478 l 1285 244 z "},"җ":{"ha":1311,"x_min":11,"x_max":1300,"o":"m 1104 244 l 1300 244 l 1300 -133 l 1100 -133 l 1100 0 l 989 0 l 789 278 l 789 0 l 522 0 l 522 278 l 322 0 l 11 0 l 300 361 l 33 711 l 344 711 l 522 433 l 522 711 l 789 711 l 789 433 l 967 711 l 1278 711 l 1011 361 l 1104 244 z "},"Қ":{"ha":978,"x_min":78,"x_max":967,"o":"m 778 244 l 967 244 l 967 -133 l 767 -133 l 767 0 l 633 0 l 344 400 l 344 0 l 78 0 l 78 933 l 344 933 l 344 578 l 611 933 l 944 933 l 589 489 l 778 244 z "},"қ":{"ha":867,"x_min":78,"x_max":856,"o":"m 665 244 l 856 244 l 856 -133 l 656 -133 l 656 0 l 544 0 l 344 289 l 344 0 l 78 0 l 78 711 l 344 711 l 344 444 l 522 711 l 833 711 l 567 372 l 665 244 z "},"Ң":{"ha":1044,"x_min":78,"x_max":1033,"o":"m 922 244 l 1033 244 l 1033 -133 l 833 -133 l 833 0 l 656 0 l 656 344 l 344 344 l 344 0 l 78 0 l 78 933 l 344 933 l 344 589 l 656 589 l 656 933 l 922 933 l 922 244 z "},"ң":{"ha":933,"x_min":78,"x_max":922,"o":"m 811 244 l 922 244 l 922 -133 l 722 -133 l 722 0 l 544 0 l 544 233 l 344 233 l 344 0 l 78 0 l 78 711 l 344 711 l 344 478 l 544 478 l 544 711 l 811 711 l 811 244 z "},"Ү":{"ha":956,"x_min":-11,"x_max":967,"o":"m 656 933 l 967 933 l 611 378 l 611 0 l 344 0 l 344 378 l -11 933 l 300 933 l 478 644 l 656 933 z "},"ү":{"ha":778,"x_min":-11,"x_max":789,"o":"m 789 711 l 522 28 l 522 -356 l 256 -356 l 256 28 l -11 711 l 256 711 l 389 333 l 522 711 l 789 711 z "},"Ұ":{"ha":956,"x_min":-11,"x_max":967,"o":"m 611 378 l 611 367 l 700 367 l 700 233 l 611 233 l 611 0 l 344 0 l 344 233 l 256 233 l 256 367 l 344 367 l 344 378 l -11 933 l 300 933 l 478 644 l 656 933 l 967 933 l 611 378 z "},"ұ":{"ha":778,"x_min":-11,"x_max":789,"o":"m 522 28 l 522 -11 l 633 -11 l 633 -144 l 522 -144 l 522 -356 l 256 -356 l 256 -144 l 144 -144 l 144 -11 l 256 -11 l 256 28 l -11 711 l 256 711 l 389 333 l 522 711 l 789 711 l 522 28 z "},"Ҳ":{"ha":1044,"x_min":11,"x_max":1033,"o":"m 853 244 l 1033 244 l 1033 -133 l 833 -133 l 833 0 l 697 0 l 511 294 l 325 0 l 11 0 l 328 489 l 35 933 l 349 933 l 511 672 l 674 933 l 988 933 l 694 489 l 853 244 z "},"ҳ":{"ha":867,"x_min":11,"x_max":856,"o":"m 675 244 l 856 244 l 856 -133 l 656 -133 l 656 0 l 556 0 l 422 200 l 289 0 l 11 0 l 256 378 l 33 711 l 311 711 l 422 533 l 533 711 l 811 711 l 589 378 l 675 244 z "},"Ҷ":{"ha":978,"x_min":56,"x_max":967,"o":"m 856 244 l 967 244 l 967 -133 l 767 -133 l 767 0 l 589 0 l 589 328 q 356 267 483 267 q 137 353 218 267 q 56 600 56 439 l 56 933 l 322 933 l 322 667 q 351 549 322 586 q 444 511 381 511 q 508 519 472 511 q 567 536 544 528 l 589 544 l 589 933 l 856 933 l 856 244 z "},"ҷ":{"ha":889,"x_min":56,"x_max":878,"o":"m 767 244 l 878 244 l 878 -133 l 678 -133 l 678 0 l 500 0 l 500 253 q 300 200 410 200 q 119 278 182 200 q 56 511 56 357 l 56 711 l 322 711 l 322 514 q 341 449 322 472 q 411 425 360 425 q 500 447 475 425 l 500 711 l 767 711 l 767 244 z "},"Һ":{"ha":933,"x_min":78,"x_max":878,"o":"m 578 667 q 797 581 715 667 q 878 333 878 494 l 878 0 l 611 0 l 611 267 q 582 385 611 347 q 489 422 553 422 q 425 414 461 422 q 367 397 389 406 l 344 389 l 344 0 l 78 0 l 78 933 l 344 933 l 344 606 q 578 667 450 667 z "},"һ":{"ha":867,"x_min":78,"x_max":811,"o":"m 544 733 q 734 652 657 733 q 811 422 811 571 l 811 0 l 544 0 l 544 378 q 515 463 544 436 q 444 489 486 489 q 374 461 404 489 q 344 378 344 433 l 344 0 l 78 0 l 78 978 l 344 978 l 344 622 q 428 705 374 676 q 544 733 482 733 z "},"Ӏ":{"ha":422,"x_min":78,"x_max":344,"o":"m 344 0 l 78 0 l 78 933 l 344 933 l 344 0 z "},"ӏ":{"ha":422,"x_min":78,"x_max":344,"o":"m 78 0 l 78 711 l 344 711 l 344 0 l 78 0 z "},"Ә":{"ha":1089,"x_min":33,"x_max":1056,"o":"m 33 467 q 42 556 33 511 l 772 556 q 683 668 744 625 q 544 711 621 711 q 342 617 415 711 l 89 686 q 276 882 154 808 q 544 956 397 956 q 906 813 756 956 q 1056 467 1056 669 q 906 121 1056 264 q 544 -22 756 -22 q 183 121 333 -22 q 33 467 33 264 m 317 378 q 406 265 344 308 q 544 222 468 222 q 683 265 621 222 q 772 378 744 308 l 317 378 z "},"ә":{"ha":800,"x_min":33,"x_max":767,"o":"m 33 356 q 39 422 33 378 l 492 422 q 392 511 476 511 q 308 467 343 511 l 69 533 q 186 678 106 622 q 389 733 267 733 q 669 626 571 733 q 767 356 767 519 q 669 84 767 190 q 389 -22 572 -22 q 126 77 218 -22 q 33 356 33 176 m 492 289 l 306 289 q 330 210 306 242 q 400 178 354 178 q 466 211 440 178 q 492 289 492 244 z "},"Ӣ":{"ha":1044,"x_min":78,"x_max":967,"o":"m 744 1044 l 300 1044 l 300 1178 l 744 1178 l 744 1044 m 344 933 l 344 422 l 700 933 l 967 933 l 967 0 l 700 0 l 700 511 l 344 0 l 78 0 l 78 933 l 344 933 z "},"ӣ":{"ha":911,"x_min":78,"x_max":833,"o":"m 678 822 l 233 822 l 233 956 l 678 956 l 678 822 m 344 711 l 344 356 l 567 711 l 833 711 l 833 0 l 567 0 l 567 356 l 344 0 l 78 0 l 78 711 l 344 711 z "},"Ө":{"ha":1089,"x_min":33,"x_max":1056,"o":"m 183 813 q 258 884 183 813 q 544 956 333 956 q 906 813 756 956 q 1056 467 1056 669 q 906 121 1056 264 q 544 -22 756 -22 q 183 121 333 -22 q 33 467 33 264 q 183 813 33 669 m 692 661 q 659 686 692 661 q 544 711 626 711 q 397 661 463 711 q 310 533 332 611 l 779 533 q 692 661 757 611 m 397 272 q 430 247 397 272 q 544 222 463 222 q 692 272 626 222 q 779 400 757 322 l 310 400 q 397 272 332 322 z "},"ө":{"ha":867,"x_min":33,"x_max":833,"o":"m 433 733 q 721 624 608 733 q 833 356 833 514 q 721 87 833 196 q 433 -22 608 -22 q 142 86 251 -22 q 33 356 33 194 q 142 625 33 517 q 433 733 250 733 m 513 480 q 495 495 513 480 q 433 511 478 511 q 353 480 389 511 q 306 400 318 449 l 561 400 q 513 480 549 449 m 353 231 q 371 216 353 231 q 433 200 389 200 q 513 231 478 200 q 561 311 549 263 l 306 311 q 353 231 318 263 z "},"Ӯ":{"ha":911,"x_min":11,"x_max":922,"o":"m 689 1044 l 244 1044 l 244 1178 l 689 1178 l 689 1044 m 622 933 l 922 933 l 467 0 l 178 0 l 322 297 l 11 933 l 311 933 l 467 581 l 622 933 z "},"ӯ":{"ha":778,"x_min":-11,"x_max":789,"o":"m 611 822 l 167 822 l 167 956 l 611 956 l 611 822 m 367 -356 l 100 -356 l 256 22 l -11 711 l 256 711 l 389 333 l 522 711 l 789 711 l 367 -356 z "},"Ẁ":{"ha":1422,"x_min":0,"x_max":1422,"o":"m 844 1022 l 667 1022 l 444 1244 l 711 1244 l 844 1022 m 833 933 l 967 378 l 1122 933 l 1422 933 l 1111 0 l 833 0 l 711 444 l 589 0 l 311 0 l 0 933 l 300 933 l 456 378 l 589 933 l 833 933 z "},"ẁ":{"ha":1156,"x_min":0,"x_max":1156,"o":"m 711 800 l 533 800 l 311 1022 l 578 1022 l 711 800 m 889 711 l 1156 711 l 911 0 l 689 0 l 578 344 l 467 0 l 244 0 l 0 711 l 267 711 l 361 344 l 472 711 l 683 711 l 794 344 l 889 711 z "},"Ẃ":{"ha":1422,"x_min":0,"x_max":1422,"o":"m 578 1022 l 711 1244 l 978 1244 l 756 1022 l 578 1022 m 833 933 l 967 378 l 1122 933 l 1422 933 l 1111 0 l 833 0 l 711 444 l 589 0 l 311 0 l 0 933 l 300 933 l 456 378 l 589 933 l 833 933 z "},"ẃ":{"ha":1156,"x_min":0,"x_max":1156,"o":"m 444 800 l 578 1022 l 844 1022 l 622 800 l 444 800 m 889 711 l 1156 711 l 911 0 l 689 0 l 578 344 l 467 0 l 244 0 l 0 711 l 267 711 l 361 344 l 472 711 l 683 711 l 794 344 l 889 711 z "},"Ẅ":{"ha":1422,"x_min":0,"x_max":1422,"o":"m 634 1055 q 618 1039 634 1055 q 556 1022 601 1022 q 477 1055 510 1022 q 444 1133 444 1088 q 477 1212 444 1179 q 556 1244 510 1244 q 634 1212 601 1244 q 667 1133 667 1179 q 634 1055 667 1088 m 945 1055 q 929 1039 945 1055 q 867 1022 913 1022 q 788 1055 821 1022 q 756 1133 756 1088 q 788 1212 756 1179 q 867 1244 821 1244 q 945 1212 913 1244 q 978 1133 978 1179 q 945 1055 978 1088 m 833 933 l 967 378 l 1122 933 l 1422 933 l 1111 0 l 833 0 l 711 444 l 589 0 l 311 0 l 0 933 l 300 933 l 456 378 l 589 933 l 833 933 z "},"ẅ":{"ha":1156,"x_min":0,"x_max":1156,"o":"m 501 833 q 484 816 501 833 q 422 800 468 800 q 344 833 376 800 q 311 911 311 865 q 344 990 311 957 q 422 1022 376 1022 q 501 990 468 1022 q 533 911 533 957 q 501 833 533 865 m 812 833 q 795 816 812 833 q 733 800 779 800 q 655 833 688 800 q 622 911 622 865 q 655 990 622 957 q 733 1022 688 1022 q 812 990 779 1022 q 844 911 844 957 q 812 833 844 865 m 889 711 l 1156 711 l 911 0 l 689 0 l 578 344 l 467 0 l 244 0 l 0 711 l 267 711 l 361 344 l 472 711 l 683 711 l 794 344 l 889 711 z "},"Ỳ":{"ha":956,"x_min":-11,"x_max":967,"o":"m 611 1022 l 433 1022 l 211 1244 l 478 1244 l 611 1022 m 656 933 l 967 933 l 611 378 l 611 0 l 344 0 l 344 378 l -11 933 l 300 933 l 478 644 l 656 933 z "},"ỳ":{"ha":778,"x_min":-11,"x_max":789,"o":"m 522 800 l 344 800 l 122 1022 l 389 1022 l 522 800 m 367 -356 l 100 -356 l 256 22 l -11 711 l 256 711 l 389 333 l 522 711 l 789 711 l 367 -356 z "},"–":{"ha":733,"x_min":56,"x_max":678,"o":"m 678 278 l 56 278 l 56 456 l 678 456 l 678 278 z "},"—":{"ha":867,"x_min":56,"x_max":811,"o":"m 811 278 l 56 278 l 56 456 l 811 456 l 811 278 z "},"‘":{"ha":378,"x_min":33,"x_max":344,"o":"m 344 933 l 278 600 l 33 600 l 189 933 l 344 933 z "},"’":{"ha":378,"x_min":33,"x_max":344,"o":"m 33 600 l 100 933 l 344 933 l 189 600 l 33 600 z "},"‚":{"ha":378,"x_min":33,"x_max":344,"o":"m 33 -156 l 100 178 l 344 178 l 189 -156 l 33 -156 z "},"“":{"ha":711,"x_min":33,"x_max":678,"o":"m 344 933 l 278 600 l 33 600 l 189 933 l 344 933 m 678 933 l 611 600 l 367 600 l 522 933 l 678 933 z "},"”":{"ha":711,"x_min":33,"x_max":678,"o":"m 33 600 l 100 933 l 344 933 l 189 600 l 33 600 m 367 600 l 433 933 l 678 933 l 522 600 l 367 600 z "},"„":{"ha":711,"x_min":33,"x_max":678,"o":"m 33 -156 l 100 178 l 344 178 l 189 -156 l 33 -156 m 367 -156 l 433 178 l 678 178 l 522 -156 l 367 -156 z "},"†":{"ha":911,"x_min":56,"x_max":856,"o":"m 856 533 l 556 533 l 456 -378 l 356 533 l 56 533 l 56 711 l 356 711 l 356 1067 l 556 1067 l 556 711 l 856 711 l 856 533 z "},"‡":{"ha":911,"x_min":56,"x_max":856,"o":"m 856 533 l 556 533 l 556 400 l 856 400 l 856 222 l 543 222 l 456 -378 l 368 222 l 56 222 l 56 400 l 356 400 l 356 533 l 56 533 l 56 711 l 356 711 l 356 1067 l 556 1067 l 556 711 l 856 711 l 856 533 z "},"•":{"ha":1111,"x_min":367,"x_max":744,"o":"m 422 601 q 449 628 422 601 q 556 656 476 656 q 690 601 635 656 q 744 467 744 546 q 690 333 744 388 q 556 278 635 278 q 422 333 476 278 q 367 467 367 388 q 422 601 367 546 z "},"…":{"ha":1133,"x_min":56,"x_max":1078,"o":"m 283 17 q 264 -3 283 17 q 189 -22 244 -22 q 94 17 133 -22 q 56 111 56 56 q 94 206 56 167 q 189 244 133 244 q 283 206 244 244 q 322 111 322 167 q 283 17 322 56 m 661 17 q 642 -3 661 17 q 567 -22 622 -22 q 472 17 511 -22 q 433 111 433 56 q 472 206 433 167 q 567 244 511 244 q 661 206 622 244 q 700 111 700 167 q 661 17 700 56 m 1039 17 q 1019 -3 1039 17 q 944 -22 1000 -22 q 850 17 889 -22 q 811 111 811 56 q 850 206 811 167 q 944 244 889 244 q 1039 206 1000 244 q 1078 111 1078 167 q 1039 17 1078 56 z "},"‰":{"ha":1711,"x_min":56,"x_max":1656,"o":"m 290 489 q 124 557 193 489 q 56 722 56 625 q 124 887 56 818 q 290 956 193 956 q 454 887 386 956 q 522 722 522 818 q 454 557 522 625 q 290 489 386 489 m 342 0 l 186 0 l 836 933 l 992 933 l 342 0 m 235 668 q 247 656 235 668 q 289 644 258 644 q 343 668 319 644 q 367 722 367 692 q 343 776 367 753 q 289 800 319 800 q 235 776 258 800 q 211 722 211 753 q 235 668 211 692 m 890 -22 q 724 46 793 -22 q 656 211 656 114 q 724 376 656 307 q 890 444 793 444 q 1054 376 986 444 q 1122 211 1122 307 q 1054 46 1122 114 q 890 -22 986 -22 m 1424 -22 q 1258 46 1326 -22 q 1189 211 1189 114 q 1258 376 1189 307 q 1424 444 1326 444 q 1588 376 1519 444 q 1656 211 1656 307 q 1588 46 1656 114 q 1424 -22 1519 -22 m 835 157 q 847 145 835 157 q 889 133 858 133 q 943 157 919 133 q 967 211 967 181 q 943 265 967 242 q 889 289 919 289 q 835 265 858 289 q 811 211 811 242 q 835 157 811 181 m 1368 157 q 1380 145 1368 157 q 1422 133 1392 133 q 1476 157 1453 133 q 1500 211 1500 181 q 1476 265 1500 242 q 1422 289 1453 289 q 1368 265 1392 289 q 1344 211 1344 242 q 1368 157 1344 181 z "},"‹":{"ha":578,"x_min":56,"x_max":478,"o":"m 278 711 l 478 711 l 256 378 l 478 44 l 278 44 l 56 378 l 278 711 z "},"›":{"ha":578,"x_min":100,"x_max":522,"o":"m 300 711 l 522 378 l 300 44 l 100 44 l 322 378 l 100 711 l 300 711 z "},"⁄":{"ha":272,"x_min":-267,"x_max":539,"o":"m -111 0 l -267 0 l 383 933 l 539 933 l -111 0 z "},"⁰":{"ha":533,"x_min":56,"x_max":478,"o":"m 115 985 q 144 1020 115 985 q 267 1056 174 1056 q 419 985 360 1056 q 478 811 478 914 q 419 638 478 708 q 267 567 360 567 q 115 638 174 567 q 56 811 56 708 q 115 985 56 914 m 212 725 q 223 707 212 725 q 267 689 235 689 q 322 725 299 689 q 344 811 344 761 q 322 898 344 863 q 267 933 299 933 q 212 897 235 933 q 189 811 189 861 q 212 725 189 761 z "},"⁴":{"ha":511,"x_min":33,"x_max":456,"o":"m 400 767 l 456 767 l 456 656 l 400 656 l 400 578 l 267 578 l 267 656 l 33 656 l 33 756 l 233 1044 l 400 1044 l 400 767 m 267 767 l 267 911 l 178 767 l 267 767 z "},"⁵":{"ha":511,"x_min":56,"x_max":456,"o":"m 278 889 q 456 744 456 889 q 399 615 456 663 q 250 567 343 567 q 110 608 165 567 q 56 722 56 650 l 194 731 q 215 693 197 708 q 256 678 232 678 q 301 696 282 678 q 319 739 319 714 q 256 789 319 789 q 200 767 218 789 l 67 767 l 101 1044 l 411 1044 l 411 922 l 211 922 l 207 878 q 235 886 218 883 q 265 889 253 889 l 278 889 z "},"⁶":{"ha":511,"x_min":56,"x_max":456,"o":"m 292 911 q 413 865 369 911 q 456 756 456 818 q 401 619 456 671 q 256 567 346 567 q 109 617 163 567 q 56 760 56 668 q 225 1044 56 915 l 422 1044 q 390 1028 410 1039 q 323 981 369 1018 q 247 904 276 944 q 292 911 261 911 m 208 706 q 218 697 208 706 q 256 689 228 689 q 303 705 283 689 q 322 744 322 721 q 303 784 322 768 q 256 800 283 800 q 208 783 228 800 q 189 744 189 767 q 208 706 189 722 z "},"⁷":{"ha":500,"x_min":78,"x_max":489,"o":"m 78 1044 l 489 1044 l 278 578 l 122 578 l 289 922 l 78 922 l 78 1044 z "},"⁸":{"ha":511,"x_min":56,"x_max":456,"o":"m 396 825 q 456 722 456 794 q 403 611 456 656 q 256 567 350 567 q 109 611 163 567 q 56 722 56 656 q 115 825 56 794 q 65 911 65 854 q 119 1014 65 972 q 256 1056 172 1056 q 393 1014 340 1056 q 446 911 446 972 q 396 825 446 854 m 299 931 q 290 938 299 931 q 256 944 281 944 q 213 931 231 944 q 194 900 194 918 q 213 869 194 882 q 256 856 231 856 q 299 869 281 856 q 317 900 317 882 q 299 931 317 918 m 208 692 q 218 685 208 692 q 256 678 228 678 q 303 692 283 678 q 322 728 322 707 q 303 763 322 749 q 256 778 283 778 q 208 763 228 778 q 189 728 189 749 q 208 692 189 707 z "},"⁹":{"ha":511,"x_min":56,"x_max":456,"o":"m 219 711 q 99 758 142 711 q 56 867 56 806 q 111 1004 56 953 q 256 1056 167 1056 q 403 1006 350 1056 q 456 863 456 956 q 288 578 456 707 l 89 578 q 122 594 101 583 q 189 641 142 604 q 265 718 236 678 q 219 711 250 711 m 303 917 q 293 925 303 917 q 256 933 283 933 q 208 917 228 933 q 189 878 189 900 q 208 839 189 856 q 256 822 228 822 q 303 838 283 822 q 322 878 322 854 q 303 917 322 901 z "},"€":{"ha":978,"x_min":33,"x_max":944,"o":"m 632 222 q 843 317 760 222 l 944 90 q 797 8 883 38 q 625 -22 710 -22 q 303 81 444 -22 q 117 344 161 185 l 33 344 l 33 433 l 101 433 q 100 467 100 444 q 101 500 100 489 l 33 500 l 33 589 l 117 589 q 303 852 161 749 q 625 956 444 956 q 797 926 710 956 q 944 844 883 897 l 843 617 q 632 711 760 711 q 499 678 560 711 q 403 589 438 644 l 633 589 l 613 500 l 369 500 q 367 467 367 478 q 369 433 367 456 l 599 433 l 579 344 l 403 344 q 499 256 438 289 q 632 222 560 222 z "},"™":{"ha":978,"x_min":56,"x_max":922,"o":"m 56 933 l 392 933 l 392 824 l 283 824 l 283 517 l 164 517 l 164 824 l 56 824 l 56 933 m 882 933 l 922 517 l 803 517 l 783 735 l 714 517 l 614 517 l 544 735 l 525 517 l 406 517 l 446 933 l 565 933 l 664 685 l 763 933 l 882 933 z "},"⅛":{"ha":1283,"x_min":122,"x_max":1228,"o":"m 122 889 l 356 944 l 356 467 l 222 467 l 222 796 l 122 776 l 122 889 m 389 0 l 233 0 l 883 933 l 1039 933 l 389 0 m 1168 247 q 1228 144 1228 217 q 1175 33 1228 78 q 1028 -11 1122 -11 q 881 33 935 -11 q 828 144 828 78 q 888 247 828 217 q 838 333 838 276 q 891 436 838 394 q 1028 478 944 478 q 1165 436 1113 478 q 1218 333 1218 394 q 1168 247 1218 276 m 1071 353 q 1062 360 1071 353 q 1028 367 1053 367 q 985 353 1003 367 q 967 322 967 340 q 985 291 967 304 q 1028 278 1003 278 q 1071 291 1053 278 q 1089 322 1089 304 q 1071 353 1089 340 m 981 115 q 990 107 981 115 q 1028 100 1000 100 q 1075 115 1056 100 q 1094 150 1094 129 q 1075 185 1094 171 q 1028 200 1056 200 q 981 185 1000 200 q 961 150 961 171 q 981 115 961 129 z "},"⅜":{"ha":1294,"x_min":56,"x_max":1239,"o":"m 389 714 q 456 611 456 681 q 404 503 456 551 q 256 456 353 456 q 112 498 168 456 q 56 622 56 540 l 189 633 q 261 569 189 569 q 302 582 286 569 q 318 614 318 594 q 218 661 318 661 l 218 750 q 228 750 222 750 q 251 752 235 750 q 279 758 267 754 q 301 772 292 763 q 311 794 311 781 q 295 821 311 810 q 256 832 279 832 q 189 772 193 832 l 67 783 q 126 903 75 861 q 256 944 176 944 q 394 902 343 944 q 444 800 444 860 q 389 714 444 742 m 400 0 l 244 0 l 894 933 l 1050 933 l 400 0 m 1179 247 q 1239 144 1239 217 q 1186 33 1239 78 q 1039 -11 1133 -11 q 892 33 946 -11 q 839 144 839 78 q 899 247 839 217 q 849 333 849 276 q 902 436 849 394 q 1039 478 956 478 q 1176 436 1124 478 q 1229 333 1229 394 q 1179 247 1229 276 m 1082 353 q 1073 360 1082 353 q 1039 367 1064 367 q 996 353 1014 367 q 978 322 978 340 q 996 291 978 304 q 1039 278 1014 278 q 1082 291 1064 278 q 1100 322 1100 304 q 1082 353 1100 340 m 992 115 q 1001 107 992 115 q 1039 100 1011 100 q 1086 115 1067 100 q 1106 150 1106 129 q 1086 185 1106 171 q 1039 200 1067 200 q 992 185 1011 200 q 972 150 972 171 q 992 115 972 129 z "},"⅝":{"ha":1294,"x_min":56,"x_max":1239,"o":"m 278 778 q 456 633 456 778 q 399 503 456 551 q 250 456 343 456 q 110 497 165 456 q 56 611 56 539 l 194 619 q 215 582 197 597 q 256 567 232 567 q 301 585 282 567 q 319 628 319 603 q 256 678 319 678 q 200 656 218 678 l 67 656 l 101 933 l 411 933 l 411 811 l 211 811 l 207 767 q 235 775 218 772 q 265 778 253 778 l 278 778 m 400 0 l 244 0 l 894 933 l 1050 933 l 400 0 m 1179 247 q 1239 144 1239 217 q 1186 33 1239 78 q 1039 -11 1133 -11 q 892 33 946 -11 q 839 144 839 78 q 899 247 839 217 q 849 333 849 276 q 902 436 849 394 q 1039 478 956 478 q 1176 436 1124 478 q 1229 333 1229 394 q 1179 247 1229 276 m 1082 353 q 1073 360 1082 353 q 1039 367 1064 367 q 996 353 1014 367 q 978 322 978 340 q 996 291 978 304 q 1039 278 1014 278 q 1082 291 1064 278 q 1100 322 1100 304 q 1082 353 1100 340 m 992 115 q 1001 107 992 115 q 1039 100 1011 100 q 1086 115 1067 100 q 1106 150 1106 129 q 1086 185 1106 171 q 1039 200 1067 200 q 992 185 1011 200 q 972 150 972 171 q 992 115 972 129 z "},"⅞":{"ha":1283,"x_min":78,"x_max":1228,"o":"m 78 933 l 489 933 l 278 467 l 122 467 l 289 811 l 78 811 l 78 933 m 389 0 l 233 0 l 883 933 l 1039 933 l 389 0 m 1168 247 q 1228 144 1228 217 q 1175 33 1228 78 q 1028 -11 1122 -11 q 881 33 935 -11 q 828 144 828 78 q 888 247 828 217 q 838 333 838 276 q 891 436 838 394 q 1028 478 944 478 q 1165 436 1113 478 q 1218 333 1218 394 q 1168 247 1218 276 m 1071 353 q 1062 360 1071 353 q 1028 367 1053 367 q 985 353 1003 367 q 967 322 967 340 q 985 291 967 304 q 1028 278 1003 278 q 1071 291 1053 278 q 1089 322 1089 304 q 1071 353 1089 340 m 981 115 q 990 107 981 115 q 1028 100 1000 100 q 1075 115 1056 100 q 1094 150 1094 129 q 1075 185 1094 171 q 1028 200 1056 200 q 981 185 1000 200 q 961 150 961 171 q 981 115 961 129 z "},"∂":{"ha":911,"x_min":56,"x_max":856,"o":"m 306 1111 q 710 851 565 1061 q 856 369 856 640 q 744 90 856 201 q 456 -22 632 -22 q 165 86 274 -22 q 56 356 56 194 q 164 625 56 517 q 456 733 272 733 q 499 732 485 733 q 381 851 467 801 q 194 911 296 900 l 306 1111 m 361 246 q 381 223 361 246 q 456 200 400 200 q 550 246 511 200 q 589 356 589 292 q 550 465 589 419 q 456 511 511 511 q 361 465 400 511 q 322 356 322 419 q 361 246 322 292 z "},"∅":{"ha":856,"x_min":0,"x_max":0,"o":""},"∏":{"ha":1000,"x_min":78,"x_max":922,"o":"m 922 978 l 922 -356 l 678 -356 l 678 756 l 322 756 l 322 -356 l 78 -356 l 78 978 l 922 978 z "},"∑":{"ha":956,"x_min":78,"x_max":878,"o":"m 381 800 l 744 333 l 381 -133 l 878 -133 l 878 -356 l 78 -356 l 78 -133 l 456 333 l 78 800 l 78 1022 l 878 1022 l 878 800 l 381 800 z "},"−":{"ha":711,"x_min":56,"x_max":656,"o":"m 56 500 l 656 500 l 656 344 l 56 344 l 56 500 z "},"√":{"ha":1311,"x_min":33,"x_max":1278,"o":"m 1278 933 l 1278 711 l 822 711 l 544 0 l 322 0 l 33 711 l 300 711 l 433 333 l 635 933 l 1278 933 z "},"∞":{"ha":889,"x_min":56,"x_max":833,"o":"m 601 633 q 765 565 697 633 q 833 400 833 496 q 765 235 833 303 q 601 167 697 167 q 444 226 511 167 q 290 167 381 167 q 124 235 193 167 q 56 400 56 303 q 124 565 56 496 q 290 633 193 633 q 444 574 381 633 q 601 633 511 633 m 235 346 q 247 334 235 346 q 289 322 258 322 q 343 346 319 322 q 367 400 367 369 q 343 454 367 431 q 289 478 319 478 q 235 454 258 478 q 211 400 211 431 q 235 346 211 369 m 546 346 q 558 334 546 346 q 600 322 569 322 q 654 346 631 322 q 678 400 678 369 q 654 454 678 431 q 600 478 631 478 q 546 454 569 478 q 522 400 522 431 q 546 346 522 369 z "},"∫":{"ha":533,"x_min":56,"x_max":478,"o":"m 144 606 q 230 859 144 763 q 478 956 315 956 l 478 733 q 413 703 438 733 q 389 624 389 674 l 389 -28 q 303 -281 389 -185 q 56 -378 218 -378 l 56 -156 q 120 -126 96 -156 q 144 -46 144 -96 l 144 606 z "},"≈":{"ha":756,"x_min":56,"x_max":700,"o":"m 585 667 l 700 622 q 500 467 626 467 q 460 472 482 467 q 425 483 439 478 q 385 501 411 489 q 351 515 358 513 q 293 536 315 531 q 247 540 271 542 q 206 519 224 538 q 171 467 188 501 l 56 511 q 256 667 129 667 q 295 661 274 667 q 331 649 317 656 q 369 632 344 643 q 404 617 394 621 q 509 594 464 586 q 585 667 554 601 m 585 422 l 700 378 q 500 222 626 222 q 460 228 482 222 q 425 239 439 233 q 385 256 411 244 q 351 271 358 268 q 293 292 315 286 q 247 295 271 297 q 206 275 224 293 q 171 222 188 257 l 56 267 q 256 422 129 422 q 295 417 274 422 q 331 405 317 411 q 369 388 344 399 q 404 372 394 376 q 509 349 464 342 q 585 422 554 357 z "},"≠":{"ha":711,"x_min":56,"x_max":656,"o":"m 656 467 l 433 467 l 411 378 l 656 378 l 656 222 l 375 222 l 322 0 l 189 0 l 242 222 l 56 222 l 56 378 l 278 378 l 300 467 l 56 467 l 56 622 l 336 622 l 389 844 l 522 844 l 469 622 l 656 622 l 656 467 z "},"≤":{"ha":756,"x_min":56,"x_max":700,"o":"m 700 244 l 56 556 l 56 689 l 700 1000 l 700 822 l 256 622 l 700 422 l 700 244 m 700 156 l 700 0 l 56 0 l 56 156 l 700 156 z "},"≥":{"ha":756,"x_min":56,"x_max":700,"o":"m 56 244 l 56 422 l 500 622 l 56 822 l 56 1000 l 700 689 l 700 556 l 56 244 m 56 156 l 700 156 l 700 0 l 56 0 l 56 156 z "},"◊":{"ha":867,"x_min":56,"x_max":811,"o":"m 811 467 l 433 -22 l 56 467 l 433 956 l 811 467 m 611 467 l 433 692 l 258 467 l 433 242 l 611 467 z "}}}
